<?xml version="1.0" encoding="utf-8"?>
<svg xmlns="http://www.w3.org/2000/svg" xmlns:xlink="http://www.w3.org/1999/xlink" width="900" height="400" viewBox="0 0 3600 1600">
<defs>
  <clipPath id="clip430">
    <rect x="0" y="0" width="3600" height="1600"/>
  </clipPath>
</defs>
<path clip-path="url(#clip430)" d="
M0 1600 L3600 1600 L3600 0 L0 0  Z
  " fill="#ffffff" fill-rule="evenodd" fill-opacity="1"/>
<defs>
  <clipPath id="clip431">
    <rect x="720" y="0" width="2521" height="1600"/>
  </clipPath>
</defs>
<path clip-path="url(#clip430)" d="
M278.185 1387.55 L1752.76 1387.55 L1752.76 103.312 L278.185 103.312  Z
  " fill="#ffffff" fill-rule="evenodd" fill-opacity="1"/>
<defs>
  <clipPath id="clip432">
    <rect x="278" y="103" width="1476" height="1285"/>
  </clipPath>
</defs>
<polyline clip-path="url(#clip432)" style="stroke:#000000; stroke-linecap:round; stroke-linejoin:round; stroke-width:2; stroke-opacity:0.1; fill:none" points="
  518.647,1387.55 518.647,103.312 
  "/>
<polyline clip-path="url(#clip432)" style="stroke:#000000; stroke-linecap:round; stroke-linejoin:round; stroke-width:2; stroke-opacity:0.1; fill:none" points="
  916.106,1387.55 916.106,103.312 
  "/>
<polyline clip-path="url(#clip432)" style="stroke:#000000; stroke-linecap:round; stroke-linejoin:round; stroke-width:2; stroke-opacity:0.1; fill:none" points="
  1313.56,1387.55 1313.56,103.312 
  "/>
<polyline clip-path="url(#clip432)" style="stroke:#000000; stroke-linecap:round; stroke-linejoin:round; stroke-width:2; stroke-opacity:0.1; fill:none" points="
  1711.02,1387.55 1711.02,103.312 
  "/>
<polyline clip-path="url(#clip430)" style="stroke:#000000; stroke-linecap:round; stroke-linejoin:round; stroke-width:4; stroke-opacity:1; fill:none" points="
  278.185,1387.55 1752.76,1387.55 
  "/>
<polyline clip-path="url(#clip430)" style="stroke:#000000; stroke-linecap:round; stroke-linejoin:round; stroke-width:4; stroke-opacity:1; fill:none" points="
  518.647,1387.55 518.647,1368.65 
  "/>
<polyline clip-path="url(#clip430)" style="stroke:#000000; stroke-linecap:round; stroke-linejoin:round; stroke-width:4; stroke-opacity:1; fill:none" points="
  916.106,1387.55 916.106,1368.65 
  "/>
<polyline clip-path="url(#clip430)" style="stroke:#000000; stroke-linecap:round; stroke-linejoin:round; stroke-width:4; stroke-opacity:1; fill:none" points="
  1313.56,1387.55 1313.56,1368.65 
  "/>
<polyline clip-path="url(#clip430)" style="stroke:#000000; stroke-linecap:round; stroke-linejoin:round; stroke-width:4; stroke-opacity:1; fill:none" points="
  1711.02,1387.55 1711.02,1368.65 
  "/>
<path clip-path="url(#clip430)" d="M513.3 1455.61 L529.62 1455.61 L529.62 1459.55 L507.675 1459.55 L507.675 1455.61 Q510.337 1452.86 514.921 1448.23 Q519.527 1443.58 520.708 1442.23 Q522.953 1439.71 523.833 1437.97 Q524.735 1436.21 524.735 1434.52 Q524.735 1431.77 522.791 1430.03 Q520.87 1428.3 517.768 1428.3 Q515.569 1428.3 513.115 1429.06 Q510.685 1429.83 507.907 1431.38 L507.907 1426.65 Q510.731 1425.52 513.184 1424.94 Q515.638 1424.36 517.675 1424.36 Q523.046 1424.36 526.24 1427.05 Q529.434 1429.73 529.434 1434.22 Q529.434 1436.35 528.624 1438.27 Q527.837 1440.17 525.731 1442.77 Q525.152 1443.44 522.05 1446.65 Q518.948 1449.85 513.3 1455.61 Z" fill="#000000" fill-rule="evenodd" fill-opacity="1" /><path clip-path="url(#clip430)" d="M919.115 1429.06 L907.31 1447.51 L919.115 1447.51 L919.115 1429.06 M917.888 1424.99 L923.768 1424.99 L923.768 1447.51 L928.698 1447.51 L928.698 1451.4 L923.768 1451.4 L923.768 1459.55 L919.115 1459.55 L919.115 1451.4 L903.513 1451.4 L903.513 1446.89 L917.888 1424.99 Z" fill="#000000" fill-rule="evenodd" fill-opacity="1" /><path clip-path="url(#clip430)" d="M1313.97 1440.4 Q1310.82 1440.4 1308.97 1442.56 Q1307.14 1444.71 1307.14 1448.46 Q1307.14 1452.19 1308.97 1454.36 Q1310.82 1456.52 1313.97 1456.52 Q1317.12 1456.52 1318.95 1454.36 Q1320.8 1452.19 1320.8 1448.46 Q1320.8 1444.71 1318.95 1442.56 Q1317.12 1440.4 1313.97 1440.4 M1323.25 1425.75 L1323.25 1430.01 Q1321.49 1429.18 1319.69 1428.74 Q1317.9 1428.3 1316.15 1428.3 Q1311.52 1428.3 1309.06 1431.42 Q1306.63 1434.55 1306.28 1440.87 Q1307.65 1438.85 1309.71 1437.79 Q1311.77 1436.7 1314.25 1436.7 Q1319.46 1436.7 1322.46 1439.87 Q1325.5 1443.02 1325.5 1448.46 Q1325.5 1453.78 1322.35 1457 Q1319.2 1460.22 1313.97 1460.22 Q1307.97 1460.22 1304.8 1455.64 Q1301.63 1451.03 1301.63 1442.3 Q1301.63 1434.11 1305.52 1429.25 Q1309.41 1424.36 1315.96 1424.36 Q1317.72 1424.36 1319.5 1424.71 Q1321.31 1425.06 1323.25 1425.75 Z" fill="#000000" fill-rule="evenodd" fill-opacity="1" /><path clip-path="url(#clip430)" d="M1711.02 1443.14 Q1707.69 1443.14 1705.77 1444.92 Q1703.87 1446.7 1703.87 1449.83 Q1703.87 1452.95 1705.77 1454.73 Q1707.69 1456.52 1711.02 1456.52 Q1714.36 1456.52 1716.28 1454.73 Q1718.2 1452.93 1718.2 1449.83 Q1718.2 1446.7 1716.28 1444.92 Q1714.38 1443.14 1711.02 1443.14 M1706.35 1441.15 Q1703.34 1440.4 1701.65 1438.34 Q1699.98 1436.28 1699.98 1433.32 Q1699.98 1429.18 1702.92 1426.77 Q1705.88 1424.36 1711.02 1424.36 Q1716.18 1424.36 1719.12 1426.77 Q1722.06 1429.18 1722.06 1433.32 Q1722.06 1436.28 1720.37 1438.34 Q1718.71 1440.4 1715.72 1441.15 Q1719.1 1441.93 1720.98 1444.22 Q1722.87 1446.52 1722.87 1449.83 Q1722.87 1454.85 1719.8 1457.53 Q1716.74 1460.22 1711.02 1460.22 Q1705.31 1460.22 1702.23 1457.53 Q1699.17 1454.85 1699.17 1449.83 Q1699.17 1446.52 1701.07 1444.22 Q1702.97 1441.93 1706.35 1441.15 M1704.63 1433.76 Q1704.63 1436.45 1706.3 1437.95 Q1707.99 1439.46 1711.02 1439.46 Q1714.03 1439.46 1715.72 1437.95 Q1717.43 1436.45 1717.43 1433.76 Q1717.43 1431.08 1715.72 1429.57 Q1714.03 1428.07 1711.02 1428.07 Q1707.99 1428.07 1706.3 1429.57 Q1704.63 1431.08 1704.63 1433.76 Z" fill="#000000" fill-rule="evenodd" fill-opacity="1" /><path clip-path="url(#clip430)" d="M879.26 1521.73 L869.998 1521.73 L867.325 1532.36 L876.65 1532.36 L879.26 1521.73 M874.486 1503.62 L871.176 1516.83 L880.47 1516.83 L883.812 1503.62 L888.904 1503.62 L885.626 1516.83 L895.556 1516.83 L895.556 1521.73 L884.385 1521.73 L881.775 1532.36 L891.896 1532.36 L891.896 1537.23 L880.533 1537.23 L877.223 1550.41 L872.131 1550.41 L875.409 1537.23 L866.083 1537.23 L862.805 1550.41 L857.681 1550.41 L860.991 1537.23 L850.965 1537.23 L850.965 1532.36 L862.168 1532.36 L864.842 1521.73 L854.593 1521.73 L854.593 1516.83 L866.083 1516.83 L869.33 1503.62 L874.486 1503.62 Z" fill="#000000" fill-rule="evenodd" fill-opacity="1" /><path clip-path="url(#clip430)" d="M921.083 1502.89 L961.282 1502.89 L961.282 1508.3 L944.413 1508.3 L944.413 1550.41 L937.952 1550.41 L937.952 1508.3 L921.083 1508.3 L921.083 1502.89 Z" fill="#000000" fill-rule="evenodd" fill-opacity="1" /><path clip-path="url(#clip430)" d="M996.867 1528.9 L996.867 1550.41 L991.01 1550.41 L991.01 1529.09 Q991.01 1524.03 989.037 1521.51 Q987.064 1519 983.117 1519 Q978.374 1519 975.637 1522.02 Q972.9 1525.04 972.9 1530.26 L972.9 1550.41 L967.012 1550.41 L967.012 1500.89 L972.9 1500.89 L972.9 1520.3 Q975.001 1517.09 977.833 1515.5 Q980.698 1513.9 984.422 1513.9 Q990.565 1513.9 993.716 1517.72 Q996.867 1521.51 996.867 1528.9 Z" fill="#000000" fill-rule="evenodd" fill-opacity="1" /><path clip-path="url(#clip430)" d="M1029.2 1520.24 Q1028.22 1519.67 1027.04 1519.41 Q1025.89 1519.12 1024.49 1519.12 Q1019.53 1519.12 1016.86 1522.37 Q1014.21 1525.59 1014.21 1531.63 L1014.21 1550.41 L1008.32 1550.41 L1008.32 1514.76 L1014.21 1514.76 L1014.21 1520.3 Q1016.06 1517.06 1019.02 1515.5 Q1021.98 1513.9 1026.21 1513.9 Q1026.82 1513.9 1027.55 1514 Q1028.28 1514.06 1029.17 1514.22 L1029.2 1520.24 Z" fill="#000000" fill-rule="evenodd" fill-opacity="1" /><path clip-path="url(#clip430)" d="M1064.41 1531.12 L1064.41 1533.99 L1037.48 1533.99 Q1037.86 1540.04 1041.11 1543.22 Q1044.39 1546.37 1050.21 1546.37 Q1053.59 1546.37 1056.74 1545.54 Q1059.92 1544.71 1063.04 1543.06 L1063.04 1548.6 Q1059.89 1549.93 1056.58 1550.63 Q1053.27 1551.33 1049.86 1551.33 Q1041.33 1551.33 1036.33 1546.37 Q1031.37 1541.4 1031.37 1532.94 Q1031.37 1524.19 1036.08 1519.06 Q1040.82 1513.9 1048.84 1513.9 Q1056.04 1513.9 1060.21 1518.55 Q1064.41 1523.17 1064.41 1531.12 M1058.55 1529.4 Q1058.49 1524.6 1055.84 1521.73 Q1053.24 1518.87 1048.91 1518.87 Q1044 1518.87 1041.04 1521.64 Q1038.12 1524.41 1037.67 1529.44 L1058.55 1529.4 Z" fill="#000000" fill-rule="evenodd" fill-opacity="1" /><path clip-path="url(#clip430)" d="M1090.22 1532.49 Q1083.12 1532.49 1080.38 1534.12 Q1077.65 1535.74 1077.65 1539.65 Q1077.65 1542.77 1079.68 1544.62 Q1081.75 1546.43 1085.29 1546.43 Q1090.16 1546.43 1093.08 1543 Q1096.04 1539.53 1096.04 1533.8 L1096.04 1532.49 L1090.22 1532.49 M1101.9 1530.07 L1101.9 1550.41 L1096.04 1550.41 L1096.04 1545 Q1094.04 1548.25 1091.05 1549.81 Q1088.06 1551.33 1083.73 1551.33 Q1078.25 1551.33 1075.01 1548.28 Q1071.79 1545.19 1071.79 1540.04 Q1071.79 1534.02 1075.8 1530.96 Q1079.84 1527.91 1087.83 1527.91 L1096.04 1527.91 L1096.04 1527.34 Q1096.04 1523.29 1093.37 1521.1 Q1090.73 1518.87 1085.92 1518.87 Q1082.87 1518.87 1079.97 1519.6 Q1077.07 1520.33 1074.4 1521.8 L1074.4 1516.39 Q1077.62 1515.15 1080.64 1514.54 Q1083.66 1513.9 1086.53 1513.9 Q1094.26 1513.9 1098.08 1517.91 Q1101.9 1521.93 1101.9 1530.07 Z" fill="#000000" fill-rule="evenodd" fill-opacity="1" /><path clip-path="url(#clip430)" d="M1137.42 1520.17 L1137.42 1500.89 L1143.28 1500.89 L1143.28 1550.41 L1137.42 1550.41 L1137.42 1545.06 Q1135.58 1548.25 1132.74 1549.81 Q1129.94 1551.33 1126 1551.33 Q1119.53 1551.33 1115.46 1546.18 Q1111.42 1541.02 1111.42 1532.62 Q1111.42 1524.22 1115.46 1519.06 Q1119.53 1513.9 1126 1513.9 Q1129.94 1513.9 1132.74 1515.46 Q1135.58 1516.99 1137.42 1520.17 M1117.47 1532.62 Q1117.47 1539.08 1120.11 1542.77 Q1122.78 1546.43 1127.43 1546.43 Q1132.07 1546.43 1134.75 1542.77 Q1137.42 1539.08 1137.42 1532.62 Q1137.42 1526.16 1134.75 1522.5 Q1132.07 1518.81 1127.43 1518.81 Q1122.78 1518.81 1120.11 1522.5 Q1117.47 1526.16 1117.47 1532.62 Z" fill="#000000" fill-rule="evenodd" fill-opacity="1" /><path clip-path="url(#clip430)" d="M1178.07 1515.81 L1178.07 1521.35 Q1175.58 1520.08 1172.91 1519.44 Q1170.24 1518.81 1167.37 1518.81 Q1163.01 1518.81 1160.82 1520.14 Q1158.65 1521.48 1158.65 1524.15 Q1158.65 1526.19 1160.21 1527.37 Q1161.77 1528.51 1166.48 1529.56 L1168.49 1530.01 Q1174.72 1531.35 1177.33 1533.8 Q1179.98 1536.22 1179.98 1540.58 Q1179.98 1545.54 1176.03 1548.44 Q1172.11 1551.33 1165.24 1551.33 Q1162.38 1551.33 1159.26 1550.76 Q1156.17 1550.22 1152.73 1549.11 L1152.73 1543.06 Q1155.98 1544.75 1159.13 1545.61 Q1162.28 1546.43 1165.37 1546.43 Q1169.5 1546.43 1171.73 1545.03 Q1173.96 1543.6 1173.96 1541.02 Q1173.96 1538.64 1172.34 1537.36 Q1170.75 1536.09 1165.3 1534.91 L1163.27 1534.43 Q1157.82 1533.29 1155.4 1530.93 Q1152.99 1528.55 1152.99 1524.41 Q1152.99 1519.38 1156.55 1516.64 Q1160.12 1513.9 1166.67 1513.9 Q1169.92 1513.9 1172.78 1514.38 Q1175.65 1514.86 1178.07 1515.81 Z" fill="#000000" fill-rule="evenodd" fill-opacity="1" /><polyline clip-path="url(#clip432)" style="stroke:#000000; stroke-linecap:round; stroke-linejoin:round; stroke-width:2; stroke-opacity:0.1; fill:none" points="
  278.185,1374.13 1752.76,1374.13 
  "/>
<polyline clip-path="url(#clip432)" style="stroke:#000000; stroke-linecap:round; stroke-linejoin:round; stroke-width:2; stroke-opacity:0.1; fill:none" points="
  278.185,1121.59 1752.76,1121.59 
  "/>
<polyline clip-path="url(#clip432)" style="stroke:#000000; stroke-linecap:round; stroke-linejoin:round; stroke-width:2; stroke-opacity:0.1; fill:none" points="
  278.185,869.05 1752.76,869.05 
  "/>
<polyline clip-path="url(#clip432)" style="stroke:#000000; stroke-linecap:round; stroke-linejoin:round; stroke-width:2; stroke-opacity:0.1; fill:none" points="
  278.185,616.509 1752.76,616.509 
  "/>
<polyline clip-path="url(#clip432)" style="stroke:#000000; stroke-linecap:round; stroke-linejoin:round; stroke-width:2; stroke-opacity:0.1; fill:none" points="
  278.185,363.967 1752.76,363.967 
  "/>
<polyline clip-path="url(#clip432)" style="stroke:#000000; stroke-linecap:round; stroke-linejoin:round; stroke-width:2; stroke-opacity:0.1; fill:none" points="
  278.185,111.426 1752.76,111.426 
  "/>
<polyline clip-path="url(#clip430)" style="stroke:#000000; stroke-linecap:round; stroke-linejoin:round; stroke-width:4; stroke-opacity:1; fill:none" points="
  278.185,1387.55 278.185,103.312 
  "/>
<polyline clip-path="url(#clip430)" style="stroke:#000000; stroke-linecap:round; stroke-linejoin:round; stroke-width:4; stroke-opacity:1; fill:none" points="
  278.185,1374.13 297.083,1374.13 
  "/>
<polyline clip-path="url(#clip430)" style="stroke:#000000; stroke-linecap:round; stroke-linejoin:round; stroke-width:4; stroke-opacity:1; fill:none" points="
  278.185,1121.59 297.083,1121.59 
  "/>
<polyline clip-path="url(#clip430)" style="stroke:#000000; stroke-linecap:round; stroke-linejoin:round; stroke-width:4; stroke-opacity:1; fill:none" points="
  278.185,869.05 297.083,869.05 
  "/>
<polyline clip-path="url(#clip430)" style="stroke:#000000; stroke-linecap:round; stroke-linejoin:round; stroke-width:4; stroke-opacity:1; fill:none" points="
  278.185,616.509 297.083,616.509 
  "/>
<polyline clip-path="url(#clip430)" style="stroke:#000000; stroke-linecap:round; stroke-linejoin:round; stroke-width:4; stroke-opacity:1; fill:none" points="
  278.185,363.967 297.083,363.967 
  "/>
<polyline clip-path="url(#clip430)" style="stroke:#000000; stroke-linecap:round; stroke-linejoin:round; stroke-width:4; stroke-opacity:1; fill:none" points="
  278.185,111.426 297.083,111.426 
  "/>
<path clip-path="url(#clip430)" d="M168.005 1359.93 Q164.394 1359.93 162.565 1363.5 Q160.759 1367.04 160.759 1374.17 Q160.759 1381.27 162.565 1384.84 Q164.394 1388.38 168.005 1388.38 Q171.639 1388.38 173.445 1384.84 Q175.273 1381.27 175.273 1374.17 Q175.273 1367.04 173.445 1363.5 Q171.639 1359.93 168.005 1359.93 M168.005 1356.23 Q173.815 1356.23 176.871 1360.83 Q179.949 1365.42 179.949 1374.17 Q179.949 1382.89 176.871 1387.5 Q173.815 1392.08 168.005 1392.08 Q162.195 1392.08 159.116 1387.5 Q156.06 1382.89 156.06 1374.17 Q156.06 1365.42 159.116 1360.83 Q162.195 1356.23 168.005 1356.23 Z" fill="#000000" fill-rule="evenodd" fill-opacity="1" /><path clip-path="url(#clip430)" d="M188.167 1385.53 L193.051 1385.53 L193.051 1391.41 L188.167 1391.41 L188.167 1385.53 Z" fill="#000000" fill-rule="evenodd" fill-opacity="1" /><path clip-path="url(#clip430)" d="M203.282 1356.85 L221.639 1356.85 L221.639 1360.79 L207.565 1360.79 L207.565 1369.26 Q208.583 1368.91 209.602 1368.75 Q210.62 1368.57 211.639 1368.57 Q217.426 1368.57 220.805 1371.74 Q224.185 1374.91 224.185 1380.33 Q224.185 1385.9 220.713 1389.01 Q217.241 1392.08 210.921 1392.08 Q208.745 1392.08 206.477 1391.71 Q204.231 1391.34 201.824 1390.6 L201.824 1385.9 Q203.907 1387.04 206.13 1387.59 Q208.352 1388.15 210.829 1388.15 Q214.833 1388.15 217.171 1386.04 Q219.509 1383.94 219.509 1380.33 Q219.509 1376.71 217.171 1374.61 Q214.833 1372.5 210.829 1372.5 Q208.954 1372.5 207.079 1372.92 Q205.227 1373.33 203.282 1374.21 L203.282 1356.85 Z" fill="#000000" fill-rule="evenodd" fill-opacity="1" /><path clip-path="url(#clip430)" d="M157.82 1134.94 L165.459 1134.94 L165.459 1108.57 L157.148 1110.24 L157.148 1105.98 L165.412 1104.31 L170.088 1104.31 L170.088 1134.94 L177.727 1134.94 L177.727 1138.87 L157.82 1138.87 L157.82 1134.94 Z" fill="#000000" fill-rule="evenodd" fill-opacity="1" /><path clip-path="url(#clip430)" d="M187.171 1132.99 L192.056 1132.99 L192.056 1138.87 L187.171 1138.87 L187.171 1132.99 Z" fill="#000000" fill-rule="evenodd" fill-opacity="1" /><path clip-path="url(#clip430)" d="M212.241 1107.39 Q208.63 1107.39 206.801 1110.96 Q204.995 1114.5 204.995 1121.63 Q204.995 1128.73 206.801 1132.3 Q208.63 1135.84 212.241 1135.84 Q215.875 1135.84 217.68 1132.3 Q219.509 1128.73 219.509 1121.63 Q219.509 1114.5 217.68 1110.96 Q215.875 1107.39 212.241 1107.39 M212.241 1103.69 Q218.051 1103.69 221.106 1108.29 Q224.185 1112.88 224.185 1121.63 Q224.185 1130.35 221.106 1134.96 Q218.051 1139.54 212.241 1139.54 Q206.431 1139.54 203.352 1134.96 Q200.296 1130.35 200.296 1121.63 Q200.296 1112.88 203.352 1108.29 Q206.431 1103.69 212.241 1103.69 Z" fill="#000000" fill-rule="evenodd" fill-opacity="1" /><path clip-path="url(#clip430)" d="M158.815 882.395 L166.454 882.395 L166.454 856.03 L158.144 857.696 L158.144 853.437 L166.408 851.77 L171.083 851.77 L171.083 882.395 L178.722 882.395 L178.722 886.33 L158.815 886.33 L158.815 882.395 Z" fill="#000000" fill-rule="evenodd" fill-opacity="1" /><path clip-path="url(#clip430)" d="M188.167 880.451 L193.051 880.451 L193.051 886.33 L188.167 886.33 L188.167 880.451 Z" fill="#000000" fill-rule="evenodd" fill-opacity="1" /><path clip-path="url(#clip430)" d="M203.282 851.77 L221.639 851.77 L221.639 855.706 L207.565 855.706 L207.565 864.178 Q208.583 863.83 209.602 863.668 Q210.62 863.483 211.639 863.483 Q217.426 863.483 220.805 866.655 Q224.185 869.826 224.185 875.242 Q224.185 880.821 220.713 883.923 Q217.241 887.002 210.921 887.002 Q208.745 887.002 206.477 886.631 Q204.231 886.261 201.824 885.52 L201.824 880.821 Q203.907 881.955 206.13 882.511 Q208.352 883.067 210.829 883.067 Q214.833 883.067 217.171 880.96 Q219.509 878.854 219.509 875.242 Q219.509 871.631 217.171 869.525 Q214.833 867.418 210.829 867.418 Q208.954 867.418 207.079 867.835 Q205.227 868.252 203.282 869.131 L203.282 851.77 Z" fill="#000000" fill-rule="evenodd" fill-opacity="1" /><path clip-path="url(#clip430)" d="M161.037 629.854 L177.357 629.854 L177.357 633.789 L155.412 633.789 L155.412 629.854 Q158.074 627.099 162.658 622.469 Q167.264 617.817 168.445 616.474 Q170.69 613.951 171.57 612.215 Q172.472 610.456 172.472 608.766 Q172.472 606.011 170.528 604.275 Q168.607 602.539 165.505 602.539 Q163.306 602.539 160.852 603.303 Q158.422 604.067 155.644 605.618 L155.644 600.896 Q158.468 599.761 160.922 599.183 Q163.375 598.604 165.412 598.604 Q170.783 598.604 173.977 601.289 Q177.171 603.974 177.171 608.465 Q177.171 610.595 176.361 612.516 Q175.574 614.414 173.468 617.007 Q172.889 617.678 169.787 620.895 Q166.685 624.09 161.037 629.854 Z" fill="#000000" fill-rule="evenodd" fill-opacity="1" /><path clip-path="url(#clip430)" d="M187.171 627.909 L192.056 627.909 L192.056 633.789 L187.171 633.789 L187.171 627.909 Z" fill="#000000" fill-rule="evenodd" fill-opacity="1" /><path clip-path="url(#clip430)" d="M212.241 602.308 Q208.63 602.308 206.801 605.872 Q204.995 609.414 204.995 616.544 Q204.995 623.65 206.801 627.215 Q208.63 630.756 212.241 630.756 Q215.875 630.756 217.68 627.215 Q219.509 623.65 219.509 616.544 Q219.509 609.414 217.68 605.872 Q215.875 602.308 212.241 602.308 M212.241 598.604 Q218.051 598.604 221.106 603.21 Q224.185 607.794 224.185 616.544 Q224.185 625.27 221.106 629.877 Q218.051 634.46 212.241 634.46 Q206.431 634.46 203.352 629.877 Q200.296 625.27 200.296 616.544 Q200.296 607.794 203.352 603.21 Q206.431 598.604 212.241 598.604 Z" fill="#000000" fill-rule="evenodd" fill-opacity="1" /><path clip-path="url(#clip430)" d="M162.033 377.312 L178.352 377.312 L178.352 381.247 L156.408 381.247 L156.408 377.312 Q159.07 374.558 163.653 369.928 Q168.259 365.275 169.44 363.933 Q171.685 361.41 172.565 359.673 Q173.468 357.914 173.468 356.224 Q173.468 353.47 171.523 351.734 Q169.602 349.998 166.5 349.998 Q164.301 349.998 161.847 350.761 Q159.417 351.525 156.639 353.076 L156.639 348.354 Q159.463 347.22 161.917 346.641 Q164.371 346.062 166.408 346.062 Q171.778 346.062 174.972 348.748 Q178.167 351.433 178.167 355.923 Q178.167 358.053 177.357 359.974 Q176.57 361.872 174.463 364.465 Q173.884 365.136 170.783 368.354 Q167.681 371.548 162.033 377.312 Z" fill="#000000" fill-rule="evenodd" fill-opacity="1" /><path clip-path="url(#clip430)" d="M188.167 375.368 L193.051 375.368 L193.051 381.247 L188.167 381.247 L188.167 375.368 Z" fill="#000000" fill-rule="evenodd" fill-opacity="1" /><path clip-path="url(#clip430)" d="M203.282 346.687 L221.639 346.687 L221.639 350.623 L207.565 350.623 L207.565 359.095 Q208.583 358.748 209.602 358.585 Q210.62 358.4 211.639 358.4 Q217.426 358.4 220.805 361.572 Q224.185 364.743 224.185 370.159 Q224.185 375.738 220.713 378.84 Q217.241 381.919 210.921 381.919 Q208.745 381.919 206.477 381.548 Q204.231 381.178 201.824 380.437 L201.824 375.738 Q203.907 376.872 206.13 377.428 Q208.352 377.984 210.829 377.984 Q214.833 377.984 217.171 375.877 Q219.509 373.771 219.509 370.159 Q219.509 366.548 217.171 364.442 Q214.833 362.335 210.829 362.335 Q208.954 362.335 207.079 362.752 Q205.227 363.169 203.282 364.048 L203.282 346.687 Z" fill="#000000" fill-rule="evenodd" fill-opacity="1" /><path clip-path="url(#clip430)" d="M171.176 110.072 Q174.533 110.789 176.408 113.058 Q178.306 115.326 178.306 118.66 Q178.306 123.775 174.787 126.576 Q171.269 129.377 164.787 129.377 Q162.611 129.377 160.297 128.937 Q158.005 128.521 155.551 127.664 L155.551 123.15 Q157.496 124.285 159.81 124.863 Q162.125 125.442 164.648 125.442 Q169.046 125.442 171.338 123.706 Q173.653 121.97 173.653 118.66 Q173.653 115.604 171.5 113.891 Q169.371 112.155 165.551 112.155 L161.523 112.155 L161.523 108.312 L165.736 108.312 Q169.185 108.312 171.014 106.947 Q172.843 105.558 172.843 102.965 Q172.843 100.303 170.945 98.8913 Q169.07 97.4561 165.551 97.4561 Q163.63 97.4561 161.431 97.8727 Q159.232 98.2894 156.593 99.169 L156.593 95.0024 Q159.255 94.2616 161.57 93.8913 Q163.908 93.5209 165.968 93.5209 Q171.292 93.5209 174.394 95.9515 Q177.495 98.3588 177.495 102.479 Q177.495 105.35 175.852 107.34 Q174.208 109.308 171.176 110.072 Z" fill="#000000" fill-rule="evenodd" fill-opacity="1" /><path clip-path="url(#clip430)" d="M187.171 122.826 L192.056 122.826 L192.056 128.706 L187.171 128.706 L187.171 122.826 Z" fill="#000000" fill-rule="evenodd" fill-opacity="1" /><path clip-path="url(#clip430)" d="M212.241 97.2246 Q208.63 97.2246 206.801 100.789 Q204.995 104.331 204.995 111.461 Q204.995 118.567 206.801 122.132 Q208.63 125.674 212.241 125.674 Q215.875 125.674 217.68 122.132 Q219.509 118.567 219.509 111.461 Q219.509 104.331 217.68 100.789 Q215.875 97.2246 212.241 97.2246 M212.241 93.5209 Q218.051 93.5209 221.106 98.1274 Q224.185 102.711 224.185 111.461 Q224.185 120.187 221.106 124.794 Q218.051 129.377 212.241 129.377 Q206.431 129.377 203.352 124.794 Q200.296 120.187 200.296 111.461 Q200.296 102.711 203.352 98.1274 Q206.431 93.5209 212.241 93.5209 Z" fill="#000000" fill-rule="evenodd" fill-opacity="1" /><path clip-path="url(#clip430)" d="M39.6363 875.259 L39.6363 835.059 L45.0471 835.059 L45.0471 851.928 L87.1563 851.928 L87.1563 858.389 L45.0471 858.389 L45.0471 875.259 L39.6363 875.259 Z" fill="#000000" fill-rule="evenodd" fill-opacity="1" /><path clip-path="url(#clip430)" d="M51.5083 831.112 L51.5083 825.256 L87.1563 825.256 L87.1563 831.112 L51.5083 831.112 M37.6311 831.112 L37.6311 825.256 L45.0471 825.256 L45.0471 831.112 L37.6311 831.112 Z" fill="#000000" fill-rule="evenodd" fill-opacity="1" /><path clip-path="url(#clip430)" d="M58.3515 785.247 Q54.4047 783.051 52.5268 779.996 Q50.649 776.94 50.649 772.802 Q50.649 767.232 54.5639 764.209 Q58.4469 761.185 65.6402 761.185 L87.1563 761.185 L87.1563 767.073 L65.8312 767.073 Q60.7068 767.073 58.2241 768.888 Q55.7415 770.702 55.7415 774.426 Q55.7415 778.977 58.7652 781.619 Q61.7889 784.261 67.0088 784.261 L87.1563 784.261 L87.1563 790.149 L65.8312 790.149 Q60.6749 790.149 58.2241 791.963 Q55.7415 793.777 55.7415 797.565 Q55.7415 802.053 58.7971 804.695 Q61.8208 807.336 67.0088 807.336 L87.1563 807.336 L87.1563 813.225 L51.5083 813.225 L51.5083 807.336 L57.0465 807.336 Q53.7682 805.331 52.2086 802.53 Q50.649 799.729 50.649 795.878 Q50.649 791.995 52.6223 789.29 Q54.5957 786.552 58.3515 785.247 Z" fill="#000000" fill-rule="evenodd" fill-opacity="1" /><path clip-path="url(#clip430)" d="M67.8682 719.012 L70.7328 719.012 L70.7328 745.939 Q76.7802 745.557 79.963 742.311 Q83.1141 739.032 83.1141 733.208 Q83.1141 729.834 82.2865 726.683 Q81.459 723.5 79.8039 720.381 L85.3421 720.381 Q86.6789 723.532 87.3791 726.842 Q88.0793 730.152 88.0793 733.558 Q88.0793 742.088 83.1141 747.085 Q78.1488 752.05 69.6824 752.05 Q60.9296 752.05 55.8052 747.34 Q50.649 742.597 50.649 734.576 Q50.649 727.383 55.2959 723.214 Q59.9111 719.012 67.8682 719.012 M66.1495 724.869 Q61.3433 724.932 58.4788 727.574 Q55.6142 730.184 55.6142 734.513 Q55.6142 739.414 58.3833 742.374 Q61.1524 745.303 66.1813 745.748 L66.1495 724.869 Z" fill="#000000" fill-rule="evenodd" fill-opacity="1" /><path clip-path="url(#clip430)" d="M37.6311 689.221 L37.6311 675.725 L42.1826 675.725 L42.1826 683.364 L91.1985 683.364 L91.1985 675.725 L95.75 675.725 L95.75 689.221 L37.6311 689.221 Z" fill="#000000" fill-rule="evenodd" fill-opacity="1" /><path clip-path="url(#clip430)" d="M52.5587 640.523 L58.0968 640.523 Q56.8237 643.006 56.1871 645.679 Q55.5506 648.353 55.5506 651.217 Q55.5506 655.578 56.8873 657.774 Q58.2241 659.938 60.8977 659.938 Q62.9348 659.938 64.1124 658.379 Q65.2583 656.819 66.3086 652.109 L66.7542 650.103 Q68.091 643.865 70.5418 641.255 Q72.9608 638.613 77.3213 638.613 Q82.2865 638.613 85.1829 642.56 Q88.0793 646.475 88.0793 653.35 Q88.0793 656.215 87.5064 659.334 Q86.9653 662.421 85.8513 665.859 L79.8039 665.859 Q81.4908 662.612 82.3502 659.461 Q83.1777 656.31 83.1777 653.223 Q83.1777 649.085 81.7773 646.857 Q80.345 644.629 77.7669 644.629 Q75.3797 644.629 74.1066 646.252 Q72.8334 647.844 71.6558 653.286 L71.1784 655.323 Q70.0325 660.766 67.6772 663.185 Q65.2901 665.604 61.1524 665.604 Q56.1235 665.604 53.3862 662.039 Q50.649 658.474 50.649 651.918 Q50.649 648.671 51.1264 645.807 Q51.6038 642.942 52.5587 640.523 Z" fill="#000000" fill-rule="evenodd" fill-opacity="1" /><path clip-path="url(#clip430)" d="M37.6311 615.601 L95.75 615.601 L95.75 629.097 L91.1985 629.097 L91.1985 621.49 L42.1826 621.49 L42.1826 629.097 L37.6311 629.097 L37.6311 615.601 Z" fill="#000000" fill-rule="evenodd" fill-opacity="1" /><path clip-path="url(#clip430)" d="M935.708 44.2197 Q938.341 45.1109 940.812 48.0275 Q943.324 50.9442 945.835 56.0483 L954.14 72.576 L945.349 72.576 L937.612 57.061 Q934.614 50.9847 931.779 48.9997 Q928.984 47.0148 924.123 47.0148 L915.211 47.0148 L915.211 72.576 L907.028 72.576 L907.028 12.096 L925.5 12.096 Q935.87 12.096 940.974 16.4305 Q946.078 20.7649 946.078 29.5149 Q946.078 35.2267 943.405 38.994 Q940.772 42.7613 935.708 44.2197 M915.211 18.8205 L915.211 40.2903 L925.5 40.2903 Q931.414 40.2903 934.412 37.5762 Q937.45 34.8216 937.45 29.5149 Q937.45 24.2082 934.412 21.5346 Q931.414 18.8205 925.5 18.8205 L915.211 18.8205 Z" fill="#000000" fill-rule="evenodd" fill-opacity="1" /><path clip-path="url(#clip430)" d="M991.692 34.9026 L1043.62 34.9026 L1043.62 41.7081 L991.692 41.7081 L991.692 34.9026 M991.692 51.4303 L1043.62 51.4303 L1043.62 58.3168 L991.692 58.3168 L991.692 51.4303 Z" fill="#000000" fill-rule="evenodd" fill-opacity="1" /><path clip-path="url(#clip430)" d="M1089.08 65.6895 L1102.44 65.6895 L1102.44 19.5497 L1087.9 22.4663 L1087.9 15.0127 L1102.36 12.096 L1110.55 12.096 L1110.55 65.6895 L1123.91 65.6895 L1123.91 72.576 L1089.08 72.576 L1089.08 65.6895 Z" fill="#000000" fill-rule="evenodd" fill-opacity="1" /><polyline clip-path="url(#clip432)" style="stroke:#004991; stroke-linecap:round; stroke-linejoin:round; stroke-width:12; stroke-opacity:1; fill:none" points="
  319.918,139.658 518.647,626.288 916.106,899.355 1711.02,1147.22 
  "/>
<circle clip-path="url(#clip432)" cx="319.918" cy="139.658" r="14.4" fill="#004991" fill-rule="evenodd" fill-opacity="1" stroke="none"/>
<circle clip-path="url(#clip432)" cx="518.647" cy="626.288" r="14.4" fill="#004991" fill-rule="evenodd" fill-opacity="1" stroke="none"/>
<circle clip-path="url(#clip432)" cx="916.106" cy="899.355" r="14.4" fill="#004991" fill-rule="evenodd" fill-opacity="1" stroke="none"/>
<circle clip-path="url(#clip432)" cx="1711.02" cy="1147.22" r="14.4" fill="#004991" fill-rule="evenodd" fill-opacity="1" stroke="none"/>
<polyline clip-path="url(#clip432)" style="stroke:#4c7fb2; stroke-linecap:round; stroke-linejoin:round; stroke-width:12; stroke-opacity:1; fill:none" points="
  319.918,934.752 518.647,1156.8 916.106,1283.95 1711.02,1351.2 
  "/>
<circle clip-path="url(#clip432)" cx="319.918" cy="934.752" r="14.4" fill="#4c7fb2" fill-rule="evenodd" fill-opacity="1" stroke="none"/>
<circle clip-path="url(#clip432)" cx="518.647" cy="1156.8" r="14.4" fill="#4c7fb2" fill-rule="evenodd" fill-opacity="1" stroke="none"/>
<circle clip-path="url(#clip432)" cx="916.106" cy="1283.95" r="14.4" fill="#4c7fb2" fill-rule="evenodd" fill-opacity="1" stroke="none"/>
<circle clip-path="url(#clip432)" cx="1711.02" cy="1351.2" r="14.4" fill="#4c7fb2" fill-rule="evenodd" fill-opacity="1" stroke="none"/>
<polyline clip-path="url(#clip432)" style="stroke:#ef871e; stroke-linecap:round; stroke-linejoin:round; stroke-width:12; stroke-opacity:1; fill:none" points="
  319.918,470.217 518.647,841.688 916.106,1154.78 1711.02,1316.7 
  "/>
<circle clip-path="url(#clip432)" cx="319.918" cy="470.217" r="14.4" fill="#ef871e" fill-rule="evenodd" fill-opacity="1" stroke="none"/>
<circle clip-path="url(#clip432)" cx="518.647" cy="841.688" r="14.4" fill="#ef871e" fill-rule="evenodd" fill-opacity="1" stroke="none"/>
<circle clip-path="url(#clip432)" cx="916.106" cy="1154.78" r="14.4" fill="#ef871e" fill-rule="evenodd" fill-opacity="1" stroke="none"/>
<circle clip-path="url(#clip432)" cx="1711.02" cy="1316.7" r="14.4" fill="#ef871e" fill-rule="evenodd" fill-opacity="1" stroke="none"/>
<path clip-path="url(#clip430)" d="
M1055.02 353.48 L1703.6 353.48 L1703.6 146.12 L1055.02 146.12  Z
  " fill="#ffffff" fill-rule="evenodd" fill-opacity="1"/>
<polyline clip-path="url(#clip430)" style="stroke:#000000; stroke-linecap:round; stroke-linejoin:round; stroke-width:4; stroke-opacity:1; fill:none" points="
  1055.02,353.48 1703.6,353.48 1703.6,146.12 1055.02,146.12 1055.02,353.48 
  "/>
<polyline clip-path="url(#clip430)" style="stroke:#004991; stroke-linecap:round; stroke-linejoin:round; stroke-width:4; stroke-opacity:1; fill:none" points="
  1071.4,197.96 1169.71,197.96 
  "/>
<circle clip-path="url(#clip430)" cx="1120.56" cy="197.96" r="13.6534" fill="#004991" fill-rule="evenodd" fill-opacity="1" stroke="none"/>
<path clip-path="url(#clip430)" d="M1190.77 198.735 L1190.77 211.397 L1198.27 211.397 Q1202.04 211.397 1203.85 209.846 Q1205.68 208.272 1205.68 205.055 Q1205.68 201.814 1203.85 200.286 Q1202.04 198.735 1198.27 198.735 L1190.77 198.735 M1190.77 184.523 L1190.77 194.939 L1197.69 194.939 Q1201.12 194.939 1202.78 193.666 Q1204.47 192.37 1204.47 189.731 Q1204.47 187.115 1202.78 185.819 Q1201.12 184.523 1197.69 184.523 L1190.77 184.523 M1186.09 180.68 L1198.04 180.68 Q1203.38 180.68 1206.28 182.902 Q1209.17 185.124 1209.17 189.222 Q1209.17 192.393 1207.69 194.268 Q1206.21 196.143 1203.34 196.606 Q1206.79 197.347 1208.69 199.708 Q1210.61 202.046 1210.61 205.564 Q1210.61 210.194 1207.46 212.717 Q1204.31 215.24 1198.5 215.24 L1186.09 215.24 L1186.09 180.68 Z" fill="#000000" fill-rule="evenodd" fill-opacity="1" /><path clip-path="url(#clip430)" d="M1230.17 185.286 L1223.82 202.485 L1236.53 202.485 L1230.17 185.286 M1227.53 180.68 L1232.83 180.68 L1246 215.24 L1241.14 215.24 L1237.99 206.374 L1222.41 206.374 L1219.26 215.24 L1214.33 215.24 L1227.53 180.68 Z" fill="#000000" fill-rule="evenodd" fill-opacity="1" /><path clip-path="url(#clip430)" d="M1267.43 199.036 Q1268.94 199.546 1270.35 201.212 Q1271.79 202.879 1273.22 205.796 L1277.97 215.24 L1272.94 215.24 L1268.52 206.374 Q1266.81 202.902 1265.19 201.768 Q1263.59 200.634 1260.81 200.634 L1255.72 200.634 L1255.72 215.24 L1251.05 215.24 L1251.05 180.68 L1261.6 180.68 Q1267.53 180.68 1270.44 183.157 Q1273.36 185.634 1273.36 190.634 Q1273.36 193.898 1271.83 196.05 Q1270.33 198.203 1267.43 199.036 M1255.72 184.523 L1255.72 196.791 L1261.6 196.791 Q1264.98 196.791 1266.69 195.24 Q1268.43 193.666 1268.43 190.634 Q1268.43 187.601 1266.69 186.073 Q1264.98 184.523 1261.6 184.523 L1255.72 184.523 Z" fill="#000000" fill-rule="evenodd" fill-opacity="1" /><path clip-path="url(#clip430)" d="M1275.74 180.68 L1304.98 180.68 L1304.98 184.615 L1292.71 184.615 L1292.71 215.24 L1288.01 215.24 L1288.01 184.615 L1275.74 184.615 L1275.74 180.68 Z" fill="#000000" fill-rule="evenodd" fill-opacity="1" /><polyline clip-path="url(#clip430)" style="stroke:#4c7fb2; stroke-linecap:round; stroke-linejoin:round; stroke-width:4; stroke-opacity:1; fill:none" points="
  1071.4,249.8 1169.71,249.8 
  "/>
<circle clip-path="url(#clip430)" cx="1120.56" cy="249.8" r="13.6534" fill="#4c7fb2" fill-rule="evenodd" fill-opacity="1" stroke="none"/>
<path clip-path="url(#clip430)" d="M1186.09 232.52 L1193.06 232.52 L1201.88 256.038 L1210.75 232.52 L1217.71 232.52 L1217.71 267.08 L1213.15 267.08 L1213.15 236.733 L1204.24 260.436 L1199.54 260.436 L1190.63 236.733 L1190.63 267.08 L1186.09 267.08 L1186.09 232.52 Z" fill="#000000" fill-rule="evenodd" fill-opacity="1" /><path clip-path="url(#clip430)" d="M1243.38 250.876 Q1244.89 251.386 1246.3 253.052 Q1247.74 254.719 1249.17 257.636 L1253.92 267.08 L1248.89 267.08 L1244.47 258.214 Q1242.76 254.742 1241.14 253.608 Q1239.54 252.474 1236.76 252.474 L1231.67 252.474 L1231.67 267.08 L1227 267.08 L1227 232.52 L1237.55 232.52 Q1243.48 232.52 1246.39 234.997 Q1249.31 237.474 1249.31 242.474 Q1249.31 245.738 1247.78 247.89 Q1246.28 250.043 1243.38 250.876 M1231.67 236.363 L1231.67 248.631 L1237.55 248.631 Q1240.93 248.631 1242.64 247.08 Q1244.38 245.506 1244.38 242.474 Q1244.38 239.441 1242.64 237.913 Q1240.93 236.363 1237.55 236.363 L1231.67 236.363 Z" fill="#000000" fill-rule="evenodd" fill-opacity="1" /><path clip-path="url(#clip430)" d="M1259.93 232.52 L1264.61 232.52 L1264.61 267.08 L1259.93 267.08 L1259.93 232.52 Z" fill="#000000" fill-rule="evenodd" fill-opacity="1" /><path clip-path="url(#clip430)" d="M1290.3 250.876 Q1291.81 251.386 1293.22 253.052 Q1294.66 254.719 1296.09 257.636 L1300.84 267.08 L1295.81 267.08 L1291.39 258.214 Q1289.68 254.742 1288.06 253.608 Q1286.46 252.474 1283.68 252.474 L1278.59 252.474 L1278.59 267.08 L1273.92 267.08 L1273.92 232.52 L1284.47 232.52 Q1290.4 232.52 1293.31 234.997 Q1296.23 237.474 1296.23 242.474 Q1296.23 245.738 1294.7 247.89 Q1293.2 250.043 1290.3 250.876 M1278.59 236.363 L1278.59 248.631 L1284.47 248.631 Q1287.85 248.631 1289.56 247.08 Q1291.3 245.506 1291.3 242.474 Q1291.3 239.441 1289.56 237.913 Q1287.85 236.363 1284.47 236.363 L1278.59 236.363 Z" fill="#000000" fill-rule="evenodd" fill-opacity="1" /><path clip-path="url(#clip430)" d="M1326.72 253.052 L1326.72 255.136 L1307.13 255.136 Q1307.41 259.534 1309.77 261.849 Q1312.16 264.14 1316.39 264.14 Q1318.85 264.14 1321.14 263.538 Q1323.45 262.936 1325.72 261.733 L1325.72 265.761 Q1323.43 266.733 1321.02 267.242 Q1318.61 267.751 1316.14 267.751 Q1309.93 267.751 1306.3 264.14 Q1302.69 260.529 1302.69 254.372 Q1302.69 248.006 1306.12 244.279 Q1309.56 240.529 1315.4 240.529 Q1320.63 240.529 1323.66 243.909 Q1326.72 247.265 1326.72 253.052 M1322.46 251.802 Q1322.41 248.307 1320.49 246.224 Q1318.59 244.14 1315.44 244.14 Q1311.88 244.14 1309.73 246.154 Q1307.6 248.168 1307.27 251.825 L1322.46 251.802 Z" fill="#000000" fill-rule="evenodd" fill-opacity="1" /><path clip-path="url(#clip430)" d="M1352.36 242.15 L1352.36 246.131 Q1350.56 245.136 1348.73 244.65 Q1346.93 244.14 1345.07 244.14 Q1340.93 244.14 1338.64 246.779 Q1336.35 249.395 1336.35 254.14 Q1336.35 258.886 1338.64 261.524 Q1340.93 264.14 1345.07 264.14 Q1346.93 264.14 1348.73 263.654 Q1350.56 263.145 1352.36 262.149 L1352.36 266.085 Q1350.58 266.918 1348.66 267.335 Q1346.76 267.751 1344.61 267.751 Q1338.75 267.751 1335.3 264.071 Q1331.86 260.39 1331.86 254.14 Q1331.86 247.798 1335.33 244.163 Q1338.82 240.529 1344.89 240.529 Q1346.86 240.529 1348.73 240.946 Q1350.61 241.339 1352.36 242.15 Z" fill="#000000" fill-rule="evenodd" fill-opacity="1" /><path clip-path="url(#clip430)" d="M1369.82 244.14 Q1366.39 244.14 1364.4 246.825 Q1362.41 249.487 1362.41 254.14 Q1362.41 258.793 1364.38 261.478 Q1366.37 264.14 1369.82 264.14 Q1373.22 264.14 1375.21 261.455 Q1377.2 258.77 1377.2 254.14 Q1377.2 249.534 1375.21 246.849 Q1373.22 244.14 1369.82 244.14 M1369.82 240.529 Q1375.37 240.529 1378.55 244.14 Q1381.72 247.751 1381.72 254.14 Q1381.72 260.506 1378.55 264.14 Q1375.37 267.751 1369.82 267.751 Q1364.24 267.751 1361.07 264.14 Q1357.92 260.506 1357.92 254.14 Q1357.92 247.751 1361.07 244.14 Q1364.24 240.529 1369.82 240.529 Z" fill="#000000" fill-rule="evenodd" fill-opacity="1" /><polyline clip-path="url(#clip430)" style="stroke:#ef871e; stroke-linecap:round; stroke-linejoin:round; stroke-width:4; stroke-opacity:1; fill:none" points="
  1071.4,301.64 1169.71,301.64 
  "/>
<circle clip-path="url(#clip430)" cx="1120.56" cy="301.64" r="13.6534" fill="#ef871e" fill-rule="evenodd" fill-opacity="1" stroke="none"/>
<path clip-path="url(#clip430)" d="M1186.09 284.36 L1193.06 284.36 L1201.88 307.878 L1210.75 284.36 L1217.71 284.36 L1217.71 318.92 L1213.15 318.92 L1213.15 288.573 L1204.24 312.276 L1199.54 312.276 L1190.63 288.573 L1190.63 318.92 L1186.09 318.92 L1186.09 284.36 Z" fill="#000000" fill-rule="evenodd" fill-opacity="1" /><path clip-path="url(#clip430)" d="M1243.38 302.716 Q1244.89 303.226 1246.3 304.892 Q1247.74 306.559 1249.17 309.476 L1253.92 318.92 L1248.89 318.92 L1244.47 310.054 Q1242.76 306.582 1241.14 305.448 Q1239.54 304.314 1236.76 304.314 L1231.67 304.314 L1231.67 318.92 L1227 318.92 L1227 284.36 L1237.55 284.36 Q1243.48 284.36 1246.39 286.837 Q1249.31 289.314 1249.31 294.314 Q1249.31 297.578 1247.78 299.73 Q1246.28 301.883 1243.38 302.716 M1231.67 288.203 L1231.67 300.471 L1237.55 300.471 Q1240.93 300.471 1242.64 298.92 Q1244.38 297.346 1244.38 294.314 Q1244.38 291.281 1242.64 289.753 Q1240.93 288.203 1237.55 288.203 L1231.67 288.203 Z" fill="#000000" fill-rule="evenodd" fill-opacity="1" /><path clip-path="url(#clip430)" d="M1259.93 284.36 L1264.61 284.36 L1264.61 318.92 L1259.93 318.92 L1259.93 284.36 Z" fill="#000000" fill-rule="evenodd" fill-opacity="1" /><path clip-path="url(#clip430)" d="M1290.3 302.716 Q1291.81 303.226 1293.22 304.892 Q1294.66 306.559 1296.09 309.476 L1300.84 318.92 L1295.81 318.92 L1291.39 310.054 Q1289.68 306.582 1288.06 305.448 Q1286.46 304.314 1283.68 304.314 L1278.59 304.314 L1278.59 318.92 L1273.92 318.92 L1273.92 284.36 L1284.47 284.36 Q1290.4 284.36 1293.31 286.837 Q1296.23 289.314 1296.23 294.314 Q1296.23 297.578 1294.7 299.73 Q1293.2 301.883 1290.3 302.716 M1278.59 288.203 L1278.59 300.471 L1284.47 300.471 Q1287.85 300.471 1289.56 298.92 Q1291.3 297.346 1291.3 294.314 Q1291.3 291.281 1289.56 289.753 Q1287.85 288.203 1284.47 288.203 L1278.59 288.203 Z" fill="#000000" fill-rule="evenodd" fill-opacity="1" /><path clip-path="url(#clip430)" d="M1326.72 304.892 L1326.72 306.976 L1307.13 306.976 Q1307.41 311.374 1309.77 313.689 Q1312.16 315.98 1316.39 315.98 Q1318.85 315.98 1321.14 315.378 Q1323.45 314.776 1325.72 313.573 L1325.72 317.601 Q1323.43 318.573 1321.02 319.082 Q1318.61 319.591 1316.14 319.591 Q1309.93 319.591 1306.3 315.98 Q1302.69 312.369 1302.69 306.212 Q1302.69 299.846 1306.12 296.119 Q1309.56 292.369 1315.4 292.369 Q1320.63 292.369 1323.66 295.749 Q1326.72 299.105 1326.72 304.892 M1322.46 303.642 Q1322.41 300.147 1320.49 298.064 Q1318.59 295.98 1315.44 295.98 Q1311.88 295.98 1309.73 297.994 Q1307.6 300.008 1307.27 303.665 L1322.46 303.642 Z" fill="#000000" fill-rule="evenodd" fill-opacity="1" /><path clip-path="url(#clip430)" d="M1352.36 293.99 L1352.36 297.971 Q1350.56 296.976 1348.73 296.49 Q1346.93 295.98 1345.07 295.98 Q1340.93 295.98 1338.64 298.619 Q1336.35 301.235 1336.35 305.98 Q1336.35 310.726 1338.64 313.364 Q1340.93 315.98 1345.07 315.98 Q1346.93 315.98 1348.73 315.494 Q1350.56 314.985 1352.36 313.989 L1352.36 317.925 Q1350.58 318.758 1348.66 319.175 Q1346.76 319.591 1344.61 319.591 Q1338.75 319.591 1335.3 315.911 Q1331.86 312.23 1331.86 305.98 Q1331.86 299.638 1335.33 296.003 Q1338.82 292.369 1344.89 292.369 Q1346.86 292.369 1348.73 292.786 Q1350.61 293.179 1352.36 293.99 Z" fill="#000000" fill-rule="evenodd" fill-opacity="1" /><path clip-path="url(#clip430)" d="M1369.82 295.98 Q1366.39 295.98 1364.4 298.665 Q1362.41 301.327 1362.41 305.98 Q1362.41 310.633 1364.38 313.318 Q1366.37 315.98 1369.82 315.98 Q1373.22 315.98 1375.21 313.295 Q1377.2 310.61 1377.2 305.98 Q1377.2 301.374 1375.21 298.689 Q1373.22 295.98 1369.82 295.98 M1369.82 292.369 Q1375.37 292.369 1378.55 295.98 Q1381.72 299.591 1381.72 305.98 Q1381.72 312.346 1378.55 315.98 Q1375.37 319.591 1369.82 319.591 Q1364.24 319.591 1361.07 315.98 Q1357.92 312.346 1357.92 305.98 Q1357.92 299.591 1361.07 295.98 Q1364.24 292.369 1369.82 292.369 Z" fill="#000000" fill-rule="evenodd" fill-opacity="1" /><path clip-path="url(#clip430)" d="M1404.03 284.36 L1410.33 284.36 L1425.65 313.272 L1425.65 284.36 L1430.19 284.36 L1430.19 318.92 L1423.89 318.92 L1408.57 290.008 L1408.57 318.92 L1404.03 318.92 L1404.03 284.36 Z" fill="#000000" fill-rule="evenodd" fill-opacity="1" /><path clip-path="url(#clip430)" d="M1449.36 295.98 Q1445.93 295.98 1443.94 298.665 Q1441.95 301.327 1441.95 305.98 Q1441.95 310.633 1443.92 313.318 Q1445.91 315.98 1449.36 315.98 Q1452.76 315.98 1454.75 313.295 Q1456.74 310.61 1456.74 305.98 Q1456.74 301.374 1454.75 298.689 Q1452.76 295.98 1449.36 295.98 M1449.36 292.369 Q1454.91 292.369 1458.08 295.98 Q1461.25 299.591 1461.25 305.98 Q1461.25 312.346 1458.08 315.98 Q1454.91 319.591 1449.36 319.591 Q1443.78 319.591 1440.61 315.98 Q1437.46 312.346 1437.46 305.98 Q1437.46 299.591 1440.61 295.98 Q1443.78 292.369 1449.36 292.369 Z" fill="#000000" fill-rule="evenodd" fill-opacity="1" /><path clip-path="url(#clip430)" d="M1489.86 303.272 L1489.86 318.92 L1485.6 318.92 L1485.6 303.411 Q1485.6 299.73 1484.17 297.902 Q1482.73 296.073 1479.86 296.073 Q1476.42 296.073 1474.42 298.272 Q1472.43 300.471 1472.43 304.267 L1472.43 318.92 L1468.15 318.92 L1468.15 292.994 L1472.43 292.994 L1472.43 297.022 Q1473.96 294.684 1476.02 293.527 Q1478.1 292.369 1480.81 292.369 Q1485.28 292.369 1487.57 295.147 Q1489.86 297.902 1489.86 303.272 Z" fill="#000000" fill-rule="evenodd" fill-opacity="1" /><path clip-path="url(#clip430)" d="M1493.75 284.36 L1522.99 284.36 L1522.99 288.295 L1510.72 288.295 L1510.72 318.92 L1506.02 318.92 L1506.02 288.295 L1493.75 288.295 L1493.75 284.36 Z" fill="#000000" fill-rule="evenodd" fill-opacity="1" /><path clip-path="url(#clip430)" d="M1529.31 295.98 Q1525.88 295.98 1523.89 298.665 Q1521.9 301.327 1521.9 305.98 Q1521.9 310.633 1523.87 313.318 Q1525.86 315.98 1529.31 315.98 Q1532.71 315.98 1534.7 313.295 Q1536.69 310.61 1536.69 305.98 Q1536.69 301.374 1534.7 298.689 Q1532.71 295.98 1529.31 295.98 M1529.31 292.369 Q1534.86 292.369 1538.04 295.98 Q1541.21 299.591 1541.21 305.98 Q1541.21 312.346 1538.04 315.98 Q1534.86 319.591 1529.31 319.591 Q1523.73 319.591 1520.56 315.98 Q1517.41 312.346 1517.41 305.98 Q1517.41 299.591 1520.56 295.98 Q1523.73 292.369 1529.31 292.369 Z" fill="#000000" fill-rule="evenodd" fill-opacity="1" /><path clip-path="url(#clip430)" d="M1570.44 304.892 L1570.44 306.976 L1550.86 306.976 Q1551.14 311.374 1553.5 313.689 Q1555.88 315.98 1560.12 315.98 Q1562.57 315.98 1564.86 315.378 Q1567.18 314.776 1569.45 313.573 L1569.45 317.601 Q1567.16 318.573 1564.75 319.082 Q1562.34 319.591 1559.86 319.591 Q1553.66 319.591 1550.03 315.98 Q1546.41 312.369 1546.41 306.212 Q1546.41 299.846 1549.84 296.119 Q1553.29 292.369 1559.12 292.369 Q1564.35 292.369 1567.39 295.749 Q1570.44 299.105 1570.44 304.892 M1566.18 303.642 Q1566.14 300.147 1564.22 298.064 Q1562.32 295.98 1559.17 295.98 Q1555.6 295.98 1553.45 297.994 Q1551.32 300.008 1551 303.665 L1566.18 303.642 Z" fill="#000000" fill-rule="evenodd" fill-opacity="1" /><path clip-path="url(#clip430)" d="M1581.55 315.031 L1581.55 328.781 L1577.27 328.781 L1577.27 292.994 L1581.55 292.994 L1581.55 296.929 Q1582.9 294.615 1584.93 293.503 Q1586.99 292.369 1589.84 292.369 Q1594.56 292.369 1597.5 296.119 Q1600.47 299.869 1600.47 305.98 Q1600.47 312.091 1597.5 315.841 Q1594.56 319.591 1589.84 319.591 Q1586.99 319.591 1584.93 318.48 Q1582.9 317.346 1581.55 315.031 M1596.04 305.98 Q1596.04 301.281 1594.1 298.619 Q1592.18 295.934 1588.8 295.934 Q1585.42 295.934 1583.47 298.619 Q1581.55 301.281 1581.55 305.98 Q1581.55 310.679 1583.47 313.364 Q1585.42 316.026 1588.8 316.026 Q1592.18 316.026 1594.1 313.364 Q1596.04 310.679 1596.04 305.98 Z" fill="#000000" fill-rule="evenodd" fill-opacity="1" /><path clip-path="url(#clip430)" d="M1607.53 282.902 L1611.78 282.902 L1611.78 318.92 L1607.53 318.92 L1607.53 282.902 Z" fill="#000000" fill-rule="evenodd" fill-opacity="1" /><path clip-path="url(#clip430)" d="M1620.7 292.994 L1624.96 292.994 L1624.96 318.92 L1620.7 318.92 L1620.7 292.994 M1620.7 282.902 L1624.96 282.902 L1624.96 288.295 L1620.7 288.295 L1620.7 282.902 Z" fill="#000000" fill-rule="evenodd" fill-opacity="1" /><path clip-path="url(#clip430)" d="M1638.08 285.633 L1638.08 292.994 L1646.85 292.994 L1646.85 296.304 L1638.08 296.304 L1638.08 310.378 Q1638.08 313.55 1638.94 314.452 Q1639.82 315.355 1642.48 315.355 L1646.85 315.355 L1646.85 318.92 L1642.48 318.92 Q1637.55 318.92 1635.67 317.091 Q1633.8 315.239 1633.8 310.378 L1633.8 296.304 L1630.67 296.304 L1630.67 292.994 L1633.8 292.994 L1633.8 285.633 L1638.08 285.633 Z" fill="#000000" fill-rule="evenodd" fill-opacity="1" /><path clip-path="url(#clip430)" d="M1650.6 292.994 L1670.84 292.994 L1670.84 296.883 L1654.82 315.517 L1670.84 315.517 L1670.84 318.92 L1650.03 318.92 L1650.03 315.031 L1666.04 296.397 L1650.6 296.397 L1650.6 292.994 Z" fill="#000000" fill-rule="evenodd" fill-opacity="1" /><path clip-path="url(#clip430)" d="
M2078.19 1387.55 L3552.76 1387.55 L3552.76 103.312 L2078.19 103.312  Z
  " fill="#ffffff" fill-rule="evenodd" fill-opacity="1"/>
<defs>
  <clipPath id="clip433">
    <rect x="2078" y="103" width="1476" height="1285"/>
  </clipPath>
</defs>
<polyline clip-path="url(#clip433)" style="stroke:#000000; stroke-linecap:round; stroke-linejoin:round; stroke-width:2; stroke-opacity:0.1; fill:none" points="
  2318.65,1387.55 2318.65,103.312 
  "/>
<polyline clip-path="url(#clip433)" style="stroke:#000000; stroke-linecap:round; stroke-linejoin:round; stroke-width:2; stroke-opacity:0.1; fill:none" points="
  2716.11,1387.55 2716.11,103.312 
  "/>
<polyline clip-path="url(#clip433)" style="stroke:#000000; stroke-linecap:round; stroke-linejoin:round; stroke-width:2; stroke-opacity:0.1; fill:none" points="
  3113.56,1387.55 3113.56,103.312 
  "/>
<polyline clip-path="url(#clip433)" style="stroke:#000000; stroke-linecap:round; stroke-linejoin:round; stroke-width:2; stroke-opacity:0.1; fill:none" points="
  3511.02,1387.55 3511.02,103.312 
  "/>
<polyline clip-path="url(#clip430)" style="stroke:#000000; stroke-linecap:round; stroke-linejoin:round; stroke-width:4; stroke-opacity:1; fill:none" points="
  2078.19,1387.55 3552.76,1387.55 
  "/>
<polyline clip-path="url(#clip430)" style="stroke:#000000; stroke-linecap:round; stroke-linejoin:round; stroke-width:4; stroke-opacity:1; fill:none" points="
  2318.65,1387.55 2318.65,1368.65 
  "/>
<polyline clip-path="url(#clip430)" style="stroke:#000000; stroke-linecap:round; stroke-linejoin:round; stroke-width:4; stroke-opacity:1; fill:none" points="
  2716.11,1387.55 2716.11,1368.65 
  "/>
<polyline clip-path="url(#clip430)" style="stroke:#000000; stroke-linecap:round; stroke-linejoin:round; stroke-width:4; stroke-opacity:1; fill:none" points="
  3113.56,1387.55 3113.56,1368.65 
  "/>
<polyline clip-path="url(#clip430)" style="stroke:#000000; stroke-linecap:round; stroke-linejoin:round; stroke-width:4; stroke-opacity:1; fill:none" points="
  3511.02,1387.55 3511.02,1368.65 
  "/>
<path clip-path="url(#clip430)" d="M2313.3 1455.61 L2329.62 1455.61 L2329.62 1459.55 L2307.68 1459.55 L2307.68 1455.61 Q2310.34 1452.86 2314.92 1448.23 Q2319.53 1443.58 2320.71 1442.23 Q2322.95 1439.71 2323.83 1437.97 Q2324.74 1436.21 2324.74 1434.52 Q2324.74 1431.77 2322.79 1430.03 Q2320.87 1428.3 2317.77 1428.3 Q2315.57 1428.3 2313.12 1429.06 Q2310.68 1429.83 2307.91 1431.38 L2307.91 1426.65 Q2310.73 1425.52 2313.18 1424.94 Q2315.64 1424.36 2317.68 1424.36 Q2323.05 1424.36 2326.24 1427.05 Q2329.43 1429.73 2329.43 1434.22 Q2329.43 1436.35 2328.62 1438.27 Q2327.84 1440.17 2325.73 1442.77 Q2325.15 1443.44 2322.05 1446.65 Q2318.95 1449.85 2313.3 1455.61 Z" fill="#000000" fill-rule="evenodd" fill-opacity="1" /><path clip-path="url(#clip430)" d="M2719.12 1429.06 L2707.31 1447.51 L2719.12 1447.51 L2719.12 1429.06 M2717.89 1424.99 L2723.77 1424.99 L2723.77 1447.51 L2728.7 1447.51 L2728.7 1451.4 L2723.77 1451.4 L2723.77 1459.55 L2719.12 1459.55 L2719.12 1451.4 L2703.51 1451.4 L2703.51 1446.89 L2717.89 1424.99 Z" fill="#000000" fill-rule="evenodd" fill-opacity="1" /><path clip-path="url(#clip430)" d="M3113.97 1440.4 Q3110.82 1440.4 3108.97 1442.56 Q3107.14 1444.71 3107.14 1448.46 Q3107.14 1452.19 3108.97 1454.36 Q3110.82 1456.52 3113.97 1456.52 Q3117.12 1456.52 3118.95 1454.36 Q3120.8 1452.19 3120.8 1448.46 Q3120.8 1444.71 3118.95 1442.56 Q3117.12 1440.4 3113.97 1440.4 M3123.25 1425.75 L3123.25 1430.01 Q3121.49 1429.18 3119.69 1428.74 Q3117.9 1428.3 3116.15 1428.3 Q3111.52 1428.3 3109.06 1431.42 Q3106.63 1434.55 3106.28 1440.87 Q3107.65 1438.85 3109.71 1437.79 Q3111.77 1436.7 3114.25 1436.7 Q3119.46 1436.7 3122.46 1439.87 Q3125.5 1443.02 3125.5 1448.46 Q3125.5 1453.78 3122.35 1457 Q3119.2 1460.22 3113.97 1460.22 Q3107.97 1460.22 3104.8 1455.64 Q3101.63 1451.03 3101.63 1442.3 Q3101.63 1434.11 3105.52 1429.25 Q3109.41 1424.36 3115.96 1424.36 Q3117.72 1424.36 3119.5 1424.71 Q3121.31 1425.06 3123.25 1425.75 Z" fill="#000000" fill-rule="evenodd" fill-opacity="1" /><path clip-path="url(#clip430)" d="M3511.02 1443.14 Q3507.69 1443.14 3505.77 1444.92 Q3503.87 1446.7 3503.87 1449.83 Q3503.87 1452.95 3505.77 1454.73 Q3507.69 1456.52 3511.02 1456.52 Q3514.36 1456.52 3516.28 1454.73 Q3518.2 1452.93 3518.2 1449.83 Q3518.2 1446.7 3516.28 1444.92 Q3514.38 1443.14 3511.02 1443.14 M3506.35 1441.15 Q3503.34 1440.4 3501.65 1438.34 Q3499.98 1436.28 3499.98 1433.32 Q3499.98 1429.18 3502.92 1426.77 Q3505.88 1424.36 3511.02 1424.36 Q3516.18 1424.36 3519.12 1426.77 Q3522.06 1429.18 3522.06 1433.32 Q3522.06 1436.28 3520.37 1438.34 Q3518.71 1440.4 3515.72 1441.15 Q3519.1 1441.93 3520.98 1444.22 Q3522.87 1446.52 3522.87 1449.83 Q3522.87 1454.85 3519.8 1457.53 Q3516.74 1460.22 3511.02 1460.22 Q3505.31 1460.22 3502.23 1457.53 Q3499.17 1454.85 3499.17 1449.83 Q3499.17 1446.52 3501.07 1444.22 Q3502.97 1441.93 3506.35 1441.15 M3504.63 1433.76 Q3504.63 1436.45 3506.3 1437.95 Q3507.99 1439.46 3511.02 1439.46 Q3514.03 1439.46 3515.72 1437.95 Q3517.43 1436.45 3517.43 1433.76 Q3517.43 1431.08 3515.72 1429.57 Q3514.03 1428.07 3511.02 1428.07 Q3507.99 1428.07 3506.3 1429.57 Q3504.63 1431.08 3504.63 1433.76 Z" fill="#000000" fill-rule="evenodd" fill-opacity="1" /><path clip-path="url(#clip430)" d="M2679.26 1521.73 L2670 1521.73 L2667.32 1532.36 L2676.65 1532.36 L2679.26 1521.73 M2674.49 1503.62 L2671.18 1516.83 L2680.47 1516.83 L2683.81 1503.62 L2688.9 1503.62 L2685.63 1516.83 L2695.56 1516.83 L2695.56 1521.73 L2684.38 1521.73 L2681.77 1532.36 L2691.9 1532.36 L2691.9 1537.23 L2680.53 1537.23 L2677.22 1550.41 L2672.13 1550.41 L2675.41 1537.23 L2666.08 1537.23 L2662.8 1550.41 L2657.68 1550.41 L2660.99 1537.23 L2650.96 1537.23 L2650.96 1532.36 L2662.17 1532.36 L2664.84 1521.73 L2654.59 1521.73 L2654.59 1516.83 L2666.08 1516.83 L2669.33 1503.62 L2674.49 1503.62 Z" fill="#000000" fill-rule="evenodd" fill-opacity="1" /><path clip-path="url(#clip430)" d="M2721.08 1502.89 L2761.28 1502.89 L2761.28 1508.3 L2744.41 1508.3 L2744.41 1550.41 L2737.95 1550.41 L2737.95 1508.3 L2721.08 1508.3 L2721.08 1502.89 Z" fill="#000000" fill-rule="evenodd" fill-opacity="1" /><path clip-path="url(#clip430)" d="M2796.87 1528.9 L2796.87 1550.41 L2791.01 1550.41 L2791.01 1529.09 Q2791.01 1524.03 2789.04 1521.51 Q2787.06 1519 2783.12 1519 Q2778.37 1519 2775.64 1522.02 Q2772.9 1525.04 2772.9 1530.26 L2772.9 1550.41 L2767.01 1550.41 L2767.01 1500.89 L2772.9 1500.89 L2772.9 1520.3 Q2775 1517.09 2777.83 1515.5 Q2780.7 1513.9 2784.42 1513.9 Q2790.56 1513.9 2793.72 1517.72 Q2796.87 1521.51 2796.87 1528.9 Z" fill="#000000" fill-rule="evenodd" fill-opacity="1" /><path clip-path="url(#clip430)" d="M2829.2 1520.24 Q2828.22 1519.67 2827.04 1519.41 Q2825.89 1519.12 2824.49 1519.12 Q2819.53 1519.12 2816.86 1522.37 Q2814.21 1525.59 2814.21 1531.63 L2814.21 1550.41 L2808.32 1550.41 L2808.32 1514.76 L2814.21 1514.76 L2814.21 1520.3 Q2816.06 1517.06 2819.02 1515.5 Q2821.98 1513.9 2826.21 1513.9 Q2826.82 1513.9 2827.55 1514 Q2828.28 1514.06 2829.17 1514.22 L2829.2 1520.24 Z" fill="#000000" fill-rule="evenodd" fill-opacity="1" /><path clip-path="url(#clip430)" d="M2864.41 1531.12 L2864.41 1533.99 L2837.48 1533.99 Q2837.86 1540.04 2841.11 1543.22 Q2844.39 1546.37 2850.21 1546.37 Q2853.59 1546.37 2856.74 1545.54 Q2859.92 1544.71 2863.04 1543.06 L2863.04 1548.6 Q2859.89 1549.93 2856.58 1550.63 Q2853.27 1551.33 2849.86 1551.33 Q2841.33 1551.33 2836.33 1546.37 Q2831.37 1541.4 2831.37 1532.94 Q2831.37 1524.19 2836.08 1519.06 Q2840.82 1513.9 2848.84 1513.9 Q2856.04 1513.9 2860.21 1518.55 Q2864.41 1523.17 2864.41 1531.12 M2858.55 1529.4 Q2858.49 1524.6 2855.84 1521.73 Q2853.24 1518.87 2848.91 1518.87 Q2844 1518.87 2841.04 1521.64 Q2838.12 1524.41 2837.67 1529.44 L2858.55 1529.4 Z" fill="#000000" fill-rule="evenodd" fill-opacity="1" /><path clip-path="url(#clip430)" d="M2890.22 1532.49 Q2883.12 1532.49 2880.38 1534.12 Q2877.65 1535.74 2877.65 1539.65 Q2877.65 1542.77 2879.68 1544.62 Q2881.75 1546.43 2885.29 1546.43 Q2890.16 1546.43 2893.08 1543 Q2896.04 1539.53 2896.04 1533.8 L2896.04 1532.49 L2890.22 1532.49 M2901.9 1530.07 L2901.9 1550.41 L2896.04 1550.41 L2896.04 1545 Q2894.04 1548.25 2891.05 1549.81 Q2888.06 1551.33 2883.73 1551.33 Q2878.25 1551.33 2875.01 1548.28 Q2871.79 1545.19 2871.79 1540.04 Q2871.79 1534.02 2875.8 1530.96 Q2879.84 1527.91 2887.83 1527.91 L2896.04 1527.91 L2896.04 1527.34 Q2896.04 1523.29 2893.37 1521.1 Q2890.73 1518.87 2885.92 1518.87 Q2882.87 1518.87 2879.97 1519.6 Q2877.07 1520.33 2874.4 1521.8 L2874.4 1516.39 Q2877.62 1515.15 2880.64 1514.54 Q2883.66 1513.9 2886.53 1513.9 Q2894.26 1513.9 2898.08 1517.91 Q2901.9 1521.93 2901.9 1530.07 Z" fill="#000000" fill-rule="evenodd" fill-opacity="1" /><path clip-path="url(#clip430)" d="M2937.42 1520.17 L2937.42 1500.89 L2943.28 1500.89 L2943.28 1550.41 L2937.42 1550.41 L2937.42 1545.06 Q2935.58 1548.25 2932.74 1549.81 Q2929.94 1551.33 2926 1551.33 Q2919.53 1551.33 2915.46 1546.18 Q2911.42 1541.02 2911.42 1532.62 Q2911.42 1524.22 2915.46 1519.06 Q2919.53 1513.9 2926 1513.9 Q2929.94 1513.9 2932.74 1515.46 Q2935.58 1516.99 2937.42 1520.17 M2917.47 1532.62 Q2917.47 1539.08 2920.11 1542.77 Q2922.78 1546.43 2927.43 1546.43 Q2932.07 1546.43 2934.75 1542.77 Q2937.42 1539.08 2937.42 1532.62 Q2937.42 1526.16 2934.75 1522.5 Q2932.07 1518.81 2927.43 1518.81 Q2922.78 1518.81 2920.11 1522.5 Q2917.47 1526.16 2917.47 1532.62 Z" fill="#000000" fill-rule="evenodd" fill-opacity="1" /><path clip-path="url(#clip430)" d="M2978.07 1515.81 L2978.07 1521.35 Q2975.58 1520.08 2972.91 1519.44 Q2970.24 1518.81 2967.37 1518.81 Q2963.01 1518.81 2960.82 1520.14 Q2958.65 1521.48 2958.65 1524.15 Q2958.65 1526.19 2960.21 1527.37 Q2961.77 1528.51 2966.48 1529.56 L2968.49 1530.01 Q2974.72 1531.35 2977.33 1533.8 Q2979.98 1536.22 2979.98 1540.58 Q2979.98 1545.54 2976.03 1548.44 Q2972.11 1551.33 2965.24 1551.33 Q2962.38 1551.33 2959.26 1550.76 Q2956.17 1550.22 2952.73 1549.11 L2952.73 1543.06 Q2955.98 1544.75 2959.13 1545.61 Q2962.28 1546.43 2965.37 1546.43 Q2969.5 1546.43 2971.73 1545.03 Q2973.96 1543.6 2973.96 1541.02 Q2973.96 1538.64 2972.34 1537.36 Q2970.75 1536.09 2965.3 1534.91 L2963.27 1534.43 Q2957.82 1533.29 2955.4 1530.93 Q2952.99 1528.55 2952.99 1524.41 Q2952.99 1519.38 2956.55 1516.64 Q2960.12 1513.9 2966.67 1513.9 Q2969.92 1513.9 2972.78 1514.38 Q2975.65 1514.86 2978.07 1515.81 Z" fill="#000000" fill-rule="evenodd" fill-opacity="1" /><polyline clip-path="url(#clip433)" style="stroke:#000000; stroke-linecap:round; stroke-linejoin:round; stroke-width:2; stroke-opacity:0.1; fill:none" points="
  2078.19,1348.92 3552.76,1348.92 
  "/>
<polyline clip-path="url(#clip433)" style="stroke:#000000; stroke-linecap:round; stroke-linejoin:round; stroke-width:2; stroke-opacity:0.1; fill:none" points="
  2078.19,1049.59 3552.76,1049.59 
  "/>
<polyline clip-path="url(#clip433)" style="stroke:#000000; stroke-linecap:round; stroke-linejoin:round; stroke-width:2; stroke-opacity:0.1; fill:none" points="
  2078.19,750.251 3552.76,750.251 
  "/>
<polyline clip-path="url(#clip433)" style="stroke:#000000; stroke-linecap:round; stroke-linejoin:round; stroke-width:2; stroke-opacity:0.1; fill:none" points="
  2078.19,450.917 3552.76,450.917 
  "/>
<polyline clip-path="url(#clip433)" style="stroke:#000000; stroke-linecap:round; stroke-linejoin:round; stroke-width:2; stroke-opacity:0.1; fill:none" points="
  2078.19,151.583 3552.76,151.583 
  "/>
<polyline clip-path="url(#clip430)" style="stroke:#000000; stroke-linecap:round; stroke-linejoin:round; stroke-width:4; stroke-opacity:1; fill:none" points="
  2078.19,1387.55 2078.19,103.312 
  "/>
<polyline clip-path="url(#clip430)" style="stroke:#000000; stroke-linecap:round; stroke-linejoin:round; stroke-width:4; stroke-opacity:1; fill:none" points="
  2078.19,1348.92 2097.08,1348.92 
  "/>
<polyline clip-path="url(#clip430)" style="stroke:#000000; stroke-linecap:round; stroke-linejoin:round; stroke-width:4; stroke-opacity:1; fill:none" points="
  2078.19,1049.59 2097.08,1049.59 
  "/>
<polyline clip-path="url(#clip430)" style="stroke:#000000; stroke-linecap:round; stroke-linejoin:round; stroke-width:4; stroke-opacity:1; fill:none" points="
  2078.19,750.251 2097.08,750.251 
  "/>
<polyline clip-path="url(#clip430)" style="stroke:#000000; stroke-linecap:round; stroke-linejoin:round; stroke-width:4; stroke-opacity:1; fill:none" points="
  2078.19,450.917 2097.08,450.917 
  "/>
<polyline clip-path="url(#clip430)" style="stroke:#000000; stroke-linecap:round; stroke-linejoin:round; stroke-width:4; stroke-opacity:1; fill:none" points="
  2078.19,151.583 2097.08,151.583 
  "/>
<path clip-path="url(#clip430)" d="M1968 1334.72 Q1964.39 1334.72 1962.57 1338.28 Q1960.76 1341.82 1960.76 1348.95 Q1960.76 1356.06 1962.57 1359.63 Q1964.39 1363.17 1968 1363.17 Q1971.64 1363.17 1973.44 1359.63 Q1975.27 1356.06 1975.27 1348.95 Q1975.27 1341.82 1973.44 1338.28 Q1971.64 1334.72 1968 1334.72 M1968 1331.01 Q1973.81 1331.01 1976.87 1335.62 Q1979.95 1340.2 1979.95 1348.95 Q1979.95 1357.68 1976.87 1362.29 Q1973.81 1366.87 1968 1366.87 Q1962.19 1366.87 1959.12 1362.29 Q1956.06 1357.68 1956.06 1348.95 Q1956.06 1340.2 1959.12 1335.62 Q1962.19 1331.01 1968 1331.01 Z" fill="#000000" fill-rule="evenodd" fill-opacity="1" /><path clip-path="url(#clip430)" d="M1988.17 1360.32 L1993.05 1360.32 L1993.05 1366.2 L1988.17 1366.2 L1988.17 1360.32 Z" fill="#000000" fill-rule="evenodd" fill-opacity="1" /><path clip-path="url(#clip430)" d="M2003.28 1331.64 L2021.64 1331.64 L2021.64 1335.57 L2007.56 1335.57 L2007.56 1344.05 Q2008.58 1343.7 2009.6 1343.54 Q2010.62 1343.35 2011.64 1343.35 Q2017.43 1343.35 2020.81 1346.52 Q2024.19 1349.69 2024.19 1355.11 Q2024.19 1360.69 2020.71 1363.79 Q2017.24 1366.87 2010.92 1366.87 Q2008.75 1366.87 2006.48 1366.5 Q2004.23 1366.13 2001.82 1365.39 L2001.82 1360.69 Q2003.91 1361.82 2006.13 1362.38 Q2008.35 1362.94 2010.83 1362.94 Q2014.83 1362.94 2017.17 1360.83 Q2019.51 1358.72 2019.51 1355.11 Q2019.51 1351.5 2017.17 1349.39 Q2014.83 1347.29 2010.83 1347.29 Q2008.95 1347.29 2007.08 1347.7 Q2005.23 1348.12 2003.28 1349 L2003.28 1331.64 Z" fill="#000000" fill-rule="evenodd" fill-opacity="1" /><path clip-path="url(#clip430)" d="M1957.82 1062.93 L1965.46 1062.93 L1965.46 1036.56 L1957.15 1038.23 L1957.15 1033.97 L1965.41 1032.31 L1970.09 1032.31 L1970.09 1062.93 L1977.73 1062.93 L1977.73 1066.87 L1957.82 1066.87 L1957.82 1062.93 Z" fill="#000000" fill-rule="evenodd" fill-opacity="1" /><path clip-path="url(#clip430)" d="M1987.17 1060.99 L1992.06 1060.99 L1992.06 1066.87 L1987.17 1066.87 L1987.17 1060.99 Z" fill="#000000" fill-rule="evenodd" fill-opacity="1" /><path clip-path="url(#clip430)" d="M2012.24 1035.38 Q2008.63 1035.38 2006.8 1038.95 Q2005 1042.49 2005 1049.62 Q2005 1056.73 2006.8 1060.29 Q2008.63 1063.83 2012.24 1063.83 Q2015.87 1063.83 2017.68 1060.29 Q2019.51 1056.73 2019.51 1049.62 Q2019.51 1042.49 2017.68 1038.95 Q2015.87 1035.38 2012.24 1035.38 M2012.24 1031.68 Q2018.05 1031.68 2021.11 1036.29 Q2024.19 1040.87 2024.19 1049.62 Q2024.19 1058.35 2021.11 1062.95 Q2018.05 1067.54 2012.24 1067.54 Q2006.43 1067.54 2003.35 1062.95 Q2000.3 1058.35 2000.3 1049.62 Q2000.3 1040.87 2003.35 1036.29 Q2006.43 1031.68 2012.24 1031.68 Z" fill="#000000" fill-rule="evenodd" fill-opacity="1" /><path clip-path="url(#clip430)" d="M1958.82 763.596 L1966.45 763.596 L1966.45 737.23 L1958.14 738.897 L1958.14 734.638 L1966.41 732.971 L1971.08 732.971 L1971.08 763.596 L1978.72 763.596 L1978.72 767.531 L1958.82 767.531 L1958.82 763.596 Z" fill="#000000" fill-rule="evenodd" fill-opacity="1" /><path clip-path="url(#clip430)" d="M1988.17 761.651 L1993.05 761.651 L1993.05 767.531 L1988.17 767.531 L1988.17 761.651 Z" fill="#000000" fill-rule="evenodd" fill-opacity="1" /><path clip-path="url(#clip430)" d="M2003.28 732.971 L2021.64 732.971 L2021.64 736.906 L2007.56 736.906 L2007.56 745.378 Q2008.58 745.031 2009.6 744.869 Q2010.62 744.684 2011.64 744.684 Q2017.43 744.684 2020.81 747.855 Q2024.19 751.026 2024.19 756.443 Q2024.19 762.022 2020.71 765.124 Q2017.24 768.202 2010.92 768.202 Q2008.75 768.202 2006.48 767.832 Q2004.23 767.461 2001.82 766.721 L2001.82 762.022 Q2003.91 763.156 2006.13 763.712 Q2008.35 764.267 2010.83 764.267 Q2014.83 764.267 2017.17 762.161 Q2019.51 760.054 2019.51 756.443 Q2019.51 752.832 2017.17 750.725 Q2014.83 748.619 2010.83 748.619 Q2008.95 748.619 2007.08 749.036 Q2005.23 749.452 2003.28 750.332 L2003.28 732.971 Z" fill="#000000" fill-rule="evenodd" fill-opacity="1" /><path clip-path="url(#clip430)" d="M1961.04 464.262 L1977.36 464.262 L1977.36 468.197 L1955.41 468.197 L1955.41 464.262 Q1958.07 461.507 1962.66 456.877 Q1967.26 452.225 1968.44 450.882 Q1970.69 448.359 1971.57 446.623 Q1972.47 444.864 1972.47 443.174 Q1972.47 440.419 1970.53 438.683 Q1968.61 436.947 1965.5 436.947 Q1963.31 436.947 1960.85 437.711 Q1958.42 438.475 1955.64 440.026 L1955.64 435.303 Q1958.47 434.169 1960.92 433.59 Q1963.38 433.012 1965.41 433.012 Q1970.78 433.012 1973.98 435.697 Q1977.17 438.382 1977.17 442.873 Q1977.17 445.002 1976.36 446.924 Q1975.57 448.822 1973.47 451.414 Q1972.89 452.086 1969.79 455.303 Q1966.69 458.498 1961.04 464.262 Z" fill="#000000" fill-rule="evenodd" fill-opacity="1" /><path clip-path="url(#clip430)" d="M1987.17 462.317 L1992.06 462.317 L1992.06 468.197 L1987.17 468.197 L1987.17 462.317 Z" fill="#000000" fill-rule="evenodd" fill-opacity="1" /><path clip-path="url(#clip430)" d="M2012.24 436.715 Q2008.63 436.715 2006.8 440.28 Q2005 443.822 2005 450.951 Q2005 458.058 2006.8 461.623 Q2008.63 465.164 2012.24 465.164 Q2015.87 465.164 2017.68 461.623 Q2019.51 458.058 2019.51 450.951 Q2019.51 443.822 2017.68 440.28 Q2015.87 436.715 2012.24 436.715 M2012.24 433.012 Q2018.05 433.012 2021.11 437.618 Q2024.19 442.202 2024.19 450.951 Q2024.19 459.678 2021.11 464.285 Q2018.05 468.868 2012.24 468.868 Q2006.43 468.868 2003.35 464.285 Q2000.3 459.678 2000.3 450.951 Q2000.3 442.202 2003.35 437.618 Q2006.43 433.012 2012.24 433.012 Z" fill="#000000" fill-rule="evenodd" fill-opacity="1" /><path clip-path="url(#clip430)" d="M1962.03 164.927 L1978.35 164.927 L1978.35 168.863 L1956.41 168.863 L1956.41 164.927 Q1959.07 162.173 1963.65 157.543 Q1968.26 152.89 1969.44 151.548 Q1971.69 149.025 1972.56 147.289 Q1973.47 145.529 1973.47 143.84 Q1973.47 141.085 1971.52 139.349 Q1969.6 137.613 1966.5 137.613 Q1964.3 137.613 1961.85 138.377 Q1959.42 139.14 1956.64 140.691 L1956.64 135.969 Q1959.46 134.835 1961.92 134.256 Q1964.37 133.678 1966.41 133.678 Q1971.78 133.678 1974.97 136.363 Q1978.17 139.048 1978.17 143.539 Q1978.17 145.668 1977.36 147.59 Q1976.57 149.488 1974.46 152.08 Q1973.88 152.752 1970.78 155.969 Q1967.68 159.164 1962.03 164.927 Z" fill="#000000" fill-rule="evenodd" fill-opacity="1" /><path clip-path="url(#clip430)" d="M1988.17 162.983 L1993.05 162.983 L1993.05 168.863 L1988.17 168.863 L1988.17 162.983 Z" fill="#000000" fill-rule="evenodd" fill-opacity="1" /><path clip-path="url(#clip430)" d="M2003.28 134.303 L2021.64 134.303 L2021.64 138.238 L2007.56 138.238 L2007.56 146.71 Q2008.58 146.363 2009.6 146.201 Q2010.62 146.015 2011.64 146.015 Q2017.43 146.015 2020.81 149.187 Q2024.19 152.358 2024.19 157.775 Q2024.19 163.353 2020.71 166.455 Q2017.24 169.534 2010.92 169.534 Q2008.75 169.534 2006.48 169.163 Q2004.23 168.793 2001.82 168.052 L2001.82 163.353 Q2003.91 164.488 2006.13 165.043 Q2008.35 165.599 2010.83 165.599 Q2014.83 165.599 2017.17 163.492 Q2019.51 161.386 2019.51 157.775 Q2019.51 154.164 2017.17 152.057 Q2014.83 149.951 2010.83 149.951 Q2008.95 149.951 2007.08 150.367 Q2005.23 150.784 2003.28 151.664 L2003.28 134.303 Z" fill="#000000" fill-rule="evenodd" fill-opacity="1" /><path clip-path="url(#clip430)" d="M1839.64 875.259 L1839.64 835.059 L1845.05 835.059 L1845.05 851.928 L1887.16 851.928 L1887.16 858.389 L1845.05 858.389 L1845.05 875.259 L1839.64 875.259 Z" fill="#000000" fill-rule="evenodd" fill-opacity="1" /><path clip-path="url(#clip430)" d="M1851.51 831.112 L1851.51 825.256 L1887.16 825.256 L1887.16 831.112 L1851.51 831.112 M1837.63 831.112 L1837.63 825.256 L1845.05 825.256 L1845.05 831.112 L1837.63 831.112 Z" fill="#000000" fill-rule="evenodd" fill-opacity="1" /><path clip-path="url(#clip430)" d="M1858.35 785.247 Q1854.4 783.051 1852.53 779.996 Q1850.65 776.94 1850.65 772.802 Q1850.65 767.232 1854.56 764.209 Q1858.45 761.185 1865.64 761.185 L1887.16 761.185 L1887.16 767.073 L1865.83 767.073 Q1860.71 767.073 1858.22 768.888 Q1855.74 770.702 1855.74 774.426 Q1855.74 778.977 1858.77 781.619 Q1861.79 784.261 1867.01 784.261 L1887.16 784.261 L1887.16 790.149 L1865.83 790.149 Q1860.67 790.149 1858.22 791.963 Q1855.74 793.777 1855.74 797.565 Q1855.74 802.053 1858.8 804.695 Q1861.82 807.336 1867.01 807.336 L1887.16 807.336 L1887.16 813.225 L1851.51 813.225 L1851.51 807.336 L1857.05 807.336 Q1853.77 805.331 1852.21 802.53 Q1850.65 799.729 1850.65 795.878 Q1850.65 791.995 1852.62 789.29 Q1854.6 786.552 1858.35 785.247 Z" fill="#000000" fill-rule="evenodd" fill-opacity="1" /><path clip-path="url(#clip430)" d="M1867.87 719.012 L1870.73 719.012 L1870.73 745.939 Q1876.78 745.557 1879.96 742.311 Q1883.11 739.032 1883.11 733.208 Q1883.11 729.834 1882.29 726.683 Q1881.46 723.5 1879.8 720.381 L1885.34 720.381 Q1886.68 723.532 1887.38 726.842 Q1888.08 730.152 1888.08 733.558 Q1888.08 742.088 1883.11 747.085 Q1878.15 752.05 1869.68 752.05 Q1860.93 752.05 1855.81 747.34 Q1850.65 742.597 1850.65 734.576 Q1850.65 727.383 1855.3 723.214 Q1859.91 719.012 1867.87 719.012 M1866.15 724.869 Q1861.34 724.932 1858.48 727.574 Q1855.61 730.184 1855.61 734.513 Q1855.61 739.414 1858.38 742.374 Q1861.15 745.303 1866.18 745.748 L1866.15 724.869 Z" fill="#000000" fill-rule="evenodd" fill-opacity="1" /><path clip-path="url(#clip430)" d="M1837.63 689.221 L1837.63 675.725 L1842.18 675.725 L1842.18 683.364 L1891.2 683.364 L1891.2 675.725 L1895.75 675.725 L1895.75 689.221 L1837.63 689.221 Z" fill="#000000" fill-rule="evenodd" fill-opacity="1" /><path clip-path="url(#clip430)" d="M1852.56 640.523 L1858.1 640.523 Q1856.82 643.006 1856.19 645.679 Q1855.55 648.353 1855.55 651.217 Q1855.55 655.578 1856.89 657.774 Q1858.22 659.938 1860.9 659.938 Q1862.93 659.938 1864.11 658.379 Q1865.26 656.819 1866.31 652.109 L1866.75 650.103 Q1868.09 643.865 1870.54 641.255 Q1872.96 638.613 1877.32 638.613 Q1882.29 638.613 1885.18 642.56 Q1888.08 646.475 1888.08 653.35 Q1888.08 656.215 1887.51 659.334 Q1886.97 662.421 1885.85 665.859 L1879.8 665.859 Q1881.49 662.612 1882.35 659.461 Q1883.18 656.31 1883.18 653.223 Q1883.18 649.085 1881.78 646.857 Q1880.34 644.629 1877.77 644.629 Q1875.38 644.629 1874.11 646.252 Q1872.83 647.844 1871.66 653.286 L1871.18 655.323 Q1870.03 660.766 1867.68 663.185 Q1865.29 665.604 1861.15 665.604 Q1856.12 665.604 1853.39 662.039 Q1850.65 658.474 1850.65 651.918 Q1850.65 648.671 1851.13 645.807 Q1851.6 642.942 1852.56 640.523 Z" fill="#000000" fill-rule="evenodd" fill-opacity="1" /><path clip-path="url(#clip430)" d="M1837.63 615.601 L1895.75 615.601 L1895.75 629.097 L1891.2 629.097 L1891.2 621.49 L1842.18 621.49 L1842.18 629.097 L1837.63 629.097 L1837.63 615.601 Z" fill="#000000" fill-rule="evenodd" fill-opacity="1" /><path clip-path="url(#clip430)" d="M2734.21 44.2197 Q2736.84 45.1109 2739.31 48.0275 Q2741.83 50.9442 2744.34 56.0483 L2752.64 72.576 L2743.85 72.576 L2736.11 57.061 Q2733.12 50.9847 2730.28 48.9997 Q2727.48 47.0148 2722.62 47.0148 L2713.71 47.0148 L2713.71 72.576 L2705.53 72.576 L2705.53 12.096 L2724 12.096 Q2734.37 12.096 2739.48 16.4305 Q2744.58 20.7649 2744.58 29.5149 Q2744.58 35.2267 2741.91 38.994 Q2739.27 42.7613 2734.21 44.2197 M2713.71 18.8205 L2713.71 40.2903 L2724 40.2903 Q2729.92 40.2903 2732.91 37.5762 Q2735.95 34.8216 2735.95 29.5149 Q2735.95 24.2082 2732.91 21.5346 Q2729.92 18.8205 2724 18.8205 L2713.71 18.8205 Z" fill="#000000" fill-rule="evenodd" fill-opacity="1" /><path clip-path="url(#clip430)" d="M2790.19 34.9026 L2842.13 34.9026 L2842.13 41.7081 L2790.19 41.7081 L2790.19 34.9026 M2790.19 51.4303 L2842.13 51.4303 L2842.13 58.3168 L2790.19 58.3168 L2790.19 51.4303 Z" fill="#000000" fill-rule="evenodd" fill-opacity="1" /><path clip-path="url(#clip430)" d="M2908.64 19.2256 L2887.98 51.5113 L2908.64 51.5113 L2908.64 19.2256 M2906.49 12.096 L2916.78 12.096 L2916.78 51.5113 L2925.41 51.5113 L2925.41 58.3168 L2916.78 58.3168 L2916.78 72.576 L2908.64 72.576 L2908.64 58.3168 L2881.34 58.3168 L2881.34 50.4176 L2906.49 12.096 Z" fill="#000000" fill-rule="evenodd" fill-opacity="1" /><polyline clip-path="url(#clip433)" style="stroke:#004991; stroke-linecap:round; stroke-linejoin:round; stroke-width:12; stroke-opacity:1; fill:none" points="
  2119.92,139.658 2318.65,512.024 2716.11,897.391 3511.02,1117.87 
  "/>
<circle clip-path="url(#clip433)" cx="2119.92" cy="139.658" r="14.4" fill="#004991" fill-rule="evenodd" fill-opacity="1" stroke="none"/>
<circle clip-path="url(#clip433)" cx="2318.65" cy="512.024" r="14.4" fill="#004991" fill-rule="evenodd" fill-opacity="1" stroke="none"/>
<circle clip-path="url(#clip433)" cx="2716.11" cy="897.391" r="14.4" fill="#004991" fill-rule="evenodd" fill-opacity="1" stroke="none"/>
<circle clip-path="url(#clip433)" cx="3511.02" cy="1117.87" r="14.4" fill="#004991" fill-rule="evenodd" fill-opacity="1" stroke="none"/>
<polyline clip-path="url(#clip433)" style="stroke:#4c7fb2; stroke-linecap:round; stroke-linejoin:round; stroke-width:12; stroke-opacity:1; fill:none" points="
  2119.92,879.64 2318.65,1151.64 2716.11,1290.25 3511.02,1351.2 
  "/>
<circle clip-path="url(#clip433)" cx="2119.92" cy="879.64" r="14.4" fill="#4c7fb2" fill-rule="evenodd" fill-opacity="1" stroke="none"/>
<circle clip-path="url(#clip433)" cx="2318.65" cy="1151.64" r="14.4" fill="#4c7fb2" fill-rule="evenodd" fill-opacity="1" stroke="none"/>
<circle clip-path="url(#clip433)" cx="2716.11" cy="1290.25" r="14.4" fill="#4c7fb2" fill-rule="evenodd" fill-opacity="1" stroke="none"/>
<circle clip-path="url(#clip433)" cx="3511.02" cy="1351.2" r="14.4" fill="#4c7fb2" fill-rule="evenodd" fill-opacity="1" stroke="none"/>
<polyline clip-path="url(#clip433)" style="stroke:#ef871e; stroke-linecap:round; stroke-linejoin:round; stroke-width:12; stroke-opacity:1; fill:none" points="
  2119.92,503.403 2318.65,898.797 2716.11,1159.4 3511.02,1304.85 
  "/>
<circle clip-path="url(#clip433)" cx="2119.92" cy="503.403" r="14.4" fill="#ef871e" fill-rule="evenodd" fill-opacity="1" stroke="none"/>
<circle clip-path="url(#clip433)" cx="2318.65" cy="898.797" r="14.4" fill="#ef871e" fill-rule="evenodd" fill-opacity="1" stroke="none"/>
<circle clip-path="url(#clip433)" cx="2716.11" cy="1159.4" r="14.4" fill="#ef871e" fill-rule="evenodd" fill-opacity="1" stroke="none"/>
<circle clip-path="url(#clip433)" cx="3511.02" cy="1304.85" r="14.4" fill="#ef871e" fill-rule="evenodd" fill-opacity="1" stroke="none"/>
<path clip-path="url(#clip430)" d="
M2855.02 353.48 L3503.6 353.48 L3503.6 146.12 L2855.02 146.12  Z
  " fill="#ffffff" fill-rule="evenodd" fill-opacity="1"/>
<polyline clip-path="url(#clip430)" style="stroke:#000000; stroke-linecap:round; stroke-linejoin:round; stroke-width:4; stroke-opacity:1; fill:none" points="
  2855.02,353.48 3503.6,353.48 3503.6,146.12 2855.02,146.12 2855.02,353.48 
  "/>
<polyline clip-path="url(#clip430)" style="stroke:#004991; stroke-linecap:round; stroke-linejoin:round; stroke-width:4; stroke-opacity:1; fill:none" points="
  2871.4,197.96 2969.71,197.96 
  "/>
<circle clip-path="url(#clip430)" cx="2920.56" cy="197.96" r="13.6534" fill="#004991" fill-rule="evenodd" fill-opacity="1" stroke="none"/>
<path clip-path="url(#clip430)" d="M2990.77 198.735 L2990.77 211.397 L2998.27 211.397 Q3002.04 211.397 3003.85 209.846 Q3005.68 208.272 3005.68 205.055 Q3005.68 201.814 3003.85 200.286 Q3002.04 198.735 2998.27 198.735 L2990.77 198.735 M2990.77 184.523 L2990.77 194.939 L2997.69 194.939 Q3001.12 194.939 3002.78 193.666 Q3004.47 192.37 3004.47 189.731 Q3004.47 187.115 3002.78 185.819 Q3001.12 184.523 2997.69 184.523 L2990.77 184.523 M2986.09 180.68 L2998.04 180.68 Q3003.38 180.68 3006.28 182.902 Q3009.17 185.124 3009.17 189.222 Q3009.17 192.393 3007.69 194.268 Q3006.21 196.143 3003.34 196.606 Q3006.79 197.347 3008.69 199.708 Q3010.61 202.046 3010.61 205.564 Q3010.61 210.194 3007.46 212.717 Q3004.31 215.24 2998.5 215.24 L2986.09 215.24 L2986.09 180.68 Z" fill="#000000" fill-rule="evenodd" fill-opacity="1" /><path clip-path="url(#clip430)" d="M3030.17 185.286 L3023.82 202.485 L3036.53 202.485 L3030.17 185.286 M3027.53 180.68 L3032.83 180.68 L3046 215.24 L3041.14 215.24 L3037.99 206.374 L3022.41 206.374 L3019.26 215.24 L3014.33 215.24 L3027.53 180.68 Z" fill="#000000" fill-rule="evenodd" fill-opacity="1" /><path clip-path="url(#clip430)" d="M3067.43 199.036 Q3068.94 199.546 3070.35 201.212 Q3071.79 202.879 3073.22 205.796 L3077.97 215.24 L3072.94 215.24 L3068.52 206.374 Q3066.81 202.902 3065.19 201.768 Q3063.59 200.634 3060.81 200.634 L3055.72 200.634 L3055.72 215.24 L3051.05 215.24 L3051.05 180.68 L3061.6 180.68 Q3067.53 180.68 3070.44 183.157 Q3073.36 185.634 3073.36 190.634 Q3073.36 193.898 3071.83 196.05 Q3070.33 198.203 3067.43 199.036 M3055.72 184.523 L3055.72 196.791 L3061.6 196.791 Q3064.98 196.791 3066.69 195.24 Q3068.43 193.666 3068.43 190.634 Q3068.43 187.601 3066.69 186.073 Q3064.98 184.523 3061.6 184.523 L3055.72 184.523 Z" fill="#000000" fill-rule="evenodd" fill-opacity="1" /><path clip-path="url(#clip430)" d="M3075.74 180.68 L3104.98 180.68 L3104.98 184.615 L3092.71 184.615 L3092.71 215.24 L3088.01 215.24 L3088.01 184.615 L3075.74 184.615 L3075.74 180.68 Z" fill="#000000" fill-rule="evenodd" fill-opacity="1" /><polyline clip-path="url(#clip430)" style="stroke:#4c7fb2; stroke-linecap:round; stroke-linejoin:round; stroke-width:4; stroke-opacity:1; fill:none" points="
  2871.4,249.8 2969.71,249.8 
  "/>
<circle clip-path="url(#clip430)" cx="2920.56" cy="249.8" r="13.6534" fill="#4c7fb2" fill-rule="evenodd" fill-opacity="1" stroke="none"/>
<path clip-path="url(#clip430)" d="M2986.09 232.52 L2993.06 232.52 L3001.88 256.038 L3010.75 232.52 L3017.71 232.52 L3017.71 267.08 L3013.15 267.08 L3013.15 236.733 L3004.24 260.436 L2999.54 260.436 L2990.63 236.733 L2990.63 267.08 L2986.09 267.08 L2986.09 232.52 Z" fill="#000000" fill-rule="evenodd" fill-opacity="1" /><path clip-path="url(#clip430)" d="M3043.38 250.876 Q3044.89 251.386 3046.3 253.052 Q3047.74 254.719 3049.17 257.636 L3053.92 267.08 L3048.89 267.08 L3044.47 258.214 Q3042.76 254.742 3041.14 253.608 Q3039.54 252.474 3036.76 252.474 L3031.67 252.474 L3031.67 267.08 L3027 267.08 L3027 232.52 L3037.55 232.52 Q3043.48 232.52 3046.39 234.997 Q3049.31 237.474 3049.31 242.474 Q3049.31 245.738 3047.78 247.89 Q3046.28 250.043 3043.38 250.876 M3031.67 236.363 L3031.67 248.631 L3037.55 248.631 Q3040.93 248.631 3042.64 247.08 Q3044.38 245.506 3044.38 242.474 Q3044.38 239.441 3042.64 237.913 Q3040.93 236.363 3037.55 236.363 L3031.67 236.363 Z" fill="#000000" fill-rule="evenodd" fill-opacity="1" /><path clip-path="url(#clip430)" d="M3059.93 232.52 L3064.61 232.52 L3064.61 267.08 L3059.93 267.08 L3059.93 232.52 Z" fill="#000000" fill-rule="evenodd" fill-opacity="1" /><path clip-path="url(#clip430)" d="M3090.3 250.876 Q3091.81 251.386 3093.22 253.052 Q3094.66 254.719 3096.09 257.636 L3100.84 267.08 L3095.81 267.08 L3091.39 258.214 Q3089.68 254.742 3088.06 253.608 Q3086.46 252.474 3083.68 252.474 L3078.59 252.474 L3078.59 267.08 L3073.92 267.08 L3073.92 232.52 L3084.47 232.52 Q3090.4 232.52 3093.31 234.997 Q3096.23 237.474 3096.23 242.474 Q3096.23 245.738 3094.7 247.89 Q3093.2 250.043 3090.3 250.876 M3078.59 236.363 L3078.59 248.631 L3084.47 248.631 Q3087.85 248.631 3089.56 247.08 Q3091.3 245.506 3091.3 242.474 Q3091.3 239.441 3089.56 237.913 Q3087.85 236.363 3084.47 236.363 L3078.59 236.363 Z" fill="#000000" fill-rule="evenodd" fill-opacity="1" /><path clip-path="url(#clip430)" d="M3126.72 253.052 L3126.72 255.136 L3107.13 255.136 Q3107.41 259.534 3109.77 261.849 Q3112.16 264.14 3116.39 264.14 Q3118.85 264.14 3121.14 263.538 Q3123.45 262.936 3125.72 261.733 L3125.72 265.761 Q3123.43 266.733 3121.02 267.242 Q3118.61 267.751 3116.14 267.751 Q3109.93 267.751 3106.3 264.14 Q3102.69 260.529 3102.69 254.372 Q3102.69 248.006 3106.12 244.279 Q3109.56 240.529 3115.4 240.529 Q3120.63 240.529 3123.66 243.909 Q3126.72 247.265 3126.72 253.052 M3122.46 251.802 Q3122.41 248.307 3120.49 246.224 Q3118.59 244.14 3115.44 244.14 Q3111.88 244.14 3109.73 246.154 Q3107.6 248.168 3107.27 251.825 L3122.46 251.802 Z" fill="#000000" fill-rule="evenodd" fill-opacity="1" /><path clip-path="url(#clip430)" d="M3152.36 242.15 L3152.36 246.131 Q3150.56 245.136 3148.73 244.65 Q3146.93 244.14 3145.07 244.14 Q3140.93 244.14 3138.64 246.779 Q3136.35 249.395 3136.35 254.14 Q3136.35 258.886 3138.64 261.524 Q3140.93 264.14 3145.07 264.14 Q3146.93 264.14 3148.73 263.654 Q3150.56 263.145 3152.36 262.149 L3152.36 266.085 Q3150.58 266.918 3148.66 267.335 Q3146.76 267.751 3144.61 267.751 Q3138.75 267.751 3135.3 264.071 Q3131.86 260.39 3131.86 254.14 Q3131.86 247.798 3135.33 244.163 Q3138.82 240.529 3144.89 240.529 Q3146.86 240.529 3148.73 240.946 Q3150.61 241.339 3152.36 242.15 Z" fill="#000000" fill-rule="evenodd" fill-opacity="1" /><path clip-path="url(#clip430)" d="M3169.82 244.14 Q3166.39 244.14 3164.4 246.825 Q3162.41 249.487 3162.41 254.14 Q3162.41 258.793 3164.38 261.478 Q3166.37 264.14 3169.82 264.14 Q3173.22 264.14 3175.21 261.455 Q3177.2 258.77 3177.2 254.14 Q3177.2 249.534 3175.21 246.849 Q3173.22 244.14 3169.82 244.14 M3169.82 240.529 Q3175.37 240.529 3178.55 244.14 Q3181.72 247.751 3181.72 254.14 Q3181.72 260.506 3178.55 264.14 Q3175.37 267.751 3169.82 267.751 Q3164.24 267.751 3161.07 264.14 Q3157.92 260.506 3157.92 254.14 Q3157.92 247.751 3161.07 244.14 Q3164.24 240.529 3169.82 240.529 Z" fill="#000000" fill-rule="evenodd" fill-opacity="1" /><polyline clip-path="url(#clip430)" style="stroke:#ef871e; stroke-linecap:round; stroke-linejoin:round; stroke-width:4; stroke-opacity:1; fill:none" points="
  2871.4,301.64 2969.71,301.64 
  "/>
<circle clip-path="url(#clip430)" cx="2920.56" cy="301.64" r="13.6534" fill="#ef871e" fill-rule="evenodd" fill-opacity="1" stroke="none"/>
<path clip-path="url(#clip430)" d="M2986.09 284.36 L2993.06 284.36 L3001.88 307.878 L3010.75 284.36 L3017.71 284.36 L3017.71 318.92 L3013.15 318.92 L3013.15 288.573 L3004.24 312.276 L2999.54 312.276 L2990.63 288.573 L2990.63 318.92 L2986.09 318.92 L2986.09 284.36 Z" fill="#000000" fill-rule="evenodd" fill-opacity="1" /><path clip-path="url(#clip430)" d="M3043.38 302.716 Q3044.89 303.226 3046.3 304.892 Q3047.74 306.559 3049.17 309.476 L3053.92 318.92 L3048.89 318.92 L3044.47 310.054 Q3042.76 306.582 3041.14 305.448 Q3039.54 304.314 3036.76 304.314 L3031.67 304.314 L3031.67 318.92 L3027 318.92 L3027 284.36 L3037.55 284.36 Q3043.48 284.36 3046.39 286.837 Q3049.31 289.314 3049.31 294.314 Q3049.31 297.578 3047.78 299.73 Q3046.28 301.883 3043.38 302.716 M3031.67 288.203 L3031.67 300.471 L3037.55 300.471 Q3040.93 300.471 3042.64 298.92 Q3044.38 297.346 3044.38 294.314 Q3044.38 291.281 3042.64 289.753 Q3040.93 288.203 3037.55 288.203 L3031.67 288.203 Z" fill="#000000" fill-rule="evenodd" fill-opacity="1" /><path clip-path="url(#clip430)" d="M3059.93 284.36 L3064.61 284.36 L3064.61 318.92 L3059.93 318.92 L3059.93 284.36 Z" fill="#000000" fill-rule="evenodd" fill-opacity="1" /><path clip-path="url(#clip430)" d="M3090.3 302.716 Q3091.81 303.226 3093.22 304.892 Q3094.66 306.559 3096.09 309.476 L3100.84 318.92 L3095.81 318.92 L3091.39 310.054 Q3089.68 306.582 3088.06 305.448 Q3086.46 304.314 3083.68 304.314 L3078.59 304.314 L3078.59 318.92 L3073.92 318.92 L3073.92 284.36 L3084.47 284.36 Q3090.4 284.36 3093.31 286.837 Q3096.23 289.314 3096.23 294.314 Q3096.23 297.578 3094.7 299.73 Q3093.2 301.883 3090.3 302.716 M3078.59 288.203 L3078.59 300.471 L3084.47 300.471 Q3087.85 300.471 3089.56 298.92 Q3091.3 297.346 3091.3 294.314 Q3091.3 291.281 3089.56 289.753 Q3087.85 288.203 3084.47 288.203 L3078.59 288.203 Z" fill="#000000" fill-rule="evenodd" fill-opacity="1" /><path clip-path="url(#clip430)" d="M3126.72 304.892 L3126.72 306.976 L3107.13 306.976 Q3107.41 311.374 3109.77 313.689 Q3112.16 315.98 3116.39 315.98 Q3118.85 315.98 3121.14 315.378 Q3123.45 314.776 3125.72 313.573 L3125.72 317.601 Q3123.43 318.573 3121.02 319.082 Q3118.61 319.591 3116.14 319.591 Q3109.93 319.591 3106.3 315.98 Q3102.69 312.369 3102.69 306.212 Q3102.69 299.846 3106.12 296.119 Q3109.56 292.369 3115.4 292.369 Q3120.63 292.369 3123.66 295.749 Q3126.72 299.105 3126.72 304.892 M3122.46 303.642 Q3122.41 300.147 3120.49 298.064 Q3118.59 295.98 3115.44 295.98 Q3111.88 295.98 3109.73 297.994 Q3107.6 300.008 3107.27 303.665 L3122.46 303.642 Z" fill="#000000" fill-rule="evenodd" fill-opacity="1" /><path clip-path="url(#clip430)" d="M3152.36 293.99 L3152.36 297.971 Q3150.56 296.976 3148.73 296.49 Q3146.93 295.98 3145.07 295.98 Q3140.93 295.98 3138.64 298.619 Q3136.35 301.235 3136.35 305.98 Q3136.35 310.726 3138.64 313.364 Q3140.93 315.98 3145.07 315.98 Q3146.93 315.98 3148.73 315.494 Q3150.56 314.985 3152.36 313.989 L3152.36 317.925 Q3150.58 318.758 3148.66 319.175 Q3146.76 319.591 3144.61 319.591 Q3138.75 319.591 3135.3 315.911 Q3131.86 312.23 3131.86 305.98 Q3131.86 299.638 3135.33 296.003 Q3138.82 292.369 3144.89 292.369 Q3146.86 292.369 3148.73 292.786 Q3150.61 293.179 3152.36 293.99 Z" fill="#000000" fill-rule="evenodd" fill-opacity="1" /><path clip-path="url(#clip430)" d="M3169.82 295.98 Q3166.39 295.98 3164.4 298.665 Q3162.41 301.327 3162.41 305.98 Q3162.41 310.633 3164.38 313.318 Q3166.37 315.98 3169.82 315.98 Q3173.22 315.98 3175.21 313.295 Q3177.2 310.61 3177.2 305.98 Q3177.2 301.374 3175.21 298.689 Q3173.22 295.98 3169.82 295.98 M3169.82 292.369 Q3175.37 292.369 3178.55 295.98 Q3181.72 299.591 3181.72 305.98 Q3181.72 312.346 3178.55 315.98 Q3175.37 319.591 3169.82 319.591 Q3164.24 319.591 3161.07 315.98 Q3157.92 312.346 3157.92 305.98 Q3157.92 299.591 3161.07 295.98 Q3164.24 292.369 3169.82 292.369 Z" fill="#000000" fill-rule="evenodd" fill-opacity="1" /><path clip-path="url(#clip430)" d="M3204.03 284.36 L3210.33 284.36 L3225.65 313.272 L3225.65 284.36 L3230.19 284.36 L3230.19 318.92 L3223.89 318.92 L3208.57 290.008 L3208.57 318.92 L3204.03 318.92 L3204.03 284.36 Z" fill="#000000" fill-rule="evenodd" fill-opacity="1" /><path clip-path="url(#clip430)" d="M3249.36 295.98 Q3245.93 295.98 3243.94 298.665 Q3241.95 301.327 3241.95 305.98 Q3241.95 310.633 3243.92 313.318 Q3245.91 315.98 3249.36 315.98 Q3252.76 315.98 3254.75 313.295 Q3256.74 310.61 3256.74 305.98 Q3256.74 301.374 3254.75 298.689 Q3252.76 295.98 3249.36 295.98 M3249.36 292.369 Q3254.91 292.369 3258.08 295.98 Q3261.25 299.591 3261.25 305.98 Q3261.25 312.346 3258.08 315.98 Q3254.91 319.591 3249.36 319.591 Q3243.78 319.591 3240.61 315.98 Q3237.46 312.346 3237.46 305.98 Q3237.46 299.591 3240.61 295.98 Q3243.78 292.369 3249.36 292.369 Z" fill="#000000" fill-rule="evenodd" fill-opacity="1" /><path clip-path="url(#clip430)" d="M3289.86 303.272 L3289.86 318.92 L3285.6 318.92 L3285.6 303.411 Q3285.6 299.73 3284.17 297.902 Q3282.73 296.073 3279.86 296.073 Q3276.42 296.073 3274.42 298.272 Q3272.43 300.471 3272.43 304.267 L3272.43 318.92 L3268.15 318.92 L3268.15 292.994 L3272.43 292.994 L3272.43 297.022 Q3273.96 294.684 3276.02 293.527 Q3278.1 292.369 3280.81 292.369 Q3285.28 292.369 3287.57 295.147 Q3289.86 297.902 3289.86 303.272 Z" fill="#000000" fill-rule="evenodd" fill-opacity="1" /><path clip-path="url(#clip430)" d="M3293.75 284.36 L3322.99 284.36 L3322.99 288.295 L3310.72 288.295 L3310.72 318.92 L3306.02 318.92 L3306.02 288.295 L3293.75 288.295 L3293.75 284.36 Z" fill="#000000" fill-rule="evenodd" fill-opacity="1" /><path clip-path="url(#clip430)" d="M3329.31 295.98 Q3325.88 295.98 3323.89 298.665 Q3321.9 301.327 3321.9 305.98 Q3321.9 310.633 3323.87 313.318 Q3325.86 315.98 3329.31 315.98 Q3332.71 315.98 3334.7 313.295 Q3336.69 310.61 3336.69 305.98 Q3336.69 301.374 3334.7 298.689 Q3332.71 295.98 3329.31 295.98 M3329.31 292.369 Q3334.86 292.369 3338.04 295.98 Q3341.21 299.591 3341.21 305.98 Q3341.21 312.346 3338.04 315.98 Q3334.86 319.591 3329.31 319.591 Q3323.73 319.591 3320.56 315.98 Q3317.41 312.346 3317.41 305.98 Q3317.41 299.591 3320.56 295.98 Q3323.73 292.369 3329.31 292.369 Z" fill="#000000" fill-rule="evenodd" fill-opacity="1" /><path clip-path="url(#clip430)" d="M3370.44 304.892 L3370.44 306.976 L3350.86 306.976 Q3351.14 311.374 3353.5 313.689 Q3355.88 315.98 3360.12 315.98 Q3362.57 315.98 3364.86 315.378 Q3367.18 314.776 3369.45 313.573 L3369.45 317.601 Q3367.16 318.573 3364.75 319.082 Q3362.34 319.591 3359.86 319.591 Q3353.66 319.591 3350.03 315.98 Q3346.41 312.369 3346.41 306.212 Q3346.41 299.846 3349.84 296.119 Q3353.29 292.369 3359.12 292.369 Q3364.35 292.369 3367.39 295.749 Q3370.44 299.105 3370.44 304.892 M3366.18 303.642 Q3366.14 300.147 3364.22 298.064 Q3362.32 295.98 3359.17 295.98 Q3355.6 295.98 3353.45 297.994 Q3351.32 300.008 3351 303.665 L3366.18 303.642 Z" fill="#000000" fill-rule="evenodd" fill-opacity="1" /><path clip-path="url(#clip430)" d="M3381.55 315.031 L3381.55 328.781 L3377.27 328.781 L3377.27 292.994 L3381.55 292.994 L3381.55 296.929 Q3382.9 294.615 3384.93 293.503 Q3386.99 292.369 3389.84 292.369 Q3394.56 292.369 3397.5 296.119 Q3400.47 299.869 3400.47 305.98 Q3400.47 312.091 3397.5 315.841 Q3394.56 319.591 3389.84 319.591 Q3386.99 319.591 3384.93 318.48 Q3382.9 317.346 3381.55 315.031 M3396.04 305.98 Q3396.04 301.281 3394.1 298.619 Q3392.18 295.934 3388.8 295.934 Q3385.42 295.934 3383.47 298.619 Q3381.55 301.281 3381.55 305.98 Q3381.55 310.679 3383.47 313.364 Q3385.42 316.026 3388.8 316.026 Q3392.18 316.026 3394.1 313.364 Q3396.04 310.679 3396.04 305.98 Z" fill="#000000" fill-rule="evenodd" fill-opacity="1" /><path clip-path="url(#clip430)" d="M3407.53 282.902 L3411.78 282.902 L3411.78 318.92 L3407.53 318.92 L3407.53 282.902 Z" fill="#000000" fill-rule="evenodd" fill-opacity="1" /><path clip-path="url(#clip430)" d="M3420.7 292.994 L3424.96 292.994 L3424.96 318.92 L3420.7 318.92 L3420.7 292.994 M3420.7 282.902 L3424.96 282.902 L3424.96 288.295 L3420.7 288.295 L3420.7 282.902 Z" fill="#000000" fill-rule="evenodd" fill-opacity="1" /><path clip-path="url(#clip430)" d="M3438.08 285.633 L3438.08 292.994 L3446.85 292.994 L3446.85 296.304 L3438.08 296.304 L3438.08 310.378 Q3438.08 313.55 3438.94 314.452 Q3439.82 315.355 3442.48 315.355 L3446.85 315.355 L3446.85 318.92 L3442.48 318.92 Q3437.55 318.92 3435.67 317.091 Q3433.8 315.239 3433.8 310.378 L3433.8 296.304 L3430.67 296.304 L3430.67 292.994 L3433.8 292.994 L3433.8 285.633 L3438.08 285.633 Z" fill="#000000" fill-rule="evenodd" fill-opacity="1" /><path clip-path="url(#clip430)" d="M3450.6 292.994 L3470.84 292.994 L3470.84 296.883 L3454.82 315.517 L3470.84 315.517 L3470.84 318.92 L3450.03 318.92 L3450.03 315.031 L3466.04 296.397 L3450.6 296.397 L3450.6 292.994 Z" fill="#000000" fill-rule="evenodd" fill-opacity="1" /></svg>
