<?xml version="1.0" encoding="utf-8"?>
<svg xmlns="http://www.w3.org/2000/svg" xmlns:xlink="http://www.w3.org/1999/xlink" width="600" height="300" viewBox="0 0 2400 1200">
<defs>
  <clipPath id="clip580">
    <rect x="0" y="0" width="2400" height="1200"/>
  </clipPath>
</defs>
<path clip-path="url(#clip580)" d="
M0 1200 L2400 1200 L2400 0 L0 0  Z
  " fill="#ffffff" fill-rule="evenodd" fill-opacity="1"/>
<defs>
  <clipPath id="clip581">
    <rect x="480" y="0" width="1681" height="1200"/>
  </clipPath>
</defs>
<path clip-path="url(#clip580)" d="
M207.153 1047.7 L1152.76 1047.7 L1152.76 108.352 L207.153 108.352  Z
  " fill="#ffffff" fill-rule="evenodd" fill-opacity="1"/>
<defs>
  <clipPath id="clip582">
    <rect x="207" y="108" width="947" height="940"/>
  </clipPath>
</defs>
<polyline clip-path="url(#clip582)" style="stroke:#000000; stroke-linecap:round; stroke-linejoin:round; stroke-width:2; stroke-opacity:0.1; fill:none" points="
  361.355,1047.7 361.355,108.352 
  "/>
<polyline clip-path="url(#clip582)" style="stroke:#000000; stroke-linecap:round; stroke-linejoin:round; stroke-width:2; stroke-opacity:0.1; fill:none" points="
  616.235,1047.7 616.235,108.352 
  "/>
<polyline clip-path="url(#clip582)" style="stroke:#000000; stroke-linecap:round; stroke-linejoin:round; stroke-width:2; stroke-opacity:0.1; fill:none" points="
  871.114,1047.7 871.114,108.352 
  "/>
<polyline clip-path="url(#clip582)" style="stroke:#000000; stroke-linecap:round; stroke-linejoin:round; stroke-width:2; stroke-opacity:0.1; fill:none" points="
  1125.99,1047.7 1125.99,108.352 
  "/>
<polyline clip-path="url(#clip580)" style="stroke:#000000; stroke-linecap:round; stroke-linejoin:round; stroke-width:4; stroke-opacity:1; fill:none" points="
  207.153,1047.7 1152.76,1047.7 
  "/>
<polyline clip-path="url(#clip580)" style="stroke:#000000; stroke-linecap:round; stroke-linejoin:round; stroke-width:4; stroke-opacity:1; fill:none" points="
  361.355,1047.7 361.355,1028.8 
  "/>
<polyline clip-path="url(#clip580)" style="stroke:#000000; stroke-linecap:round; stroke-linejoin:round; stroke-width:4; stroke-opacity:1; fill:none" points="
  616.235,1047.7 616.235,1028.8 
  "/>
<polyline clip-path="url(#clip580)" style="stroke:#000000; stroke-linecap:round; stroke-linejoin:round; stroke-width:4; stroke-opacity:1; fill:none" points="
  871.114,1047.7 871.114,1028.8 
  "/>
<polyline clip-path="url(#clip580)" style="stroke:#000000; stroke-linecap:round; stroke-linejoin:round; stroke-width:4; stroke-opacity:1; fill:none" points="
  1125.99,1047.7 1125.99,1028.8 
  "/>
<path clip-path="url(#clip580)" d="M356.008 1106.16 L372.327 1106.16 L372.327 1110.1 L350.383 1110.1 L350.383 1106.16 Q353.045 1103.41 357.628 1098.78 Q362.235 1094.13 363.415 1092.79 Q365.661 1090.26 366.54 1088.53 Q367.443 1086.77 367.443 1085.08 Q367.443 1082.32 365.499 1080.59 Q363.577 1078.85 360.475 1078.85 Q358.276 1078.85 355.823 1079.61 Q353.392 1080.38 350.614 1081.93 L350.614 1077.21 Q353.438 1076.07 355.892 1075.49 Q358.346 1074.91 360.383 1074.91 Q365.753 1074.91 368.948 1077.6 Q372.142 1080.29 372.142 1084.78 Q372.142 1086.91 371.332 1088.83 Q370.545 1090.72 368.438 1093.32 Q367.86 1093.99 364.758 1097.21 Q361.656 1100.4 356.008 1106.16 Z" fill="#000000" fill-rule="evenodd" fill-opacity="1" /><path clip-path="url(#clip580)" d="M619.244 1079.61 L607.438 1098.06 L619.244 1098.06 L619.244 1079.61 M618.017 1075.54 L623.897 1075.54 L623.897 1098.06 L628.827 1098.06 L628.827 1101.95 L623.897 1101.95 L623.897 1110.1 L619.244 1110.1 L619.244 1101.95 L603.642 1101.95 L603.642 1097.44 L618.017 1075.54 Z" fill="#000000" fill-rule="evenodd" fill-opacity="1" /><path clip-path="url(#clip580)" d="M871.519 1090.96 Q868.371 1090.96 866.519 1093.11 Q864.69 1095.26 864.69 1099.01 Q864.69 1102.74 866.519 1104.91 Q868.371 1107.07 871.519 1107.07 Q874.667 1107.07 876.496 1104.91 Q878.348 1102.74 878.348 1099.01 Q878.348 1095.26 876.496 1093.11 Q874.667 1090.96 871.519 1090.96 M880.801 1076.3 L880.801 1080.56 Q879.042 1079.73 877.237 1079.29 Q875.454 1078.85 873.695 1078.85 Q869.065 1078.85 866.612 1081.97 Q864.181 1085.1 863.834 1091.42 Q865.2 1089.41 867.26 1088.34 Q869.32 1087.25 871.797 1087.25 Q877.005 1087.25 880.014 1090.42 Q883.047 1093.57 883.047 1099.01 Q883.047 1104.34 879.899 1107.55 Q876.751 1110.77 871.519 1110.77 Q865.524 1110.77 862.353 1106.19 Q859.181 1101.58 859.181 1092.85 Q859.181 1084.66 863.07 1079.8 Q866.959 1074.91 873.51 1074.91 Q875.269 1074.91 877.052 1075.26 Q878.857 1075.61 880.801 1076.3 Z" fill="#000000" fill-rule="evenodd" fill-opacity="1" /><path clip-path="url(#clip580)" d="M1125.99 1093.69 Q1122.66 1093.69 1120.74 1095.47 Q1118.84 1097.25 1118.84 1100.38 Q1118.84 1103.5 1120.74 1105.29 Q1122.66 1107.07 1125.99 1107.07 Q1129.33 1107.07 1131.25 1105.29 Q1133.17 1103.48 1133.17 1100.38 Q1133.17 1097.25 1131.25 1095.47 Q1129.35 1093.69 1125.99 1093.69 M1121.32 1091.7 Q1118.31 1090.96 1116.62 1088.9 Q1114.95 1086.84 1114.95 1083.87 Q1114.95 1079.73 1117.89 1077.32 Q1120.85 1074.91 1125.99 1074.91 Q1131.16 1074.91 1134.1 1077.32 Q1137.04 1079.73 1137.04 1083.87 Q1137.04 1086.84 1135.35 1088.9 Q1133.68 1090.96 1130.69 1091.7 Q1134.07 1092.48 1135.95 1094.78 Q1137.85 1097.07 1137.85 1100.38 Q1137.85 1105.4 1134.77 1108.09 Q1131.71 1110.77 1125.99 1110.77 Q1120.28 1110.77 1117.2 1108.09 Q1114.14 1105.4 1114.14 1100.38 Q1114.14 1097.07 1116.04 1094.78 Q1117.94 1092.48 1121.32 1091.7 M1119.6 1084.31 Q1119.6 1087 1121.27 1088.5 Q1122.96 1090.01 1125.99 1090.01 Q1129 1090.01 1130.69 1088.5 Q1132.41 1087 1132.41 1084.31 Q1132.41 1081.63 1130.69 1080.12 Q1129 1078.62 1125.99 1078.62 Q1122.96 1078.62 1121.27 1080.12 Q1119.6 1081.63 1119.6 1084.31 Z" fill="#000000" fill-rule="evenodd" fill-opacity="1" /><path clip-path="url(#clip580)" d="M543.744 1163.89 L534.482 1163.89 L531.809 1174.52 L541.134 1174.52 L543.744 1163.89 M538.97 1145.78 L535.66 1158.98 L544.954 1158.98 L548.296 1145.78 L553.388 1145.78 L550.11 1158.98 L560.04 1158.98 L560.04 1163.89 L548.869 1163.89 L546.259 1174.52 L556.38 1174.52 L556.38 1179.39 L545.017 1179.39 L541.707 1192.56 L536.615 1192.56 L539.893 1179.39 L530.567 1179.39 L527.289 1192.56 L522.164 1192.56 L525.475 1179.39 L515.449 1179.39 L515.449 1174.52 L526.652 1174.52 L529.326 1163.89 L519.077 1163.89 L519.077 1158.98 L530.567 1158.98 L533.814 1145.78 L538.97 1145.78 Z" fill="#000000" fill-rule="evenodd" fill-opacity="1" /><path clip-path="url(#clip580)" d="M585.567 1145.04 L625.766 1145.04 L625.766 1150.45 L608.897 1150.45 L608.897 1192.56 L602.436 1192.56 L602.436 1150.45 L585.567 1150.45 L585.567 1145.04 Z" fill="#000000" fill-rule="evenodd" fill-opacity="1" /><path clip-path="url(#clip580)" d="M661.351 1171.05 L661.351 1192.56 L655.494 1192.56 L655.494 1171.24 Q655.494 1166.18 653.521 1163.66 Q651.547 1161.15 647.601 1161.15 Q642.858 1161.15 640.121 1164.17 Q637.384 1167.2 637.384 1172.42 L637.384 1192.56 L631.495 1192.56 L631.495 1143.04 L637.384 1143.04 L637.384 1162.45 Q639.484 1159.24 642.317 1157.65 Q645.182 1156.06 648.906 1156.06 Q655.049 1156.06 658.2 1159.88 Q661.351 1163.66 661.351 1171.05 Z" fill="#000000" fill-rule="evenodd" fill-opacity="1" /><path clip-path="url(#clip580)" d="M693.688 1162.39 Q692.702 1161.82 691.524 1161.56 Q690.378 1161.28 688.978 1161.28 Q684.013 1161.28 681.339 1164.52 Q678.697 1167.74 678.697 1173.79 L678.697 1192.56 L672.809 1192.56 L672.809 1156.92 L678.697 1156.92 L678.697 1162.45 Q680.543 1159.21 683.503 1157.65 Q686.463 1156.06 690.697 1156.06 Q691.301 1156.06 692.033 1156.15 Q692.765 1156.22 693.657 1156.37 L693.688 1162.39 Z" fill="#000000" fill-rule="evenodd" fill-opacity="1" /><path clip-path="url(#clip580)" d="M728.891 1173.28 L728.891 1176.14 L701.964 1176.14 Q702.346 1182.19 705.592 1185.37 Q708.871 1188.52 714.695 1188.52 Q718.069 1188.52 721.22 1187.69 Q724.403 1186.87 727.522 1185.21 L727.522 1190.75 Q724.371 1192.09 721.061 1192.79 Q717.751 1193.49 714.345 1193.49 Q705.815 1193.49 700.818 1188.52 Q695.853 1183.56 695.853 1175.09 Q695.853 1166.34 700.563 1161.21 Q705.306 1156.06 713.327 1156.06 Q720.52 1156.06 724.689 1160.7 Q728.891 1165.32 728.891 1173.28 M723.034 1171.56 Q722.971 1166.75 720.329 1163.89 Q717.719 1161.02 713.39 1161.02 Q708.489 1161.02 705.529 1163.79 Q702.6 1166.56 702.155 1171.59 L723.034 1171.56 Z" fill="#000000" fill-rule="evenodd" fill-opacity="1" /><path clip-path="url(#clip580)" d="M754.704 1174.64 Q747.606 1174.64 744.869 1176.27 Q742.131 1177.89 742.131 1181.81 Q742.131 1184.92 744.168 1186.77 Q746.237 1188.59 749.77 1188.59 Q754.64 1188.59 757.568 1185.15 Q760.528 1181.68 760.528 1175.95 L760.528 1174.64 L754.704 1174.64 M766.385 1172.23 L766.385 1192.56 L760.528 1192.56 L760.528 1187.15 Q758.523 1190.4 755.531 1191.96 Q752.539 1193.49 748.211 1193.49 Q742.736 1193.49 739.49 1190.43 Q736.275 1187.34 736.275 1182.19 Q736.275 1176.17 740.285 1173.12 Q744.328 1170.06 752.317 1170.06 L760.528 1170.06 L760.528 1169.49 Q760.528 1165.45 757.855 1163.25 Q755.213 1161.02 750.407 1161.02 Q747.351 1161.02 744.455 1161.75 Q741.559 1162.49 738.885 1163.95 L738.885 1158.54 Q742.1 1157.3 745.123 1156.69 Q748.147 1156.06 751.012 1156.06 Q758.746 1156.06 762.565 1160.07 Q766.385 1164.08 766.385 1172.23 Z" fill="#000000" fill-rule="evenodd" fill-opacity="1" /><path clip-path="url(#clip580)" d="M801.905 1162.33 L801.905 1143.04 L807.762 1143.04 L807.762 1192.56 L801.905 1192.56 L801.905 1187.22 Q800.059 1190.4 797.227 1191.96 Q794.426 1193.49 790.479 1193.49 Q784.018 1193.49 779.944 1188.33 Q775.902 1183.17 775.902 1174.77 Q775.902 1166.37 779.944 1161.21 Q784.018 1156.06 790.479 1156.06 Q794.426 1156.06 797.227 1157.62 Q800.059 1159.14 801.905 1162.33 M781.949 1174.77 Q781.949 1181.23 784.591 1184.92 Q787.264 1188.59 791.911 1188.59 Q796.558 1188.59 799.232 1184.92 Q801.905 1181.23 801.905 1174.77 Q801.905 1168.31 799.232 1164.65 Q796.558 1160.96 791.911 1160.96 Q787.264 1160.96 784.591 1164.65 Q781.949 1168.31 781.949 1174.77 Z" fill="#000000" fill-rule="evenodd" fill-opacity="1" /><path clip-path="url(#clip580)" d="M842.55 1157.97 L842.55 1163.5 Q840.068 1162.23 837.394 1161.59 Q834.721 1160.96 831.856 1160.96 Q827.496 1160.96 825.299 1162.29 Q823.135 1163.63 823.135 1166.31 Q823.135 1168.34 824.695 1169.52 Q826.254 1170.67 830.965 1171.72 L832.97 1172.16 Q839.208 1173.5 841.818 1175.95 Q844.46 1178.37 844.46 1182.73 Q844.46 1187.69 840.513 1190.59 Q836.599 1193.49 829.724 1193.49 Q826.859 1193.49 823.74 1192.91 Q820.652 1192.37 817.215 1191.26 L817.215 1185.21 Q820.461 1186.9 823.613 1187.76 Q826.764 1188.59 829.851 1188.59 Q833.989 1188.59 836.217 1187.18 Q838.445 1185.75 838.445 1183.17 Q838.445 1180.79 836.821 1179.51 Q835.23 1178.24 829.787 1177.06 L827.75 1176.59 Q822.308 1175.44 819.889 1173.08 Q817.47 1170.7 817.47 1166.56 Q817.47 1161.53 821.034 1158.79 Q824.599 1156.06 831.156 1156.06 Q834.402 1156.06 837.267 1156.53 Q840.132 1157.01 842.55 1157.97 Z" fill="#000000" fill-rule="evenodd" fill-opacity="1" /><polyline clip-path="url(#clip582)" style="stroke:#000000; stroke-linecap:round; stroke-linejoin:round; stroke-width:2; stroke-opacity:0.1; fill:none" points="
  207.153,921.294 1152.76,921.294 
  "/>
<polyline clip-path="url(#clip582)" style="stroke:#000000; stroke-linecap:round; stroke-linejoin:round; stroke-width:2; stroke-opacity:0.1; fill:none" points="
  207.153,741.113 1152.76,741.113 
  "/>
<polyline clip-path="url(#clip582)" style="stroke:#000000; stroke-linecap:round; stroke-linejoin:round; stroke-width:2; stroke-opacity:0.1; fill:none" points="
  207.153,560.932 1152.76,560.932 
  "/>
<polyline clip-path="url(#clip582)" style="stroke:#000000; stroke-linecap:round; stroke-linejoin:round; stroke-width:2; stroke-opacity:0.1; fill:none" points="
  207.153,380.751 1152.76,380.751 
  "/>
<polyline clip-path="url(#clip582)" style="stroke:#000000; stroke-linecap:round; stroke-linejoin:round; stroke-width:2; stroke-opacity:0.1; fill:none" points="
  207.153,200.571 1152.76,200.571 
  "/>
<polyline clip-path="url(#clip580)" style="stroke:#000000; stroke-linecap:round; stroke-linejoin:round; stroke-width:4; stroke-opacity:1; fill:none" points="
  207.153,1047.7 207.153,108.352 
  "/>
<polyline clip-path="url(#clip580)" style="stroke:#000000; stroke-linecap:round; stroke-linejoin:round; stroke-width:4; stroke-opacity:1; fill:none" points="
  207.153,921.294 226.051,921.294 
  "/>
<polyline clip-path="url(#clip580)" style="stroke:#000000; stroke-linecap:round; stroke-linejoin:round; stroke-width:4; stroke-opacity:1; fill:none" points="
  207.153,741.113 226.051,741.113 
  "/>
<polyline clip-path="url(#clip580)" style="stroke:#000000; stroke-linecap:round; stroke-linejoin:round; stroke-width:4; stroke-opacity:1; fill:none" points="
  207.153,560.932 226.051,560.932 
  "/>
<polyline clip-path="url(#clip580)" style="stroke:#000000; stroke-linecap:round; stroke-linejoin:round; stroke-width:4; stroke-opacity:1; fill:none" points="
  207.153,380.751 226.051,380.751 
  "/>
<polyline clip-path="url(#clip580)" style="stroke:#000000; stroke-linecap:round; stroke-linejoin:round; stroke-width:4; stroke-opacity:1; fill:none" points="
  207.153,200.571 226.051,200.571 
  "/>
<path clip-path="url(#clip580)" d="M104.788 934.638 L112.426 934.638 L112.426 908.273 L104.116 909.939 L104.116 905.68 L112.38 904.014 L117.056 904.014 L117.056 934.638 L124.695 934.638 L124.695 938.574 L104.788 938.574 L104.788 934.638 Z" fill="#000000" fill-rule="evenodd" fill-opacity="1" /><path clip-path="url(#clip580)" d="M134.139 932.694 L139.023 932.694 L139.023 938.574 L134.139 938.574 L134.139 932.694 Z" fill="#000000" fill-rule="evenodd" fill-opacity="1" /><path clip-path="url(#clip580)" d="M159.209 907.092 Q155.597 907.092 153.769 910.657 Q151.963 914.199 151.963 921.328 Q151.963 928.435 153.769 931.999 Q155.597 935.541 159.209 935.541 Q162.843 935.541 164.648 931.999 Q166.477 928.435 166.477 921.328 Q166.477 914.199 164.648 910.657 Q162.843 907.092 159.209 907.092 M159.209 903.389 Q165.019 903.389 168.074 907.995 Q171.153 912.578 171.153 921.328 Q171.153 930.055 168.074 934.661 Q165.019 939.245 159.209 939.245 Q153.398 939.245 150.32 934.661 Q147.264 930.055 147.264 921.328 Q147.264 912.578 150.32 907.995 Q153.398 903.389 159.209 903.389 Z" fill="#000000" fill-rule="evenodd" fill-opacity="1" /><path clip-path="url(#clip580)" d="M105.783 754.458 L113.422 754.458 L113.422 728.092 L105.112 729.759 L105.112 725.499 L113.375 723.833 L118.051 723.833 L118.051 754.458 L125.69 754.458 L125.69 758.393 L105.783 758.393 L105.783 754.458 Z" fill="#000000" fill-rule="evenodd" fill-opacity="1" /><path clip-path="url(#clip580)" d="M135.135 752.513 L140.019 752.513 L140.019 758.393 L135.135 758.393 L135.135 752.513 Z" fill="#000000" fill-rule="evenodd" fill-opacity="1" /><path clip-path="url(#clip580)" d="M150.25 723.833 L168.607 723.833 L168.607 727.768 L154.533 727.768 L154.533 736.24 Q155.551 735.893 156.57 735.731 Q157.588 735.546 158.607 735.546 Q164.394 735.546 167.773 738.717 Q171.153 741.888 171.153 747.305 Q171.153 752.884 167.681 755.985 Q164.209 759.064 157.889 759.064 Q155.713 759.064 153.445 758.694 Q151.199 758.323 148.792 757.583 L148.792 752.884 Q150.875 754.018 153.097 754.573 Q155.32 755.129 157.797 755.129 Q161.801 755.129 164.139 753.022 Q166.477 750.916 166.477 747.305 Q166.477 743.694 164.139 741.587 Q161.801 739.481 157.797 739.481 Q155.922 739.481 154.047 739.898 Q152.195 740.314 150.25 741.194 L150.25 723.833 Z" fill="#000000" fill-rule="evenodd" fill-opacity="1" /><path clip-path="url(#clip580)" d="M108.005 574.277 L124.324 574.277 L124.324 578.212 L102.38 578.212 L102.38 574.277 Q105.042 571.522 109.625 566.893 Q114.232 562.24 115.412 560.897 Q117.658 558.374 118.537 556.638 Q119.44 554.879 119.44 553.189 Q119.44 550.434 117.496 548.698 Q115.575 546.962 112.473 546.962 Q110.274 546.962 107.82 547.726 Q105.389 548.49 102.612 550.041 L102.612 545.319 Q105.436 544.185 107.889 543.606 Q110.343 543.027 112.38 543.027 Q117.75 543.027 120.945 545.712 Q124.139 548.397 124.139 552.888 Q124.139 555.018 123.329 556.939 Q122.542 558.837 120.436 561.43 Q119.857 562.101 116.755 565.319 Q113.653 568.513 108.005 574.277 Z" fill="#000000" fill-rule="evenodd" fill-opacity="1" /><path clip-path="url(#clip580)" d="M134.139 572.333 L139.023 572.333 L139.023 578.212 L134.139 578.212 L134.139 572.333 Z" fill="#000000" fill-rule="evenodd" fill-opacity="1" /><path clip-path="url(#clip580)" d="M159.209 546.731 Q155.597 546.731 153.769 550.296 Q151.963 553.837 151.963 560.967 Q151.963 568.073 153.769 571.638 Q155.597 575.18 159.209 575.18 Q162.843 575.18 164.648 571.638 Q166.477 568.073 166.477 560.967 Q166.477 553.837 164.648 550.296 Q162.843 546.731 159.209 546.731 M159.209 543.027 Q165.019 543.027 168.074 547.634 Q171.153 552.217 171.153 560.967 Q171.153 569.694 168.074 574.3 Q165.019 578.883 159.209 578.883 Q153.398 578.883 150.32 574.3 Q147.264 569.694 147.264 560.967 Q147.264 552.217 150.32 547.634 Q153.398 543.027 159.209 543.027 Z" fill="#000000" fill-rule="evenodd" fill-opacity="1" /><path clip-path="url(#clip580)" d="M109 394.096 L125.32 394.096 L125.32 398.031 L103.376 398.031 L103.376 394.096 Q106.038 391.342 110.621 386.712 Q115.227 382.059 116.408 380.717 Q118.653 378.194 119.533 376.457 Q120.436 374.698 120.436 373.008 Q120.436 370.254 118.491 368.518 Q116.57 366.782 113.468 366.782 Q111.269 366.782 108.815 367.545 Q106.385 368.309 103.607 369.86 L103.607 365.138 Q106.431 364.004 108.885 363.425 Q111.338 362.846 113.375 362.846 Q118.746 362.846 121.94 365.532 Q125.135 368.217 125.135 372.707 Q125.135 374.837 124.324 376.758 Q123.537 378.657 121.431 381.249 Q120.852 381.92 117.75 385.138 Q114.649 388.332 109 394.096 Z" fill="#000000" fill-rule="evenodd" fill-opacity="1" /><path clip-path="url(#clip580)" d="M135.135 392.152 L140.019 392.152 L140.019 398.031 L135.135 398.031 L135.135 392.152 Z" fill="#000000" fill-rule="evenodd" fill-opacity="1" /><path clip-path="url(#clip580)" d="M150.25 363.471 L168.607 363.471 L168.607 367.407 L154.533 367.407 L154.533 375.879 Q155.551 375.532 156.57 375.369 Q157.588 375.184 158.607 375.184 Q164.394 375.184 167.773 378.356 Q171.153 381.527 171.153 386.943 Q171.153 392.522 167.681 395.624 Q164.209 398.703 157.889 398.703 Q155.713 398.703 153.445 398.332 Q151.199 397.962 148.792 397.221 L148.792 392.522 Q150.875 393.656 153.097 394.212 Q155.32 394.768 157.797 394.768 Q161.801 394.768 164.139 392.661 Q166.477 390.555 166.477 386.943 Q166.477 383.332 164.139 381.226 Q161.801 379.119 157.797 379.119 Q155.922 379.119 154.047 379.536 Q152.195 379.953 150.25 380.832 L150.25 363.471 Z" fill="#000000" fill-rule="evenodd" fill-opacity="1" /><path clip-path="url(#clip580)" d="M118.144 199.217 Q121.5 199.934 123.375 202.203 Q125.274 204.471 125.274 207.804 Q125.274 212.92 121.755 215.721 Q118.237 218.522 111.755 218.522 Q109.579 218.522 107.264 218.082 Q104.973 217.666 102.519 216.809 L102.519 212.295 Q104.463 213.429 106.778 214.008 Q109.093 214.587 111.616 214.587 Q116.014 214.587 118.306 212.851 Q120.621 211.115 120.621 207.804 Q120.621 204.749 118.468 203.036 Q116.338 201.3 112.519 201.3 L108.491 201.3 L108.491 197.457 L112.704 197.457 Q116.153 197.457 117.982 196.092 Q119.811 194.703 119.811 192.11 Q119.811 189.448 117.912 188.036 Q116.037 186.601 112.519 186.601 Q110.598 186.601 108.399 187.018 Q106.2 187.434 103.561 188.314 L103.561 184.147 Q106.223 183.406 108.538 183.036 Q110.875 182.666 112.936 182.666 Q118.26 182.666 121.362 185.096 Q124.463 187.504 124.463 191.624 Q124.463 194.494 122.82 196.485 Q121.176 198.453 118.144 199.217 Z" fill="#000000" fill-rule="evenodd" fill-opacity="1" /><path clip-path="url(#clip580)" d="M134.139 211.971 L139.023 211.971 L139.023 217.851 L134.139 217.851 L134.139 211.971 Z" fill="#000000" fill-rule="evenodd" fill-opacity="1" /><path clip-path="url(#clip580)" d="M159.209 186.369 Q155.597 186.369 153.769 189.934 Q151.963 193.476 151.963 200.605 Q151.963 207.712 153.769 211.277 Q155.597 214.818 159.209 214.818 Q162.843 214.818 164.648 211.277 Q166.477 207.712 166.477 200.605 Q166.477 193.476 164.648 189.934 Q162.843 186.369 159.209 186.369 M159.209 182.666 Q165.019 182.666 168.074 187.272 Q171.153 191.855 171.153 200.605 Q171.153 209.332 168.074 213.939 Q165.019 218.522 159.209 218.522 Q153.398 218.522 150.32 213.939 Q147.264 209.332 147.264 200.605 Q147.264 191.855 150.32 187.272 Q153.398 182.666 159.209 182.666 Z" fill="#000000" fill-rule="evenodd" fill-opacity="1" /><path clip-path="url(#clip580)" d="M4.60416 707.855 L4.60416 667.655 L10.015 667.655 L10.015 684.524 L52.1242 684.524 L52.1242 690.985 L10.015 690.985 L10.015 707.855 L4.60416 707.855 Z" fill="#000000" fill-rule="evenodd" fill-opacity="1" /><path clip-path="url(#clip580)" d="M16.4762 663.708 L16.4762 657.852 L52.1242 657.852 L52.1242 663.708 L16.4762 663.708 M2.59896 663.708 L2.59896 657.852 L10.015 657.852 L10.015 663.708 L2.59896 663.708 Z" fill="#000000" fill-rule="evenodd" fill-opacity="1" /><path clip-path="url(#clip580)" d="M23.3193 617.843 Q19.3726 615.647 17.4947 612.592 Q15.6168 609.536 15.6168 605.399 Q15.6168 599.829 19.5317 596.805 Q23.4148 593.781 30.6081 593.781 L52.1242 593.781 L52.1242 599.669 L30.799 599.669 Q25.6746 599.669 23.192 601.484 Q20.7094 603.298 20.7094 607.022 Q20.7094 611.573 23.7331 614.215 Q26.7568 616.857 31.9767 616.857 L52.1242 616.857 L52.1242 622.745 L30.799 622.745 Q25.6428 622.745 23.192 624.559 Q20.7094 626.374 20.7094 630.161 Q20.7094 634.649 23.7649 637.291 Q26.7886 639.932 31.9767 639.932 L52.1242 639.932 L52.1242 645.821 L16.4762 645.821 L16.4762 639.932 L22.0144 639.932 Q18.736 637.927 17.1764 635.126 Q15.6168 632.325 15.6168 628.474 Q15.6168 624.591 17.5902 621.886 Q19.5636 619.148 23.3193 617.843 Z" fill="#000000" fill-rule="evenodd" fill-opacity="1" /><path clip-path="url(#clip580)" d="M32.8361 551.608 L35.7006 551.608 L35.7006 578.535 Q41.7481 578.153 44.9309 574.907 Q48.0819 571.628 48.0819 565.804 Q48.0819 562.43 47.2544 559.279 Q46.4269 556.096 44.7718 552.977 L50.3099 552.977 Q51.6467 556.128 52.347 559.438 Q53.0472 562.748 53.0472 566.154 Q53.0472 574.684 48.0819 579.681 Q43.1167 584.646 34.6503 584.646 Q25.8974 584.646 20.7731 579.936 Q15.6168 575.193 15.6168 567.172 Q15.6168 559.979 20.2638 555.81 Q24.8789 551.608 32.8361 551.608 M31.1173 557.465 Q26.3112 557.528 23.4466 560.17 Q20.5821 562.78 20.5821 567.109 Q20.5821 572.01 23.3512 574.97 Q26.1202 577.899 31.1492 578.344 L31.1173 557.465 Z" fill="#000000" fill-rule="evenodd" fill-opacity="1" /><path clip-path="url(#clip580)" d="M2.59896 521.817 L2.59896 508.321 L7.15044 508.321 L7.15044 515.96 L56.1664 515.96 L56.1664 508.321 L60.7179 508.321 L60.7179 521.817 L2.59896 521.817 Z" fill="#000000" fill-rule="evenodd" fill-opacity="1" /><path clip-path="url(#clip580)" d="M17.5265 473.119 L23.0647 473.119 Q21.7916 475.602 21.155 478.275 Q20.5184 480.949 20.5184 483.814 Q20.5184 488.174 21.8552 490.37 Q23.192 492.535 25.8656 492.535 Q27.9026 492.535 29.0803 490.975 Q30.2261 489.415 31.2765 484.705 L31.7221 482.7 Q33.0589 476.461 35.5097 473.851 Q37.9286 471.209 42.2891 471.209 Q47.2544 471.209 50.1508 475.156 Q53.0472 479.071 53.0472 485.946 Q53.0472 488.811 52.4743 491.93 Q51.9332 495.017 50.8192 498.455 L44.7718 498.455 Q46.4587 495.208 47.318 492.057 Q48.1456 488.906 48.1456 485.819 Q48.1456 481.681 46.7451 479.453 Q45.3129 477.225 42.7347 477.225 Q40.3476 477.225 39.0745 478.848 Q37.8013 480.44 36.6237 485.882 L36.1462 487.919 Q35.0004 493.362 32.6451 495.781 Q30.258 498.2 26.1202 498.2 Q21.0913 498.2 18.3541 494.635 Q15.6168 491.07 15.6168 484.514 Q15.6168 481.267 16.0943 478.403 Q16.5717 475.538 17.5265 473.119 Z" fill="#000000" fill-rule="evenodd" fill-opacity="1" /><path clip-path="url(#clip580)" d="M2.59896 448.197 L60.7179 448.197 L60.7179 461.693 L56.1664 461.693 L56.1664 454.086 L7.15044 454.086 L7.15044 461.693 L2.59896 461.693 L2.59896 448.197 Z" fill="#000000" fill-rule="evenodd" fill-opacity="1" /><path clip-path="url(#clip580)" d="M600.192 44.2197 Q602.825 45.1109 605.296 48.0275 Q607.808 50.9442 610.319 56.0483 L618.624 72.576 L609.833 72.576 L602.096 57.061 Q599.098 50.9847 596.263 48.9997 Q593.468 47.0148 588.607 47.0148 L579.695 47.0148 L579.695 72.576 L571.512 72.576 L571.512 12.096 L589.984 12.096 Q600.354 12.096 605.458 16.4305 Q610.562 20.7649 610.562 29.5149 Q610.562 35.2267 607.889 38.994 Q605.256 42.7613 600.192 44.2197 M579.695 18.8205 L579.695 40.2903 L589.984 40.2903 Q595.898 40.2903 598.896 37.5762 Q601.934 34.8216 601.934 29.5149 Q601.934 24.2082 598.896 21.5346 Q595.898 18.8205 589.984 18.8205 L579.695 18.8205 Z" fill="#000000" fill-rule="evenodd" fill-opacity="1" /><path clip-path="url(#clip580)" d="M656.176 34.9026 L708.108 34.9026 L708.108 41.7081 L656.176 41.7081 L656.176 34.9026 M656.176 51.4303 L708.108 51.4303 L708.108 58.3168 L656.176 58.3168 L656.176 51.4303 Z" fill="#000000" fill-rule="evenodd" fill-opacity="1" /><path clip-path="url(#clip580)" d="M753.559 65.6895 L766.927 65.6895 L766.927 19.5497 L752.385 22.4663 L752.385 15.0127 L766.846 12.096 L775.029 12.096 L775.029 65.6895 L788.397 65.6895 L788.397 72.576 L753.559 72.576 L753.559 65.6895 Z" fill="#000000" fill-rule="evenodd" fill-opacity="1" /><polyline clip-path="url(#clip582)" style="stroke:#004991; stroke-linecap:round; stroke-linejoin:round; stroke-width:12; stroke-opacity:1; fill:none" points="
  233.915,134.937 361.355,537.213 616.235,791.417 1125.99,904.682 
  "/>
<circle clip-path="url(#clip582)" cx="233.915" cy="134.937" r="14.4" fill="#004991" fill-rule="evenodd" fill-opacity="1" stroke="none"/>
<circle clip-path="url(#clip582)" cx="361.355" cy="537.213" r="14.4" fill="#004991" fill-rule="evenodd" fill-opacity="1" stroke="none"/>
<circle clip-path="url(#clip582)" cx="616.235" cy="791.417" r="14.4" fill="#004991" fill-rule="evenodd" fill-opacity="1" stroke="none"/>
<circle clip-path="url(#clip582)" cx="1125.99" cy="904.682" r="14.4" fill="#004991" fill-rule="evenodd" fill-opacity="1" stroke="none"/>
<polyline clip-path="url(#clip582)" style="stroke:#4c7fb2; stroke-linecap:round; stroke-linejoin:round; stroke-width:12; stroke-opacity:1; fill:none" points="
  233.915,738.681 361.355,254.732 616.235,706.018 1125.99,808.937 
  "/>
<circle clip-path="url(#clip582)" cx="233.915" cy="738.681" r="14.4" fill="#4c7fb2" fill-rule="evenodd" fill-opacity="1" stroke="none"/>
<circle clip-path="url(#clip582)" cx="361.355" cy="254.732" r="14.4" fill="#4c7fb2" fill-rule="evenodd" fill-opacity="1" stroke="none"/>
<circle clip-path="url(#clip582)" cx="616.235" cy="706.018" r="14.4" fill="#4c7fb2" fill-rule="evenodd" fill-opacity="1" stroke="none"/>
<circle clip-path="url(#clip582)" cx="1125.99" cy="808.937" r="14.4" fill="#4c7fb2" fill-rule="evenodd" fill-opacity="1" stroke="none"/>
<polyline clip-path="url(#clip582)" style="stroke:#ef871e; stroke-linecap:round; stroke-linejoin:round; stroke-width:12; stroke-opacity:1; fill:none" points="
  233.915,416.113 361.355,679.785 616.235,900.562 1125.99,1021.11 
  "/>
<circle clip-path="url(#clip582)" cx="233.915" cy="416.113" r="14.4" fill="#ef871e" fill-rule="evenodd" fill-opacity="1" stroke="none"/>
<circle clip-path="url(#clip582)" cx="361.355" cy="679.785" r="14.4" fill="#ef871e" fill-rule="evenodd" fill-opacity="1" stroke="none"/>
<circle clip-path="url(#clip582)" cx="616.235" cy="900.562" r="14.4" fill="#ef871e" fill-rule="evenodd" fill-opacity="1" stroke="none"/>
<circle clip-path="url(#clip582)" cx="1125.99" cy="1021.11" r="14.4" fill="#ef871e" fill-rule="evenodd" fill-opacity="1" stroke="none"/>
<path clip-path="url(#clip580)" d="
M531.426 347.024 L1121.24 347.024 L1121.24 139.664 L531.426 139.664  Z
  " fill="#ffffff" fill-rule="evenodd" fill-opacity="1"/>
<polyline clip-path="url(#clip580)" style="stroke:#000000; stroke-linecap:round; stroke-linejoin:round; stroke-width:4; stroke-opacity:1; fill:none" points="
  531.426,347.024 1121.24,347.024 1121.24,139.664 531.426,139.664 531.426,347.024 
  "/>
<polyline clip-path="url(#clip580)" style="stroke:#004991; stroke-linecap:round; stroke-linejoin:round; stroke-width:4; stroke-opacity:1; fill:none" points="
  541.933,191.504 604.973,191.504 
  "/>
<circle clip-path="url(#clip580)" cx="573.453" cy="191.504" r="8.75558" fill="#004991" fill-rule="evenodd" fill-opacity="1" stroke="none"/>
<path clip-path="url(#clip580)" d="M620.156 192.279 L620.156 204.941 L627.655 204.941 Q631.429 204.941 633.234 203.39 Q635.063 201.816 635.063 198.599 Q635.063 195.358 633.234 193.83 Q631.429 192.279 627.655 192.279 L620.156 192.279 M620.156 178.066 L620.156 188.483 L627.077 188.483 Q630.503 188.483 632.169 187.21 Q633.859 185.913 633.859 183.275 Q633.859 180.659 632.169 179.363 Q630.503 178.066 627.077 178.066 L620.156 178.066 M615.48 174.224 L627.424 174.224 Q632.771 174.224 635.665 176.446 Q638.558 178.668 638.558 182.765 Q638.558 185.937 637.077 187.812 Q635.595 189.687 632.725 190.15 Q636.174 190.89 638.072 193.251 Q639.993 195.589 639.993 199.108 Q639.993 203.737 636.845 206.261 Q633.697 208.784 627.887 208.784 L615.48 208.784 L615.48 174.224 Z" fill="#000000" fill-rule="evenodd" fill-opacity="1" /><path clip-path="url(#clip580)" d="M659.553 178.83 L653.211 196.029 L665.919 196.029 L659.553 178.83 M656.915 174.224 L662.215 174.224 L675.387 208.784 L670.526 208.784 L667.378 199.918 L651.799 199.918 L648.651 208.784 L643.72 208.784 L656.915 174.224 Z" fill="#000000" fill-rule="evenodd" fill-opacity="1" /><path clip-path="url(#clip580)" d="M696.822 192.58 Q698.326 193.089 699.738 194.756 Q701.174 196.423 702.609 199.339 L707.354 208.784 L702.331 208.784 L697.91 199.918 Q696.197 196.446 694.576 195.312 Q692.979 194.177 690.201 194.177 L685.109 194.177 L685.109 208.784 L680.433 208.784 L680.433 174.224 L690.988 174.224 Q696.914 174.224 699.831 176.701 Q702.748 179.177 702.748 184.177 Q702.748 187.441 701.22 189.594 Q699.715 191.747 696.822 192.58 M685.109 178.066 L685.109 190.335 L690.988 190.335 Q694.368 190.335 696.081 188.784 Q697.817 187.21 697.817 184.177 Q697.817 181.145 696.081 179.617 Q694.368 178.066 690.988 178.066 L685.109 178.066 Z" fill="#000000" fill-rule="evenodd" fill-opacity="1" /><path clip-path="url(#clip580)" d="M705.132 174.224 L734.368 174.224 L734.368 178.159 L722.099 178.159 L722.099 208.784 L717.4 208.784 L717.4 178.159 L705.132 178.159 L705.132 174.224 Z" fill="#000000" fill-rule="evenodd" fill-opacity="1" /><polyline clip-path="url(#clip580)" style="stroke:#4c7fb2; stroke-linecap:round; stroke-linejoin:round; stroke-width:4; stroke-opacity:1; fill:none" points="
  541.933,243.344 604.973,243.344 
  "/>
<circle clip-path="url(#clip580)" cx="573.453" cy="243.344" r="8.75558" fill="#4c7fb2" fill-rule="evenodd" fill-opacity="1" stroke="none"/>
<path clip-path="url(#clip580)" d="M615.48 226.064 L622.447 226.064 L631.267 249.582 L640.132 226.064 L647.1 226.064 L647.1 260.624 L642.54 260.624 L642.54 230.277 L633.628 253.98 L628.929 253.98 L620.017 230.277 L620.017 260.624 L615.48 260.624 L615.48 226.064 Z" fill="#000000" fill-rule="evenodd" fill-opacity="1" /><path clip-path="url(#clip580)" d="M672.771 244.42 Q674.276 244.929 675.688 246.596 Q677.123 248.263 678.558 251.179 L683.303 260.624 L678.28 260.624 L673.859 251.758 Q672.146 248.286 670.526 247.152 Q668.928 246.017 666.151 246.017 L661.058 246.017 L661.058 260.624 L656.382 260.624 L656.382 226.064 L666.938 226.064 Q672.864 226.064 675.78 228.541 Q678.697 231.017 678.697 236.017 Q678.697 239.281 677.169 241.434 Q675.664 243.587 672.771 244.42 M661.058 229.906 L661.058 242.175 L666.938 242.175 Q670.317 242.175 672.03 240.624 Q673.766 239.05 673.766 236.017 Q673.766 232.985 672.03 231.457 Q670.317 229.906 666.938 229.906 L661.058 229.906 Z" fill="#000000" fill-rule="evenodd" fill-opacity="1" /><path clip-path="url(#clip580)" d="M689.322 226.064 L693.998 226.064 L693.998 260.624 L689.322 260.624 L689.322 226.064 Z" fill="#000000" fill-rule="evenodd" fill-opacity="1" /><path clip-path="url(#clip580)" d="M719.692 244.42 Q721.197 244.929 722.609 246.596 Q724.044 248.263 725.479 251.179 L730.224 260.624 L725.201 260.624 L720.78 251.758 Q719.067 248.286 717.447 247.152 Q715.849 246.017 713.072 246.017 L707.979 246.017 L707.979 260.624 L703.303 260.624 L703.303 226.064 L713.859 226.064 Q719.785 226.064 722.701 228.541 Q725.618 231.017 725.618 236.017 Q725.618 239.281 724.09 241.434 Q722.586 243.587 719.692 244.42 M707.979 229.906 L707.979 242.175 L713.859 242.175 Q717.238 242.175 718.951 240.624 Q720.687 239.05 720.687 236.017 Q720.687 232.985 718.951 231.457 Q717.238 229.906 713.859 229.906 L707.979 229.906 Z" fill="#000000" fill-rule="evenodd" fill-opacity="1" /><path clip-path="url(#clip580)" d="M756.104 246.596 L756.104 248.679 L736.521 248.679 Q736.798 253.077 739.16 255.392 Q741.544 257.684 745.78 257.684 Q748.234 257.684 750.525 257.082 Q752.84 256.48 755.109 255.277 L755.109 259.304 Q752.817 260.276 750.409 260.786 Q748.002 261.295 745.525 261.295 Q739.322 261.295 735.687 257.684 Q732.076 254.073 732.076 247.915 Q732.076 241.55 735.502 237.823 Q738.951 234.073 744.784 234.073 Q750.016 234.073 753.048 237.453 Q756.104 240.809 756.104 246.596 M751.845 245.346 Q751.798 241.851 749.877 239.767 Q747.979 237.684 744.831 237.684 Q741.266 237.684 739.113 239.698 Q736.984 241.712 736.66 245.369 L751.845 245.346 Z" fill="#000000" fill-rule="evenodd" fill-opacity="1" /><path clip-path="url(#clip580)" d="M781.752 235.693 L781.752 239.675 Q779.946 238.679 778.118 238.193 Q776.312 237.684 774.46 237.684 Q770.317 237.684 768.025 240.323 Q765.733 242.939 765.733 247.684 Q765.733 252.429 768.025 255.068 Q770.317 257.684 774.46 257.684 Q776.312 257.684 778.118 257.198 Q779.946 256.689 781.752 255.693 L781.752 259.628 Q779.969 260.462 778.048 260.878 Q776.15 261.295 773.997 261.295 Q768.141 261.295 764.692 257.614 Q761.243 253.934 761.243 247.684 Q761.243 241.341 764.715 237.707 Q768.21 234.073 774.275 234.073 Q776.243 234.073 778.118 234.49 Q779.993 234.883 781.752 235.693 Z" fill="#000000" fill-rule="evenodd" fill-opacity="1" /><path clip-path="url(#clip580)" d="M799.206 237.684 Q795.78 237.684 793.789 240.369 Q791.798 243.031 791.798 247.684 Q791.798 252.337 793.766 255.022 Q795.756 257.684 799.206 257.684 Q802.608 257.684 804.599 254.999 Q806.59 252.314 806.59 247.684 Q806.59 243.078 804.599 240.392 Q802.608 237.684 799.206 237.684 M799.206 234.073 Q804.761 234.073 807.932 237.684 Q811.104 241.295 811.104 247.684 Q811.104 254.05 807.932 257.684 Q804.761 261.295 799.206 261.295 Q793.627 261.295 790.456 257.684 Q787.307 254.05 787.307 247.684 Q787.307 241.295 790.456 237.684 Q793.627 234.073 799.206 234.073 Z" fill="#000000" fill-rule="evenodd" fill-opacity="1" /><polyline clip-path="url(#clip580)" style="stroke:#ef871e; stroke-linecap:round; stroke-linejoin:round; stroke-width:4; stroke-opacity:1; fill:none" points="
  541.933,295.184 604.973,295.184 
  "/>
<circle clip-path="url(#clip580)" cx="573.453" cy="295.184" r="8.75558" fill="#ef871e" fill-rule="evenodd" fill-opacity="1" stroke="none"/>
<path clip-path="url(#clip580)" d="M615.48 277.904 L622.447 277.904 L631.267 301.422 L640.132 277.904 L647.1 277.904 L647.1 312.464 L642.54 312.464 L642.54 282.117 L633.628 305.82 L628.929 305.82 L620.017 282.117 L620.017 312.464 L615.48 312.464 L615.48 277.904 Z" fill="#000000" fill-rule="evenodd" fill-opacity="1" /><path clip-path="url(#clip580)" d="M672.771 296.26 Q674.276 296.769 675.688 298.436 Q677.123 300.103 678.558 303.019 L683.303 312.464 L678.28 312.464 L673.859 303.598 Q672.146 300.126 670.526 298.992 Q668.928 297.857 666.151 297.857 L661.058 297.857 L661.058 312.464 L656.382 312.464 L656.382 277.904 L666.938 277.904 Q672.864 277.904 675.78 280.381 Q678.697 282.857 678.697 287.857 Q678.697 291.121 677.169 293.274 Q675.664 295.427 672.771 296.26 M661.058 281.746 L661.058 294.015 L666.938 294.015 Q670.317 294.015 672.03 292.464 Q673.766 290.89 673.766 287.857 Q673.766 284.825 672.03 283.297 Q670.317 281.746 666.938 281.746 L661.058 281.746 Z" fill="#000000" fill-rule="evenodd" fill-opacity="1" /><path clip-path="url(#clip580)" d="M689.322 277.904 L693.998 277.904 L693.998 312.464 L689.322 312.464 L689.322 277.904 Z" fill="#000000" fill-rule="evenodd" fill-opacity="1" /><path clip-path="url(#clip580)" d="M719.692 296.26 Q721.197 296.769 722.609 298.436 Q724.044 300.103 725.479 303.019 L730.224 312.464 L725.201 312.464 L720.78 303.598 Q719.067 300.126 717.447 298.992 Q715.849 297.857 713.072 297.857 L707.979 297.857 L707.979 312.464 L703.303 312.464 L703.303 277.904 L713.859 277.904 Q719.785 277.904 722.701 280.381 Q725.618 282.857 725.618 287.857 Q725.618 291.121 724.09 293.274 Q722.586 295.427 719.692 296.26 M707.979 281.746 L707.979 294.015 L713.859 294.015 Q717.238 294.015 718.951 292.464 Q720.687 290.89 720.687 287.857 Q720.687 284.825 718.951 283.297 Q717.238 281.746 713.859 281.746 L707.979 281.746 Z" fill="#000000" fill-rule="evenodd" fill-opacity="1" /><path clip-path="url(#clip580)" d="M756.104 298.436 L756.104 300.519 L736.521 300.519 Q736.798 304.917 739.16 307.232 Q741.544 309.524 745.78 309.524 Q748.234 309.524 750.525 308.922 Q752.84 308.32 755.109 307.117 L755.109 311.144 Q752.817 312.116 750.409 312.626 Q748.002 313.135 745.525 313.135 Q739.322 313.135 735.687 309.524 Q732.076 305.913 732.076 299.755 Q732.076 293.39 735.502 289.663 Q738.951 285.913 744.784 285.913 Q750.016 285.913 753.048 289.293 Q756.104 292.649 756.104 298.436 M751.845 297.186 Q751.798 293.691 749.877 291.607 Q747.979 289.524 744.831 289.524 Q741.266 289.524 739.113 291.538 Q736.984 293.552 736.66 297.209 L751.845 297.186 Z" fill="#000000" fill-rule="evenodd" fill-opacity="1" /><path clip-path="url(#clip580)" d="M781.752 287.533 L781.752 291.515 Q779.946 290.519 778.118 290.033 Q776.312 289.524 774.46 289.524 Q770.317 289.524 768.025 292.163 Q765.733 294.779 765.733 299.524 Q765.733 304.269 768.025 306.908 Q770.317 309.524 774.46 309.524 Q776.312 309.524 778.118 309.038 Q779.946 308.529 781.752 307.533 L781.752 311.468 Q779.969 312.302 778.048 312.718 Q776.15 313.135 773.997 313.135 Q768.141 313.135 764.692 309.454 Q761.243 305.774 761.243 299.524 Q761.243 293.181 764.715 289.547 Q768.21 285.913 774.275 285.913 Q776.243 285.913 778.118 286.33 Q779.993 286.723 781.752 287.533 Z" fill="#000000" fill-rule="evenodd" fill-opacity="1" /><path clip-path="url(#clip580)" d="M799.206 289.524 Q795.78 289.524 793.789 292.209 Q791.798 294.871 791.798 299.524 Q791.798 304.177 793.766 306.862 Q795.756 309.524 799.206 309.524 Q802.608 309.524 804.599 306.839 Q806.59 304.154 806.59 299.524 Q806.59 294.918 804.599 292.232 Q802.608 289.524 799.206 289.524 M799.206 285.913 Q804.761 285.913 807.932 289.524 Q811.104 293.135 811.104 299.524 Q811.104 305.89 807.932 309.524 Q804.761 313.135 799.206 313.135 Q793.627 313.135 790.456 309.524 Q787.307 305.89 787.307 299.524 Q787.307 293.135 790.456 289.524 Q793.627 285.913 799.206 285.913 Z" fill="#000000" fill-rule="evenodd" fill-opacity="1" /><path clip-path="url(#clip580)" d="M833.418 277.904 L839.715 277.904 L855.039 306.816 L855.039 277.904 L859.576 277.904 L859.576 312.464 L853.279 312.464 L837.955 283.552 L837.955 312.464 L833.418 312.464 L833.418 277.904 Z" fill="#000000" fill-rule="evenodd" fill-opacity="1" /><path clip-path="url(#clip580)" d="M878.742 289.524 Q875.316 289.524 873.325 292.209 Q871.335 294.871 871.335 299.524 Q871.335 304.177 873.302 306.862 Q875.293 309.524 878.742 309.524 Q882.145 309.524 884.136 306.839 Q886.126 304.154 886.126 299.524 Q886.126 294.918 884.136 292.232 Q882.145 289.524 878.742 289.524 M878.742 285.913 Q884.298 285.913 887.469 289.524 Q890.64 293.135 890.64 299.524 Q890.64 305.89 887.469 309.524 Q884.298 313.135 878.742 313.135 Q873.163 313.135 869.992 309.524 Q866.844 305.89 866.844 299.524 Q866.844 293.135 869.992 289.524 Q873.163 285.913 878.742 285.913 Z" fill="#000000" fill-rule="evenodd" fill-opacity="1" /><path clip-path="url(#clip580)" d="M919.251 296.816 L919.251 312.464 L914.992 312.464 L914.992 296.955 Q914.992 293.274 913.557 291.445 Q912.122 289.617 909.251 289.617 Q905.802 289.617 903.811 291.816 Q901.821 294.015 901.821 297.811 L901.821 312.464 L897.538 312.464 L897.538 286.538 L901.821 286.538 L901.821 290.566 Q903.348 288.228 905.409 287.07 Q907.492 285.913 910.2 285.913 Q914.668 285.913 916.96 288.691 Q919.251 291.445 919.251 296.816 Z" fill="#000000" fill-rule="evenodd" fill-opacity="1" /><path clip-path="url(#clip580)" d="M923.14 277.904 L952.376 277.904 L952.376 281.839 L940.108 281.839 L940.108 312.464 L935.408 312.464 L935.408 281.839 L923.14 281.839 L923.14 277.904 Z" fill="#000000" fill-rule="evenodd" fill-opacity="1" /><path clip-path="url(#clip580)" d="M958.695 289.524 Q955.269 289.524 953.279 292.209 Q951.288 294.871 951.288 299.524 Q951.288 304.177 953.256 306.862 Q955.246 309.524 958.695 309.524 Q962.098 309.524 964.089 306.839 Q966.08 304.154 966.08 299.524 Q966.08 294.918 964.089 292.232 Q962.098 289.524 958.695 289.524 M958.695 285.913 Q964.251 285.913 967.422 289.524 Q970.593 293.135 970.593 299.524 Q970.593 305.89 967.422 309.524 Q964.251 313.135 958.695 313.135 Q953.117 313.135 949.945 309.524 Q946.797 305.89 946.797 299.524 Q946.797 293.135 949.945 289.524 Q953.117 285.913 958.695 285.913 Z" fill="#000000" fill-rule="evenodd" fill-opacity="1" /><path clip-path="url(#clip580)" d="M999.829 298.436 L999.829 300.519 L980.246 300.519 Q980.524 304.917 982.885 307.232 Q985.269 309.524 989.505 309.524 Q991.959 309.524 994.251 308.922 Q996.566 308.32 998.834 307.117 L998.834 311.144 Q996.542 312.116 994.135 312.626 Q991.728 313.135 989.251 313.135 Q983.047 313.135 979.413 309.524 Q975.802 305.913 975.802 299.755 Q975.802 293.39 979.228 289.663 Q982.677 285.913 988.51 285.913 Q993.741 285.913 996.774 289.293 Q999.829 292.649 999.829 298.436 M995.57 297.186 Q995.524 293.691 993.603 291.607 Q991.704 289.524 988.556 289.524 Q984.992 289.524 982.839 291.538 Q980.709 293.552 980.385 297.209 L995.57 297.186 Z" fill="#000000" fill-rule="evenodd" fill-opacity="1" /><path clip-path="url(#clip580)" d="M1010.94 308.575 L1010.94 322.325 L1006.66 322.325 L1006.66 286.538 L1010.94 286.538 L1010.94 290.473 Q1012.28 288.158 1014.32 287.047 Q1016.38 285.913 1019.23 285.913 Q1023.95 285.913 1026.89 289.663 Q1029.85 293.413 1029.85 299.524 Q1029.85 305.635 1026.89 309.385 Q1023.95 313.135 1019.23 313.135 Q1016.38 313.135 1014.32 312.024 Q1012.28 310.89 1010.94 308.575 M1025.43 299.524 Q1025.43 294.825 1023.49 292.163 Q1021.57 289.478 1018.19 289.478 Q1014.81 289.478 1012.86 292.163 Q1010.94 294.825 1010.94 299.524 Q1010.94 304.223 1012.86 306.908 Q1014.81 309.57 1018.19 309.57 Q1021.57 309.57 1023.49 306.908 Q1025.43 304.223 1025.43 299.524 Z" fill="#000000" fill-rule="evenodd" fill-opacity="1" /><path clip-path="url(#clip580)" d="M1036.91 276.445 L1041.17 276.445 L1041.17 312.464 L1036.91 312.464 L1036.91 276.445 Z" fill="#000000" fill-rule="evenodd" fill-opacity="1" /><path clip-path="url(#clip580)" d="M1050.08 286.538 L1054.34 286.538 L1054.34 312.464 L1050.08 312.464 L1050.08 286.538 M1050.08 276.445 L1054.34 276.445 L1054.34 281.839 L1050.08 281.839 L1050.08 276.445 Z" fill="#000000" fill-rule="evenodd" fill-opacity="1" /><path clip-path="url(#clip580)" d="M1067.47 279.177 L1067.47 286.538 L1076.24 286.538 L1076.24 289.848 L1067.47 289.848 L1067.47 303.922 Q1067.47 307.093 1068.32 307.996 Q1069.2 308.899 1071.87 308.899 L1076.24 308.899 L1076.24 312.464 L1071.87 312.464 Q1066.94 312.464 1065.06 310.635 Q1063.19 308.783 1063.19 303.922 L1063.19 289.848 L1060.06 289.848 L1060.06 286.538 L1063.19 286.538 L1063.19 279.177 L1067.47 279.177 Z" fill="#000000" fill-rule="evenodd" fill-opacity="1" /><path clip-path="url(#clip580)" d="M1079.99 286.538 L1100.22 286.538 L1100.22 290.427 L1084.2 309.061 L1100.22 309.061 L1100.22 312.464 L1079.41 312.464 L1079.41 308.575 L1095.43 289.941 L1079.99 289.941 L1079.99 286.538 Z" fill="#000000" fill-rule="evenodd" fill-opacity="1" /><path clip-path="url(#clip580)" d="
M1407.15 1047.7 L2352.76 1047.7 L2352.76 108.352 L1407.15 108.352  Z
  " fill="#ffffff" fill-rule="evenodd" fill-opacity="1"/>
<defs>
  <clipPath id="clip583">
    <rect x="1407" y="108" width="947" height="940"/>
  </clipPath>
</defs>
<polyline clip-path="url(#clip583)" style="stroke:#000000; stroke-linecap:round; stroke-linejoin:round; stroke-width:2; stroke-opacity:0.1; fill:none" points="
  1561.36,1047.7 1561.36,108.352 
  "/>
<polyline clip-path="url(#clip583)" style="stroke:#000000; stroke-linecap:round; stroke-linejoin:round; stroke-width:2; stroke-opacity:0.1; fill:none" points="
  1816.23,1047.7 1816.23,108.352 
  "/>
<polyline clip-path="url(#clip583)" style="stroke:#000000; stroke-linecap:round; stroke-linejoin:round; stroke-width:2; stroke-opacity:0.1; fill:none" points="
  2071.11,1047.7 2071.11,108.352 
  "/>
<polyline clip-path="url(#clip583)" style="stroke:#000000; stroke-linecap:round; stroke-linejoin:round; stroke-width:2; stroke-opacity:0.1; fill:none" points="
  2325.99,1047.7 2325.99,108.352 
  "/>
<polyline clip-path="url(#clip580)" style="stroke:#000000; stroke-linecap:round; stroke-linejoin:round; stroke-width:4; stroke-opacity:1; fill:none" points="
  1407.15,1047.7 2352.76,1047.7 
  "/>
<polyline clip-path="url(#clip580)" style="stroke:#000000; stroke-linecap:round; stroke-linejoin:round; stroke-width:4; stroke-opacity:1; fill:none" points="
  1561.36,1047.7 1561.36,1028.8 
  "/>
<polyline clip-path="url(#clip580)" style="stroke:#000000; stroke-linecap:round; stroke-linejoin:round; stroke-width:4; stroke-opacity:1; fill:none" points="
  1816.23,1047.7 1816.23,1028.8 
  "/>
<polyline clip-path="url(#clip580)" style="stroke:#000000; stroke-linecap:round; stroke-linejoin:round; stroke-width:4; stroke-opacity:1; fill:none" points="
  2071.11,1047.7 2071.11,1028.8 
  "/>
<polyline clip-path="url(#clip580)" style="stroke:#000000; stroke-linecap:round; stroke-linejoin:round; stroke-width:4; stroke-opacity:1; fill:none" points="
  2325.99,1047.7 2325.99,1028.8 
  "/>
<path clip-path="url(#clip580)" d="M1556.01 1106.16 L1572.33 1106.16 L1572.33 1110.1 L1550.38 1110.1 L1550.38 1106.16 Q1553.04 1103.41 1557.63 1098.78 Q1562.23 1094.13 1563.42 1092.79 Q1565.66 1090.26 1566.54 1088.53 Q1567.44 1086.77 1567.44 1085.08 Q1567.44 1082.32 1565.5 1080.59 Q1563.58 1078.85 1560.48 1078.85 Q1558.28 1078.85 1555.82 1079.61 Q1553.39 1080.38 1550.61 1081.93 L1550.61 1077.21 Q1553.44 1076.07 1555.89 1075.49 Q1558.35 1074.91 1560.38 1074.91 Q1565.75 1074.91 1568.95 1077.6 Q1572.14 1080.29 1572.14 1084.78 Q1572.14 1086.91 1571.33 1088.83 Q1570.54 1090.72 1568.44 1093.32 Q1567.86 1093.99 1564.76 1097.21 Q1561.66 1100.4 1556.01 1106.16 Z" fill="#000000" fill-rule="evenodd" fill-opacity="1" /><path clip-path="url(#clip580)" d="M1819.24 1079.61 L1807.44 1098.06 L1819.24 1098.06 L1819.24 1079.61 M1818.02 1075.54 L1823.9 1075.54 L1823.9 1098.06 L1828.83 1098.06 L1828.83 1101.95 L1823.9 1101.95 L1823.9 1110.1 L1819.24 1110.1 L1819.24 1101.95 L1803.64 1101.95 L1803.64 1097.44 L1818.02 1075.54 Z" fill="#000000" fill-rule="evenodd" fill-opacity="1" /><path clip-path="url(#clip580)" d="M2071.52 1090.96 Q2068.37 1090.96 2066.52 1093.11 Q2064.69 1095.26 2064.69 1099.01 Q2064.69 1102.74 2066.52 1104.91 Q2068.37 1107.07 2071.52 1107.07 Q2074.67 1107.07 2076.5 1104.91 Q2078.35 1102.74 2078.35 1099.01 Q2078.35 1095.26 2076.5 1093.11 Q2074.67 1090.96 2071.52 1090.96 M2080.8 1076.3 L2080.8 1080.56 Q2079.04 1079.73 2077.24 1079.29 Q2075.45 1078.85 2073.7 1078.85 Q2069.07 1078.85 2066.61 1081.97 Q2064.18 1085.1 2063.83 1091.42 Q2065.2 1089.41 2067.26 1088.34 Q2069.32 1087.25 2071.8 1087.25 Q2077.01 1087.25 2080.01 1090.42 Q2083.05 1093.57 2083.05 1099.01 Q2083.05 1104.34 2079.9 1107.55 Q2076.75 1110.77 2071.52 1110.77 Q2065.52 1110.77 2062.35 1106.19 Q2059.18 1101.58 2059.18 1092.85 Q2059.18 1084.66 2063.07 1079.8 Q2066.96 1074.91 2073.51 1074.91 Q2075.27 1074.91 2077.05 1075.26 Q2078.86 1075.61 2080.8 1076.3 Z" fill="#000000" fill-rule="evenodd" fill-opacity="1" /><path clip-path="url(#clip580)" d="M2325.99 1093.69 Q2322.66 1093.69 2320.74 1095.47 Q2318.84 1097.25 2318.84 1100.38 Q2318.84 1103.5 2320.74 1105.29 Q2322.66 1107.07 2325.99 1107.07 Q2329.33 1107.07 2331.25 1105.29 Q2333.17 1103.48 2333.17 1100.38 Q2333.17 1097.25 2331.25 1095.47 Q2329.35 1093.69 2325.99 1093.69 M2321.32 1091.7 Q2318.31 1090.96 2316.62 1088.9 Q2314.95 1086.84 2314.95 1083.87 Q2314.95 1079.73 2317.89 1077.32 Q2320.85 1074.91 2325.99 1074.91 Q2331.16 1074.91 2334.1 1077.32 Q2337.04 1079.73 2337.04 1083.87 Q2337.04 1086.84 2335.35 1088.9 Q2333.68 1090.96 2330.69 1091.7 Q2334.07 1092.48 2335.95 1094.78 Q2337.85 1097.07 2337.85 1100.38 Q2337.85 1105.4 2334.77 1108.09 Q2331.71 1110.77 2325.99 1110.77 Q2320.28 1110.77 2317.2 1108.09 Q2314.14 1105.4 2314.14 1100.38 Q2314.14 1097.07 2316.04 1094.78 Q2317.94 1092.48 2321.32 1091.7 M2319.6 1084.31 Q2319.6 1087 2321.27 1088.5 Q2322.96 1090.01 2325.99 1090.01 Q2329 1090.01 2330.69 1088.5 Q2332.41 1087 2332.41 1084.31 Q2332.41 1081.63 2330.69 1080.12 Q2329 1078.62 2325.99 1078.62 Q2322.96 1078.62 2321.27 1080.12 Q2319.6 1081.63 2319.6 1084.31 Z" fill="#000000" fill-rule="evenodd" fill-opacity="1" /><path clip-path="url(#clip580)" d="M1743.74 1163.89 L1734.48 1163.89 L1731.81 1174.52 L1741.13 1174.52 L1743.74 1163.89 M1738.97 1145.78 L1735.66 1158.98 L1744.95 1158.98 L1748.3 1145.78 L1753.39 1145.78 L1750.11 1158.98 L1760.04 1158.98 L1760.04 1163.89 L1748.87 1163.89 L1746.26 1174.52 L1756.38 1174.52 L1756.38 1179.39 L1745.02 1179.39 L1741.71 1192.56 L1736.61 1192.56 L1739.89 1179.39 L1730.57 1179.39 L1727.29 1192.56 L1722.16 1192.56 L1725.47 1179.39 L1715.45 1179.39 L1715.45 1174.52 L1726.65 1174.52 L1729.33 1163.89 L1719.08 1163.89 L1719.08 1158.98 L1730.57 1158.98 L1733.81 1145.78 L1738.97 1145.78 Z" fill="#000000" fill-rule="evenodd" fill-opacity="1" /><path clip-path="url(#clip580)" d="M1785.57 1145.04 L1825.77 1145.04 L1825.77 1150.45 L1808.9 1150.45 L1808.9 1192.56 L1802.44 1192.56 L1802.44 1150.45 L1785.57 1150.45 L1785.57 1145.04 Z" fill="#000000" fill-rule="evenodd" fill-opacity="1" /><path clip-path="url(#clip580)" d="M1861.35 1171.05 L1861.35 1192.56 L1855.49 1192.56 L1855.49 1171.24 Q1855.49 1166.18 1853.52 1163.66 Q1851.55 1161.15 1847.6 1161.15 Q1842.86 1161.15 1840.12 1164.17 Q1837.38 1167.2 1837.38 1172.42 L1837.38 1192.56 L1831.5 1192.56 L1831.5 1143.04 L1837.38 1143.04 L1837.38 1162.45 Q1839.48 1159.24 1842.32 1157.65 Q1845.18 1156.06 1848.91 1156.06 Q1855.05 1156.06 1858.2 1159.88 Q1861.35 1163.66 1861.35 1171.05 Z" fill="#000000" fill-rule="evenodd" fill-opacity="1" /><path clip-path="url(#clip580)" d="M1893.69 1162.39 Q1892.7 1161.82 1891.52 1161.56 Q1890.38 1161.28 1888.98 1161.28 Q1884.01 1161.28 1881.34 1164.52 Q1878.7 1167.74 1878.7 1173.79 L1878.7 1192.56 L1872.81 1192.56 L1872.81 1156.92 L1878.7 1156.92 L1878.7 1162.45 Q1880.54 1159.21 1883.5 1157.65 Q1886.46 1156.06 1890.7 1156.06 Q1891.3 1156.06 1892.03 1156.15 Q1892.77 1156.22 1893.66 1156.37 L1893.69 1162.39 Z" fill="#000000" fill-rule="evenodd" fill-opacity="1" /><path clip-path="url(#clip580)" d="M1928.89 1173.28 L1928.89 1176.14 L1901.96 1176.14 Q1902.35 1182.19 1905.59 1185.37 Q1908.87 1188.52 1914.7 1188.52 Q1918.07 1188.52 1921.22 1187.69 Q1924.4 1186.87 1927.52 1185.21 L1927.52 1190.75 Q1924.37 1192.09 1921.06 1192.79 Q1917.75 1193.49 1914.35 1193.49 Q1905.82 1193.49 1900.82 1188.52 Q1895.85 1183.56 1895.85 1175.09 Q1895.85 1166.34 1900.56 1161.21 Q1905.31 1156.06 1913.33 1156.06 Q1920.52 1156.06 1924.69 1160.7 Q1928.89 1165.32 1928.89 1173.28 M1923.03 1171.56 Q1922.97 1166.75 1920.33 1163.89 Q1917.72 1161.02 1913.39 1161.02 Q1908.49 1161.02 1905.53 1163.79 Q1902.6 1166.56 1902.15 1171.59 L1923.03 1171.56 Z" fill="#000000" fill-rule="evenodd" fill-opacity="1" /><path clip-path="url(#clip580)" d="M1954.7 1174.64 Q1947.61 1174.64 1944.87 1176.27 Q1942.13 1177.89 1942.13 1181.81 Q1942.13 1184.92 1944.17 1186.77 Q1946.24 1188.59 1949.77 1188.59 Q1954.64 1188.59 1957.57 1185.15 Q1960.53 1181.68 1960.53 1175.95 L1960.53 1174.64 L1954.7 1174.64 M1966.38 1172.23 L1966.38 1192.56 L1960.53 1192.56 L1960.53 1187.15 Q1958.52 1190.4 1955.53 1191.96 Q1952.54 1193.49 1948.21 1193.49 Q1942.74 1193.49 1939.49 1190.43 Q1936.28 1187.34 1936.28 1182.19 Q1936.28 1176.17 1940.29 1173.12 Q1944.33 1170.06 1952.32 1170.06 L1960.53 1170.06 L1960.53 1169.49 Q1960.53 1165.45 1957.85 1163.25 Q1955.21 1161.02 1950.41 1161.02 Q1947.35 1161.02 1944.45 1161.75 Q1941.56 1162.49 1938.88 1163.95 L1938.88 1158.54 Q1942.1 1157.3 1945.12 1156.69 Q1948.15 1156.06 1951.01 1156.06 Q1958.75 1156.06 1962.57 1160.07 Q1966.38 1164.08 1966.38 1172.23 Z" fill="#000000" fill-rule="evenodd" fill-opacity="1" /><path clip-path="url(#clip580)" d="M2001.91 1162.33 L2001.91 1143.04 L2007.76 1143.04 L2007.76 1192.56 L2001.91 1192.56 L2001.91 1187.22 Q2000.06 1190.4 1997.23 1191.96 Q1994.43 1193.49 1990.48 1193.49 Q1984.02 1193.49 1979.94 1188.33 Q1975.9 1183.17 1975.9 1174.77 Q1975.9 1166.37 1979.94 1161.21 Q1984.02 1156.06 1990.48 1156.06 Q1994.43 1156.06 1997.23 1157.62 Q2000.06 1159.14 2001.91 1162.33 M1981.95 1174.77 Q1981.95 1181.23 1984.59 1184.92 Q1987.26 1188.59 1991.91 1188.59 Q1996.56 1188.59 1999.23 1184.92 Q2001.91 1181.23 2001.91 1174.77 Q2001.91 1168.31 1999.23 1164.65 Q1996.56 1160.96 1991.91 1160.96 Q1987.26 1160.96 1984.59 1164.65 Q1981.95 1168.31 1981.95 1174.77 Z" fill="#000000" fill-rule="evenodd" fill-opacity="1" /><path clip-path="url(#clip580)" d="M2042.55 1157.97 L2042.55 1163.5 Q2040.07 1162.23 2037.39 1161.59 Q2034.72 1160.96 2031.86 1160.96 Q2027.5 1160.96 2025.3 1162.29 Q2023.14 1163.63 2023.14 1166.31 Q2023.14 1168.34 2024.69 1169.52 Q2026.25 1170.67 2030.96 1171.72 L2032.97 1172.16 Q2039.21 1173.5 2041.82 1175.95 Q2044.46 1178.37 2044.46 1182.73 Q2044.46 1187.69 2040.51 1190.59 Q2036.6 1193.49 2029.72 1193.49 Q2026.86 1193.49 2023.74 1192.91 Q2020.65 1192.37 2017.21 1191.26 L2017.21 1185.21 Q2020.46 1186.9 2023.61 1187.76 Q2026.76 1188.59 2029.85 1188.59 Q2033.99 1188.59 2036.22 1187.18 Q2038.44 1185.75 2038.44 1183.17 Q2038.44 1180.79 2036.82 1179.51 Q2035.23 1178.24 2029.79 1177.06 L2027.75 1176.59 Q2022.31 1175.44 2019.89 1173.08 Q2017.47 1170.7 2017.47 1166.56 Q2017.47 1161.53 2021.03 1158.79 Q2024.6 1156.06 2031.16 1156.06 Q2034.4 1156.06 2037.27 1156.53 Q2040.13 1157.01 2042.55 1157.97 Z" fill="#000000" fill-rule="evenodd" fill-opacity="1" /><polyline clip-path="url(#clip583)" style="stroke:#000000; stroke-linecap:round; stroke-linejoin:round; stroke-width:2; stroke-opacity:0.1; fill:none" points="
  1407.15,872.52 2352.76,872.52 
  "/>
<polyline clip-path="url(#clip583)" style="stroke:#000000; stroke-linecap:round; stroke-linejoin:round; stroke-width:2; stroke-opacity:0.1; fill:none" points="
  1407.15,654.528 2352.76,654.528 
  "/>
<polyline clip-path="url(#clip583)" style="stroke:#000000; stroke-linecap:round; stroke-linejoin:round; stroke-width:2; stroke-opacity:0.1; fill:none" points="
  1407.15,436.535 2352.76,436.535 
  "/>
<polyline clip-path="url(#clip583)" style="stroke:#000000; stroke-linecap:round; stroke-linejoin:round; stroke-width:2; stroke-opacity:0.1; fill:none" points="
  1407.15,218.542 2352.76,218.542 
  "/>
<polyline clip-path="url(#clip580)" style="stroke:#000000; stroke-linecap:round; stroke-linejoin:round; stroke-width:4; stroke-opacity:1; fill:none" points="
  1407.15,1047.7 1407.15,108.352 
  "/>
<polyline clip-path="url(#clip580)" style="stroke:#000000; stroke-linecap:round; stroke-linejoin:round; stroke-width:4; stroke-opacity:1; fill:none" points="
  1407.15,872.52 1426.05,872.52 
  "/>
<polyline clip-path="url(#clip580)" style="stroke:#000000; stroke-linecap:round; stroke-linejoin:round; stroke-width:4; stroke-opacity:1; fill:none" points="
  1407.15,654.528 1426.05,654.528 
  "/>
<polyline clip-path="url(#clip580)" style="stroke:#000000; stroke-linecap:round; stroke-linejoin:round; stroke-width:4; stroke-opacity:1; fill:none" points="
  1407.15,436.535 1426.05,436.535 
  "/>
<polyline clip-path="url(#clip580)" style="stroke:#000000; stroke-linecap:round; stroke-linejoin:round; stroke-width:4; stroke-opacity:1; fill:none" points="
  1407.15,218.542 1426.05,218.542 
  "/>
<path clip-path="url(#clip580)" d="M1304.79 885.865 L1312.43 885.865 L1312.43 859.5 L1304.12 861.166 L1304.12 856.907 L1312.38 855.24 L1317.06 855.24 L1317.06 885.865 L1324.69 885.865 L1324.69 889.8 L1304.79 889.8 L1304.79 885.865 Z" fill="#000000" fill-rule="evenodd" fill-opacity="1" /><path clip-path="url(#clip580)" d="M1334.14 883.921 L1339.02 883.921 L1339.02 889.8 L1334.14 889.8 L1334.14 883.921 Z" fill="#000000" fill-rule="evenodd" fill-opacity="1" /><path clip-path="url(#clip580)" d="M1359.21 858.319 Q1355.6 858.319 1353.77 861.884 Q1351.96 865.426 1351.96 872.555 Q1351.96 879.662 1353.77 883.226 Q1355.6 886.768 1359.21 886.768 Q1362.84 886.768 1364.65 883.226 Q1366.48 879.662 1366.48 872.555 Q1366.48 865.426 1364.65 861.884 Q1362.84 858.319 1359.21 858.319 M1359.21 854.615 Q1365.02 854.615 1368.07 859.222 Q1371.15 863.805 1371.15 872.555 Q1371.15 881.282 1368.07 885.888 Q1365.02 890.472 1359.21 890.472 Q1353.4 890.472 1350.32 885.888 Q1347.26 881.282 1347.26 872.555 Q1347.26 863.805 1350.32 859.222 Q1353.4 854.615 1359.21 854.615 Z" fill="#000000" fill-rule="evenodd" fill-opacity="1" /><path clip-path="url(#clip580)" d="M1305.78 667.872 L1313.42 667.872 L1313.42 641.507 L1305.11 643.173 L1305.11 638.914 L1313.38 637.248 L1318.05 637.248 L1318.05 667.872 L1325.69 667.872 L1325.69 671.808 L1305.78 671.808 L1305.78 667.872 Z" fill="#000000" fill-rule="evenodd" fill-opacity="1" /><path clip-path="url(#clip580)" d="M1335.13 665.928 L1340.02 665.928 L1340.02 671.808 L1335.13 671.808 L1335.13 665.928 Z" fill="#000000" fill-rule="evenodd" fill-opacity="1" /><path clip-path="url(#clip580)" d="M1350.25 637.248 L1368.61 637.248 L1368.61 641.183 L1354.53 641.183 L1354.53 649.655 Q1355.55 649.308 1356.57 649.146 Q1357.59 648.96 1358.61 648.96 Q1364.39 648.96 1367.77 652.132 Q1371.15 655.303 1371.15 660.72 Q1371.15 666.298 1367.68 669.4 Q1364.21 672.479 1357.89 672.479 Q1355.71 672.479 1353.44 672.109 Q1351.2 671.738 1348.79 670.997 L1348.79 666.298 Q1350.88 667.433 1353.1 667.988 Q1355.32 668.544 1357.8 668.544 Q1361.8 668.544 1364.14 666.437 Q1366.48 664.331 1366.48 660.72 Q1366.48 657.109 1364.14 655.002 Q1361.8 652.896 1357.8 652.896 Q1355.92 652.896 1354.05 653.312 Q1352.19 653.729 1350.25 654.609 L1350.25 637.248 Z" fill="#000000" fill-rule="evenodd" fill-opacity="1" /><path clip-path="url(#clip580)" d="M1308.01 449.88 L1324.32 449.88 L1324.32 453.815 L1302.38 453.815 L1302.38 449.88 Q1305.04 447.125 1309.63 442.495 Q1314.23 437.843 1315.41 436.5 Q1317.66 433.977 1318.54 432.241 Q1319.44 430.482 1319.44 428.792 Q1319.44 426.037 1317.5 424.301 Q1315.57 422.565 1312.47 422.565 Q1310.27 422.565 1307.82 423.329 Q1305.39 424.093 1302.61 425.644 L1302.61 420.921 Q1305.44 419.787 1307.89 419.208 Q1310.34 418.63 1312.38 418.63 Q1317.75 418.63 1320.94 421.315 Q1324.14 424 1324.14 428.491 Q1324.14 430.62 1323.33 432.542 Q1322.54 434.44 1320.44 437.032 Q1319.86 437.704 1316.76 440.921 Q1313.65 444.116 1308.01 449.88 Z" fill="#000000" fill-rule="evenodd" fill-opacity="1" /><path clip-path="url(#clip580)" d="M1334.14 447.935 L1339.02 447.935 L1339.02 453.815 L1334.14 453.815 L1334.14 447.935 Z" fill="#000000" fill-rule="evenodd" fill-opacity="1" /><path clip-path="url(#clip580)" d="M1359.21 422.333 Q1355.6 422.333 1353.77 425.898 Q1351.96 429.44 1351.96 436.57 Q1351.96 443.676 1353.77 447.241 Q1355.6 450.782 1359.21 450.782 Q1362.84 450.782 1364.65 447.241 Q1366.48 443.676 1366.48 436.57 Q1366.48 429.44 1364.65 425.898 Q1362.84 422.333 1359.21 422.333 M1359.21 418.63 Q1365.02 418.63 1368.07 423.236 Q1371.15 427.82 1371.15 436.57 Q1371.15 445.296 1368.07 449.903 Q1365.02 454.486 1359.21 454.486 Q1353.4 454.486 1350.32 449.903 Q1347.26 445.296 1347.26 436.57 Q1347.26 427.82 1350.32 423.236 Q1353.4 418.63 1359.21 418.63 Z" fill="#000000" fill-rule="evenodd" fill-opacity="1" /><path clip-path="url(#clip580)" d="M1309 231.887 L1325.32 231.887 L1325.32 235.822 L1303.38 235.822 L1303.38 231.887 Q1306.04 229.132 1310.62 224.503 Q1315.23 219.85 1316.41 218.507 Q1318.65 215.984 1319.53 214.248 Q1320.44 212.489 1320.44 210.799 Q1320.44 208.044 1318.49 206.308 Q1316.57 204.572 1313.47 204.572 Q1311.27 204.572 1308.82 205.336 Q1306.38 206.1 1303.61 207.651 L1303.61 202.929 Q1306.43 201.794 1308.88 201.216 Q1311.34 200.637 1313.38 200.637 Q1318.75 200.637 1321.94 203.322 Q1325.13 206.007 1325.13 210.498 Q1325.13 212.628 1324.32 214.549 Q1323.54 216.447 1321.43 219.04 Q1320.85 219.711 1317.75 222.929 Q1314.65 226.123 1309 231.887 Z" fill="#000000" fill-rule="evenodd" fill-opacity="1" /><path clip-path="url(#clip580)" d="M1335.13 229.942 L1340.02 229.942 L1340.02 235.822 L1335.13 235.822 L1335.13 229.942 Z" fill="#000000" fill-rule="evenodd" fill-opacity="1" /><path clip-path="url(#clip580)" d="M1350.25 201.262 L1368.61 201.262 L1368.61 205.197 L1354.53 205.197 L1354.53 213.669 Q1355.55 213.322 1356.57 213.16 Q1357.59 212.975 1358.61 212.975 Q1364.39 212.975 1367.77 216.146 Q1371.15 219.317 1371.15 224.734 Q1371.15 230.313 1367.68 233.415 Q1364.21 236.493 1357.89 236.493 Q1355.71 236.493 1353.44 236.123 Q1351.2 235.753 1348.79 235.012 L1348.79 230.313 Q1350.88 231.447 1353.1 232.003 Q1355.32 232.558 1357.8 232.558 Q1361.8 232.558 1364.14 230.452 Q1366.48 228.345 1366.48 224.734 Q1366.48 221.123 1364.14 219.017 Q1361.8 216.91 1357.8 216.91 Q1355.92 216.91 1354.05 217.327 Q1352.19 217.743 1350.25 218.623 L1350.25 201.262 Z" fill="#000000" fill-rule="evenodd" fill-opacity="1" /><path clip-path="url(#clip580)" d="M1204.6 707.855 L1204.6 667.655 L1210.02 667.655 L1210.02 684.524 L1252.12 684.524 L1252.12 690.985 L1210.02 690.985 L1210.02 707.855 L1204.6 707.855 Z" fill="#000000" fill-rule="evenodd" fill-opacity="1" /><path clip-path="url(#clip580)" d="M1216.48 663.708 L1216.48 657.852 L1252.12 657.852 L1252.12 663.708 L1216.48 663.708 M1202.6 663.708 L1202.6 657.852 L1210.02 657.852 L1210.02 663.708 L1202.6 663.708 Z" fill="#000000" fill-rule="evenodd" fill-opacity="1" /><path clip-path="url(#clip580)" d="M1223.32 617.843 Q1219.37 615.647 1217.49 612.592 Q1215.62 609.536 1215.62 605.399 Q1215.62 599.829 1219.53 596.805 Q1223.41 593.781 1230.61 593.781 L1252.12 593.781 L1252.12 599.669 L1230.8 599.669 Q1225.67 599.669 1223.19 601.484 Q1220.71 603.298 1220.71 607.022 Q1220.71 611.573 1223.73 614.215 Q1226.76 616.857 1231.98 616.857 L1252.12 616.857 L1252.12 622.745 L1230.8 622.745 Q1225.64 622.745 1223.19 624.559 Q1220.71 626.374 1220.71 630.161 Q1220.71 634.649 1223.76 637.291 Q1226.79 639.932 1231.98 639.932 L1252.12 639.932 L1252.12 645.821 L1216.48 645.821 L1216.48 639.932 L1222.01 639.932 Q1218.74 637.927 1217.18 635.126 Q1215.62 632.325 1215.62 628.474 Q1215.62 624.591 1217.59 621.886 Q1219.56 619.148 1223.32 617.843 Z" fill="#000000" fill-rule="evenodd" fill-opacity="1" /><path clip-path="url(#clip580)" d="M1232.84 551.608 L1235.7 551.608 L1235.7 578.535 Q1241.75 578.153 1244.93 574.907 Q1248.08 571.628 1248.08 565.804 Q1248.08 562.43 1247.25 559.279 Q1246.43 556.096 1244.77 552.977 L1250.31 552.977 Q1251.65 556.128 1252.35 559.438 Q1253.05 562.748 1253.05 566.154 Q1253.05 574.684 1248.08 579.681 Q1243.12 584.646 1234.65 584.646 Q1225.9 584.646 1220.77 579.936 Q1215.62 575.193 1215.62 567.172 Q1215.62 559.979 1220.26 555.81 Q1224.88 551.608 1232.84 551.608 M1231.12 557.465 Q1226.31 557.528 1223.45 560.17 Q1220.58 562.78 1220.58 567.109 Q1220.58 572.01 1223.35 574.97 Q1226.12 577.899 1231.15 578.344 L1231.12 557.465 Z" fill="#000000" fill-rule="evenodd" fill-opacity="1" /><path clip-path="url(#clip580)" d="M1202.6 521.817 L1202.6 508.321 L1207.15 508.321 L1207.15 515.96 L1256.17 515.96 L1256.17 508.321 L1260.72 508.321 L1260.72 521.817 L1202.6 521.817 Z" fill="#000000" fill-rule="evenodd" fill-opacity="1" /><path clip-path="url(#clip580)" d="M1217.53 473.119 L1223.06 473.119 Q1221.79 475.602 1221.15 478.275 Q1220.52 480.949 1220.52 483.814 Q1220.52 488.174 1221.86 490.37 Q1223.19 492.535 1225.87 492.535 Q1227.9 492.535 1229.08 490.975 Q1230.23 489.415 1231.28 484.705 L1231.72 482.7 Q1233.06 476.461 1235.51 473.851 Q1237.93 471.209 1242.29 471.209 Q1247.25 471.209 1250.15 475.156 Q1253.05 479.071 1253.05 485.946 Q1253.05 488.811 1252.47 491.93 Q1251.93 495.017 1250.82 498.455 L1244.77 498.455 Q1246.46 495.208 1247.32 492.057 Q1248.15 488.906 1248.15 485.819 Q1248.15 481.681 1246.75 479.453 Q1245.31 477.225 1242.73 477.225 Q1240.35 477.225 1239.07 478.848 Q1237.8 480.44 1236.62 485.882 L1236.15 487.919 Q1235 493.362 1232.65 495.781 Q1230.26 498.2 1226.12 498.2 Q1221.09 498.2 1218.35 494.635 Q1215.62 491.07 1215.62 484.514 Q1215.62 481.267 1216.09 478.403 Q1216.57 475.538 1217.53 473.119 Z" fill="#000000" fill-rule="evenodd" fill-opacity="1" /><path clip-path="url(#clip580)" d="M1202.6 448.197 L1260.72 448.197 L1260.72 461.693 L1256.17 461.693 L1256.17 454.086 L1207.15 454.086 L1207.15 461.693 L1202.6 461.693 L1202.6 448.197 Z" fill="#000000" fill-rule="evenodd" fill-opacity="1" /><path clip-path="url(#clip580)" d="M1798.69 44.2197 Q1801.33 45.1109 1803.8 48.0275 Q1806.31 50.9442 1808.82 56.0483 L1817.12 72.576 L1808.33 72.576 L1800.6 57.061 Q1797.6 50.9847 1794.76 48.9997 Q1791.97 47.0148 1787.11 47.0148 L1778.2 47.0148 L1778.2 72.576 L1770.01 72.576 L1770.01 12.096 L1788.49 12.096 Q1798.86 12.096 1803.96 16.4305 Q1809.06 20.7649 1809.06 29.5149 Q1809.06 35.2267 1806.39 38.994 Q1803.76 42.7613 1798.69 44.2197 M1778.2 18.8205 L1778.2 40.2903 L1788.49 40.2903 Q1794.4 40.2903 1797.4 37.5762 Q1800.44 34.8216 1800.44 29.5149 Q1800.44 24.2082 1797.4 21.5346 Q1794.4 18.8205 1788.49 18.8205 L1778.2 18.8205 Z" fill="#000000" fill-rule="evenodd" fill-opacity="1" /><path clip-path="url(#clip580)" d="M1854.68 34.9026 L1906.61 34.9026 L1906.61 41.7081 L1854.68 41.7081 L1854.68 34.9026 M1854.68 51.4303 L1906.61 51.4303 L1906.61 58.3168 L1854.68 58.3168 L1854.68 51.4303 Z" fill="#000000" fill-rule="evenodd" fill-opacity="1" /><path clip-path="url(#clip580)" d="M1973.13 19.2256 L1952.47 51.5113 L1973.13 51.5113 L1973.13 19.2256 M1970.98 12.096 L1981.27 12.096 L1981.27 51.5113 L1989.9 51.5113 L1989.9 58.3168 L1981.27 58.3168 L1981.27 72.576 L1973.13 72.576 L1973.13 58.3168 L1945.82 58.3168 L1945.82 50.4176 L1970.98 12.096 Z" fill="#000000" fill-rule="evenodd" fill-opacity="1" /><polyline clip-path="url(#clip583)" style="stroke:#004991; stroke-linecap:round; stroke-linejoin:round; stroke-width:12; stroke-opacity:1; fill:none" points="
  1433.92,134.937 1561.36,545.427 1816.23,747.346 2325.99,892.981 
  "/>
<circle clip-path="url(#clip583)" cx="1433.92" cy="134.937" r="14.4" fill="#004991" fill-rule="evenodd" fill-opacity="1" stroke="none"/>
<circle clip-path="url(#clip583)" cx="1561.36" cy="545.427" r="14.4" fill="#004991" fill-rule="evenodd" fill-opacity="1" stroke="none"/>
<circle clip-path="url(#clip583)" cx="1816.23" cy="747.346" r="14.4" fill="#004991" fill-rule="evenodd" fill-opacity="1" stroke="none"/>
<circle clip-path="url(#clip583)" cx="2325.99" cy="892.981" r="14.4" fill="#004991" fill-rule="evenodd" fill-opacity="1" stroke="none"/>
<polyline clip-path="url(#clip583)" style="stroke:#4c7fb2; stroke-linecap:round; stroke-linejoin:round; stroke-width:12; stroke-opacity:1; fill:none" points="
  1433.92,749.578 1561.36,196.651 1816.23,791.642 2325.99,815.96 
  "/>
<circle clip-path="url(#clip583)" cx="1433.92" cy="749.578" r="14.4" fill="#4c7fb2" fill-rule="evenodd" fill-opacity="1" stroke="none"/>
<circle clip-path="url(#clip583)" cx="1561.36" cy="196.651" r="14.4" fill="#4c7fb2" fill-rule="evenodd" fill-opacity="1" stroke="none"/>
<circle clip-path="url(#clip583)" cx="1816.23" cy="791.642" r="14.4" fill="#4c7fb2" fill-rule="evenodd" fill-opacity="1" stroke="none"/>
<circle clip-path="url(#clip583)" cx="2325.99" cy="815.96" r="14.4" fill="#4c7fb2" fill-rule="evenodd" fill-opacity="1" stroke="none"/>
<polyline clip-path="url(#clip583)" style="stroke:#ef871e; stroke-linecap:round; stroke-linejoin:round; stroke-width:12; stroke-opacity:1; fill:none" points="
  1433.92,461.615 1561.36,761.611 1816.23,934.851 2325.99,1021.11 
  "/>
<circle clip-path="url(#clip583)" cx="1433.92" cy="461.615" r="14.4" fill="#ef871e" fill-rule="evenodd" fill-opacity="1" stroke="none"/>
<circle clip-path="url(#clip583)" cx="1561.36" cy="761.611" r="14.4" fill="#ef871e" fill-rule="evenodd" fill-opacity="1" stroke="none"/>
<circle clip-path="url(#clip583)" cx="1816.23" cy="934.851" r="14.4" fill="#ef871e" fill-rule="evenodd" fill-opacity="1" stroke="none"/>
<circle clip-path="url(#clip583)" cx="2325.99" cy="1021.11" r="14.4" fill="#ef871e" fill-rule="evenodd" fill-opacity="1" stroke="none"/>
<path clip-path="url(#clip580)" d="
M1731.43 347.024 L2321.24 347.024 L2321.24 139.664 L1731.43 139.664  Z
  " fill="#ffffff" fill-rule="evenodd" fill-opacity="1"/>
<polyline clip-path="url(#clip580)" style="stroke:#000000; stroke-linecap:round; stroke-linejoin:round; stroke-width:4; stroke-opacity:1; fill:none" points="
  1731.43,347.024 2321.24,347.024 2321.24,139.664 1731.43,139.664 1731.43,347.024 
  "/>
<polyline clip-path="url(#clip580)" style="stroke:#004991; stroke-linecap:round; stroke-linejoin:round; stroke-width:4; stroke-opacity:1; fill:none" points="
  1741.93,191.504 1804.97,191.504 
  "/>
<circle clip-path="url(#clip580)" cx="1773.45" cy="191.504" r="8.75558" fill="#004991" fill-rule="evenodd" fill-opacity="1" stroke="none"/>
<path clip-path="url(#clip580)" d="M1820.16 192.279 L1820.16 204.941 L1827.66 204.941 Q1831.43 204.941 1833.23 203.39 Q1835.06 201.816 1835.06 198.599 Q1835.06 195.358 1833.23 193.83 Q1831.43 192.279 1827.66 192.279 L1820.16 192.279 M1820.16 178.066 L1820.16 188.483 L1827.08 188.483 Q1830.5 188.483 1832.17 187.21 Q1833.86 185.913 1833.86 183.275 Q1833.86 180.659 1832.17 179.363 Q1830.5 178.066 1827.08 178.066 L1820.16 178.066 M1815.48 174.224 L1827.42 174.224 Q1832.77 174.224 1835.66 176.446 Q1838.56 178.668 1838.56 182.765 Q1838.56 185.937 1837.08 187.812 Q1835.6 189.687 1832.72 190.15 Q1836.17 190.89 1838.07 193.251 Q1839.99 195.589 1839.99 199.108 Q1839.99 203.737 1836.85 206.261 Q1833.7 208.784 1827.89 208.784 L1815.48 208.784 L1815.48 174.224 Z" fill="#000000" fill-rule="evenodd" fill-opacity="1" /><path clip-path="url(#clip580)" d="M1859.55 178.83 L1853.21 196.029 L1865.92 196.029 L1859.55 178.83 M1856.91 174.224 L1862.22 174.224 L1875.39 208.784 L1870.53 208.784 L1867.38 199.918 L1851.8 199.918 L1848.65 208.784 L1843.72 208.784 L1856.91 174.224 Z" fill="#000000" fill-rule="evenodd" fill-opacity="1" /><path clip-path="url(#clip580)" d="M1896.82 192.58 Q1898.33 193.089 1899.74 194.756 Q1901.17 196.423 1902.61 199.339 L1907.35 208.784 L1902.33 208.784 L1897.91 199.918 Q1896.2 196.446 1894.58 195.312 Q1892.98 194.177 1890.2 194.177 L1885.11 194.177 L1885.11 208.784 L1880.43 208.784 L1880.43 174.224 L1890.99 174.224 Q1896.91 174.224 1899.83 176.701 Q1902.75 179.177 1902.75 184.177 Q1902.75 187.441 1901.22 189.594 Q1899.72 191.747 1896.82 192.58 M1885.11 178.066 L1885.11 190.335 L1890.99 190.335 Q1894.37 190.335 1896.08 188.784 Q1897.82 187.21 1897.82 184.177 Q1897.82 181.145 1896.08 179.617 Q1894.37 178.066 1890.99 178.066 L1885.11 178.066 Z" fill="#000000" fill-rule="evenodd" fill-opacity="1" /><path clip-path="url(#clip580)" d="M1905.13 174.224 L1934.37 174.224 L1934.37 178.159 L1922.1 178.159 L1922.1 208.784 L1917.4 208.784 L1917.4 178.159 L1905.13 178.159 L1905.13 174.224 Z" fill="#000000" fill-rule="evenodd" fill-opacity="1" /><polyline clip-path="url(#clip580)" style="stroke:#4c7fb2; stroke-linecap:round; stroke-linejoin:round; stroke-width:4; stroke-opacity:1; fill:none" points="
  1741.93,243.344 1804.97,243.344 
  "/>
<circle clip-path="url(#clip580)" cx="1773.45" cy="243.344" r="8.75558" fill="#4c7fb2" fill-rule="evenodd" fill-opacity="1" stroke="none"/>
<path clip-path="url(#clip580)" d="M1815.48 226.064 L1822.45 226.064 L1831.27 249.582 L1840.13 226.064 L1847.1 226.064 L1847.1 260.624 L1842.54 260.624 L1842.54 230.277 L1833.63 253.98 L1828.93 253.98 L1820.02 230.277 L1820.02 260.624 L1815.48 260.624 L1815.48 226.064 Z" fill="#000000" fill-rule="evenodd" fill-opacity="1" /><path clip-path="url(#clip580)" d="M1872.77 244.42 Q1874.28 244.929 1875.69 246.596 Q1877.12 248.263 1878.56 251.179 L1883.3 260.624 L1878.28 260.624 L1873.86 251.758 Q1872.15 248.286 1870.53 247.152 Q1868.93 246.017 1866.15 246.017 L1861.06 246.017 L1861.06 260.624 L1856.38 260.624 L1856.38 226.064 L1866.94 226.064 Q1872.86 226.064 1875.78 228.541 Q1878.7 231.017 1878.7 236.017 Q1878.7 239.281 1877.17 241.434 Q1875.66 243.587 1872.77 244.42 M1861.06 229.906 L1861.06 242.175 L1866.94 242.175 Q1870.32 242.175 1872.03 240.624 Q1873.77 239.05 1873.77 236.017 Q1873.77 232.985 1872.03 231.457 Q1870.32 229.906 1866.94 229.906 L1861.06 229.906 Z" fill="#000000" fill-rule="evenodd" fill-opacity="1" /><path clip-path="url(#clip580)" d="M1889.32 226.064 L1894 226.064 L1894 260.624 L1889.32 260.624 L1889.32 226.064 Z" fill="#000000" fill-rule="evenodd" fill-opacity="1" /><path clip-path="url(#clip580)" d="M1919.69 244.42 Q1921.2 244.929 1922.61 246.596 Q1924.04 248.263 1925.48 251.179 L1930.22 260.624 L1925.2 260.624 L1920.78 251.758 Q1919.07 248.286 1917.45 247.152 Q1915.85 246.017 1913.07 246.017 L1907.98 246.017 L1907.98 260.624 L1903.3 260.624 L1903.3 226.064 L1913.86 226.064 Q1919.78 226.064 1922.7 228.541 Q1925.62 231.017 1925.62 236.017 Q1925.62 239.281 1924.09 241.434 Q1922.59 243.587 1919.69 244.42 M1907.98 229.906 L1907.98 242.175 L1913.86 242.175 Q1917.24 242.175 1918.95 240.624 Q1920.69 239.05 1920.69 236.017 Q1920.69 232.985 1918.95 231.457 Q1917.24 229.906 1913.86 229.906 L1907.98 229.906 Z" fill="#000000" fill-rule="evenodd" fill-opacity="1" /><path clip-path="url(#clip580)" d="M1956.1 246.596 L1956.1 248.679 L1936.52 248.679 Q1936.8 253.077 1939.16 255.392 Q1941.54 257.684 1945.78 257.684 Q1948.23 257.684 1950.53 257.082 Q1952.84 256.48 1955.11 255.277 L1955.11 259.304 Q1952.82 260.276 1950.41 260.786 Q1948 261.295 1945.53 261.295 Q1939.32 261.295 1935.69 257.684 Q1932.08 254.073 1932.08 247.915 Q1932.08 241.55 1935.5 237.823 Q1938.95 234.073 1944.78 234.073 Q1950.02 234.073 1953.05 237.453 Q1956.1 240.809 1956.1 246.596 M1951.84 245.346 Q1951.8 241.851 1949.88 239.767 Q1947.98 237.684 1944.83 237.684 Q1941.27 237.684 1939.11 239.698 Q1936.98 241.712 1936.66 245.369 L1951.84 245.346 Z" fill="#000000" fill-rule="evenodd" fill-opacity="1" /><path clip-path="url(#clip580)" d="M1981.75 235.693 L1981.75 239.675 Q1979.95 238.679 1978.12 238.193 Q1976.31 237.684 1974.46 237.684 Q1970.32 237.684 1968.03 240.323 Q1965.73 242.939 1965.73 247.684 Q1965.73 252.429 1968.03 255.068 Q1970.32 257.684 1974.46 257.684 Q1976.31 257.684 1978.12 257.198 Q1979.95 256.689 1981.75 255.693 L1981.75 259.628 Q1979.97 260.462 1978.05 260.878 Q1976.15 261.295 1974 261.295 Q1968.14 261.295 1964.69 257.614 Q1961.24 253.934 1961.24 247.684 Q1961.24 241.341 1964.71 237.707 Q1968.21 234.073 1974.28 234.073 Q1976.24 234.073 1978.12 234.49 Q1979.99 234.883 1981.75 235.693 Z" fill="#000000" fill-rule="evenodd" fill-opacity="1" /><path clip-path="url(#clip580)" d="M1999.21 237.684 Q1995.78 237.684 1993.79 240.369 Q1991.8 243.031 1991.8 247.684 Q1991.8 252.337 1993.77 255.022 Q1995.76 257.684 1999.21 257.684 Q2002.61 257.684 2004.6 254.999 Q2006.59 252.314 2006.59 247.684 Q2006.59 243.078 2004.6 240.392 Q2002.61 237.684 1999.21 237.684 M1999.21 234.073 Q2004.76 234.073 2007.93 237.684 Q2011.1 241.295 2011.1 247.684 Q2011.1 254.05 2007.93 257.684 Q2004.76 261.295 1999.21 261.295 Q1993.63 261.295 1990.46 257.684 Q1987.31 254.05 1987.31 247.684 Q1987.31 241.295 1990.46 237.684 Q1993.63 234.073 1999.21 234.073 Z" fill="#000000" fill-rule="evenodd" fill-opacity="1" /><polyline clip-path="url(#clip580)" style="stroke:#ef871e; stroke-linecap:round; stroke-linejoin:round; stroke-width:4; stroke-opacity:1; fill:none" points="
  1741.93,295.184 1804.97,295.184 
  "/>
<circle clip-path="url(#clip580)" cx="1773.45" cy="295.184" r="8.75558" fill="#ef871e" fill-rule="evenodd" fill-opacity="1" stroke="none"/>
<path clip-path="url(#clip580)" d="M1815.48 277.904 L1822.45 277.904 L1831.27 301.422 L1840.13 277.904 L1847.1 277.904 L1847.1 312.464 L1842.54 312.464 L1842.54 282.117 L1833.63 305.82 L1828.93 305.82 L1820.02 282.117 L1820.02 312.464 L1815.48 312.464 L1815.48 277.904 Z" fill="#000000" fill-rule="evenodd" fill-opacity="1" /><path clip-path="url(#clip580)" d="M1872.77 296.26 Q1874.28 296.769 1875.69 298.436 Q1877.12 300.103 1878.56 303.019 L1883.3 312.464 L1878.28 312.464 L1873.86 303.598 Q1872.15 300.126 1870.53 298.992 Q1868.93 297.857 1866.15 297.857 L1861.06 297.857 L1861.06 312.464 L1856.38 312.464 L1856.38 277.904 L1866.94 277.904 Q1872.86 277.904 1875.78 280.381 Q1878.7 282.857 1878.7 287.857 Q1878.7 291.121 1877.17 293.274 Q1875.66 295.427 1872.77 296.26 M1861.06 281.746 L1861.06 294.015 L1866.94 294.015 Q1870.32 294.015 1872.03 292.464 Q1873.77 290.89 1873.77 287.857 Q1873.77 284.825 1872.03 283.297 Q1870.32 281.746 1866.94 281.746 L1861.06 281.746 Z" fill="#000000" fill-rule="evenodd" fill-opacity="1" /><path clip-path="url(#clip580)" d="M1889.32 277.904 L1894 277.904 L1894 312.464 L1889.32 312.464 L1889.32 277.904 Z" fill="#000000" fill-rule="evenodd" fill-opacity="1" /><path clip-path="url(#clip580)" d="M1919.69 296.26 Q1921.2 296.769 1922.61 298.436 Q1924.04 300.103 1925.48 303.019 L1930.22 312.464 L1925.2 312.464 L1920.78 303.598 Q1919.07 300.126 1917.45 298.992 Q1915.85 297.857 1913.07 297.857 L1907.98 297.857 L1907.98 312.464 L1903.3 312.464 L1903.3 277.904 L1913.86 277.904 Q1919.78 277.904 1922.7 280.381 Q1925.62 282.857 1925.62 287.857 Q1925.62 291.121 1924.09 293.274 Q1922.59 295.427 1919.69 296.26 M1907.98 281.746 L1907.98 294.015 L1913.86 294.015 Q1917.24 294.015 1918.95 292.464 Q1920.69 290.89 1920.69 287.857 Q1920.69 284.825 1918.95 283.297 Q1917.24 281.746 1913.86 281.746 L1907.98 281.746 Z" fill="#000000" fill-rule="evenodd" fill-opacity="1" /><path clip-path="url(#clip580)" d="M1956.1 298.436 L1956.1 300.519 L1936.52 300.519 Q1936.8 304.917 1939.16 307.232 Q1941.54 309.524 1945.78 309.524 Q1948.23 309.524 1950.53 308.922 Q1952.84 308.32 1955.11 307.117 L1955.11 311.144 Q1952.82 312.116 1950.41 312.626 Q1948 313.135 1945.53 313.135 Q1939.32 313.135 1935.69 309.524 Q1932.08 305.913 1932.08 299.755 Q1932.08 293.39 1935.5 289.663 Q1938.95 285.913 1944.78 285.913 Q1950.02 285.913 1953.05 289.293 Q1956.1 292.649 1956.1 298.436 M1951.84 297.186 Q1951.8 293.691 1949.88 291.607 Q1947.98 289.524 1944.83 289.524 Q1941.27 289.524 1939.11 291.538 Q1936.98 293.552 1936.66 297.209 L1951.84 297.186 Z" fill="#000000" fill-rule="evenodd" fill-opacity="1" /><path clip-path="url(#clip580)" d="M1981.75 287.533 L1981.75 291.515 Q1979.95 290.519 1978.12 290.033 Q1976.31 289.524 1974.46 289.524 Q1970.32 289.524 1968.03 292.163 Q1965.73 294.779 1965.73 299.524 Q1965.73 304.269 1968.03 306.908 Q1970.32 309.524 1974.46 309.524 Q1976.31 309.524 1978.12 309.038 Q1979.95 308.529 1981.75 307.533 L1981.75 311.468 Q1979.97 312.302 1978.05 312.718 Q1976.15 313.135 1974 313.135 Q1968.14 313.135 1964.69 309.454 Q1961.24 305.774 1961.24 299.524 Q1961.24 293.181 1964.71 289.547 Q1968.21 285.913 1974.28 285.913 Q1976.24 285.913 1978.12 286.33 Q1979.99 286.723 1981.75 287.533 Z" fill="#000000" fill-rule="evenodd" fill-opacity="1" /><path clip-path="url(#clip580)" d="M1999.21 289.524 Q1995.78 289.524 1993.79 292.209 Q1991.8 294.871 1991.8 299.524 Q1991.8 304.177 1993.77 306.862 Q1995.76 309.524 1999.21 309.524 Q2002.61 309.524 2004.6 306.839 Q2006.59 304.154 2006.59 299.524 Q2006.59 294.918 2004.6 292.232 Q2002.61 289.524 1999.21 289.524 M1999.21 285.913 Q2004.76 285.913 2007.93 289.524 Q2011.1 293.135 2011.1 299.524 Q2011.1 305.89 2007.93 309.524 Q2004.76 313.135 1999.21 313.135 Q1993.63 313.135 1990.46 309.524 Q1987.31 305.89 1987.31 299.524 Q1987.31 293.135 1990.46 289.524 Q1993.63 285.913 1999.21 285.913 Z" fill="#000000" fill-rule="evenodd" fill-opacity="1" /><path clip-path="url(#clip580)" d="M2033.42 277.904 L2039.71 277.904 L2055.04 306.816 L2055.04 277.904 L2059.58 277.904 L2059.58 312.464 L2053.28 312.464 L2037.96 283.552 L2037.96 312.464 L2033.42 312.464 L2033.42 277.904 Z" fill="#000000" fill-rule="evenodd" fill-opacity="1" /><path clip-path="url(#clip580)" d="M2078.74 289.524 Q2075.32 289.524 2073.33 292.209 Q2071.33 294.871 2071.33 299.524 Q2071.33 304.177 2073.3 306.862 Q2075.29 309.524 2078.74 309.524 Q2082.14 309.524 2084.14 306.839 Q2086.13 304.154 2086.13 299.524 Q2086.13 294.918 2084.14 292.232 Q2082.14 289.524 2078.74 289.524 M2078.74 285.913 Q2084.3 285.913 2087.47 289.524 Q2090.64 293.135 2090.64 299.524 Q2090.64 305.89 2087.47 309.524 Q2084.3 313.135 2078.74 313.135 Q2073.16 313.135 2069.99 309.524 Q2066.84 305.89 2066.84 299.524 Q2066.84 293.135 2069.99 289.524 Q2073.16 285.913 2078.74 285.913 Z" fill="#000000" fill-rule="evenodd" fill-opacity="1" /><path clip-path="url(#clip580)" d="M2119.25 296.816 L2119.25 312.464 L2114.99 312.464 L2114.99 296.955 Q2114.99 293.274 2113.56 291.445 Q2112.12 289.617 2109.25 289.617 Q2105.8 289.617 2103.81 291.816 Q2101.82 294.015 2101.82 297.811 L2101.82 312.464 L2097.54 312.464 L2097.54 286.538 L2101.82 286.538 L2101.82 290.566 Q2103.35 288.228 2105.41 287.07 Q2107.49 285.913 2110.2 285.913 Q2114.67 285.913 2116.96 288.691 Q2119.25 291.445 2119.25 296.816 Z" fill="#000000" fill-rule="evenodd" fill-opacity="1" /><path clip-path="url(#clip580)" d="M2123.14 277.904 L2152.38 277.904 L2152.38 281.839 L2140.11 281.839 L2140.11 312.464 L2135.41 312.464 L2135.41 281.839 L2123.14 281.839 L2123.14 277.904 Z" fill="#000000" fill-rule="evenodd" fill-opacity="1" /><path clip-path="url(#clip580)" d="M2158.7 289.524 Q2155.27 289.524 2153.28 292.209 Q2151.29 294.871 2151.29 299.524 Q2151.29 304.177 2153.26 306.862 Q2155.25 309.524 2158.7 309.524 Q2162.1 309.524 2164.09 306.839 Q2166.08 304.154 2166.08 299.524 Q2166.08 294.918 2164.09 292.232 Q2162.1 289.524 2158.7 289.524 M2158.7 285.913 Q2164.25 285.913 2167.42 289.524 Q2170.59 293.135 2170.59 299.524 Q2170.59 305.89 2167.42 309.524 Q2164.25 313.135 2158.7 313.135 Q2153.12 313.135 2149.95 309.524 Q2146.8 305.89 2146.8 299.524 Q2146.8 293.135 2149.95 289.524 Q2153.12 285.913 2158.7 285.913 Z" fill="#000000" fill-rule="evenodd" fill-opacity="1" /><path clip-path="url(#clip580)" d="M2199.83 298.436 L2199.83 300.519 L2180.25 300.519 Q2180.52 304.917 2182.89 307.232 Q2185.27 309.524 2189.51 309.524 Q2191.96 309.524 2194.25 308.922 Q2196.57 308.32 2198.83 307.117 L2198.83 311.144 Q2196.54 312.116 2194.14 312.626 Q2191.73 313.135 2189.25 313.135 Q2183.05 313.135 2179.41 309.524 Q2175.8 305.913 2175.8 299.755 Q2175.8 293.39 2179.23 289.663 Q2182.68 285.913 2188.51 285.913 Q2193.74 285.913 2196.77 289.293 Q2199.83 292.649 2199.83 298.436 M2195.57 297.186 Q2195.52 293.691 2193.6 291.607 Q2191.7 289.524 2188.56 289.524 Q2184.99 289.524 2182.84 291.538 Q2180.71 293.552 2180.39 297.209 L2195.57 297.186 Z" fill="#000000" fill-rule="evenodd" fill-opacity="1" /><path clip-path="url(#clip580)" d="M2210.94 308.575 L2210.94 322.325 L2206.66 322.325 L2206.66 286.538 L2210.94 286.538 L2210.94 290.473 Q2212.28 288.158 2214.32 287.047 Q2216.38 285.913 2219.23 285.913 Q2223.95 285.913 2226.89 289.663 Q2229.85 293.413 2229.85 299.524 Q2229.85 305.635 2226.89 309.385 Q2223.95 313.135 2219.23 313.135 Q2216.38 313.135 2214.32 312.024 Q2212.28 310.89 2210.94 308.575 M2225.43 299.524 Q2225.43 294.825 2223.49 292.163 Q2221.57 289.478 2218.19 289.478 Q2214.81 289.478 2212.86 292.163 Q2210.94 294.825 2210.94 299.524 Q2210.94 304.223 2212.86 306.908 Q2214.81 309.57 2218.19 309.57 Q2221.57 309.57 2223.49 306.908 Q2225.43 304.223 2225.43 299.524 Z" fill="#000000" fill-rule="evenodd" fill-opacity="1" /><path clip-path="url(#clip580)" d="M2236.91 276.445 L2241.17 276.445 L2241.17 312.464 L2236.91 312.464 L2236.91 276.445 Z" fill="#000000" fill-rule="evenodd" fill-opacity="1" /><path clip-path="url(#clip580)" d="M2250.08 286.538 L2254.34 286.538 L2254.34 312.464 L2250.08 312.464 L2250.08 286.538 M2250.08 276.445 L2254.34 276.445 L2254.34 281.839 L2250.08 281.839 L2250.08 276.445 Z" fill="#000000" fill-rule="evenodd" fill-opacity="1" /><path clip-path="url(#clip580)" d="M2267.47 279.177 L2267.47 286.538 L2276.24 286.538 L2276.24 289.848 L2267.47 289.848 L2267.47 303.922 Q2267.47 307.093 2268.32 307.996 Q2269.2 308.899 2271.87 308.899 L2276.24 308.899 L2276.24 312.464 L2271.87 312.464 Q2266.94 312.464 2265.06 310.635 Q2263.19 308.783 2263.19 303.922 L2263.19 289.848 L2260.06 289.848 L2260.06 286.538 L2263.19 286.538 L2263.19 279.177 L2267.47 279.177 Z" fill="#000000" fill-rule="evenodd" fill-opacity="1" /><path clip-path="url(#clip580)" d="M2279.99 286.538 L2300.22 286.538 L2300.22 290.427 L2284.2 309.061 L2300.22 309.061 L2300.22 312.464 L2279.41 312.464 L2279.41 308.575 L2295.43 289.941 L2279.99 289.941 L2279.99 286.538 Z" fill="#000000" fill-rule="evenodd" fill-opacity="1" /></svg>
