<?xml version="1.0" encoding="utf-8"?>
<svg xmlns="http://www.w3.org/2000/svg" xmlns:xlink="http://www.w3.org/1999/xlink" width="600" height="400" viewBox="0 0 2400 1600">
<defs>
  <clipPath id="clip700">
    <rect x="0" y="0" width="2400" height="1600"/>
  </clipPath>
</defs>
<path clip-path="url(#clip700)" d="
M0 1600 L2400 1600 L2400 0 L0 0  Z
  " fill="#ffffff" fill-rule="evenodd" fill-opacity="1"/>
<defs>
  <clipPath id="clip701">
    <rect x="480" y="0" width="1681" height="1600"/>
  </clipPath>
</defs>
<path clip-path="url(#clip700)" d="
M203.964 1423.18 L2352.76 1423.18 L2352.76 47.2441 L203.964 47.2441  Z
  " fill="#ffffff" fill-rule="evenodd" fill-opacity="1"/>
<defs>
  <clipPath id="clip702">
    <rect x="203" y="47" width="2150" height="1377"/>
  </clipPath>
</defs>
<polyline clip-path="url(#clip702)" style="stroke:#000000; stroke-linecap:round; stroke-linejoin:round; stroke-width:2; stroke-opacity:0.1; fill:none" points="
  554.373,1423.18 554.373,47.2441 
  "/>
<polyline clip-path="url(#clip702)" style="stroke:#000000; stroke-linecap:round; stroke-linejoin:round; stroke-width:2; stroke-opacity:0.1; fill:none" points="
  1133.56,1423.18 1133.56,47.2441 
  "/>
<polyline clip-path="url(#clip702)" style="stroke:#000000; stroke-linecap:round; stroke-linejoin:round; stroke-width:2; stroke-opacity:0.1; fill:none" points="
  1712.75,1423.18 1712.75,47.2441 
  "/>
<polyline clip-path="url(#clip702)" style="stroke:#000000; stroke-linecap:round; stroke-linejoin:round; stroke-width:2; stroke-opacity:0.1; fill:none" points="
  2291.94,1423.18 2291.94,47.2441 
  "/>
<polyline clip-path="url(#clip700)" style="stroke:#000000; stroke-linecap:round; stroke-linejoin:round; stroke-width:4; stroke-opacity:1; fill:none" points="
  203.964,1423.18 2352.76,1423.18 
  "/>
<polyline clip-path="url(#clip700)" style="stroke:#000000; stroke-linecap:round; stroke-linejoin:round; stroke-width:4; stroke-opacity:1; fill:none" points="
  554.373,1423.18 554.373,1404.28 
  "/>
<polyline clip-path="url(#clip700)" style="stroke:#000000; stroke-linecap:round; stroke-linejoin:round; stroke-width:4; stroke-opacity:1; fill:none" points="
  1133.56,1423.18 1133.56,1404.28 
  "/>
<polyline clip-path="url(#clip700)" style="stroke:#000000; stroke-linecap:round; stroke-linejoin:round; stroke-width:4; stroke-opacity:1; fill:none" points="
  1712.75,1423.18 1712.75,1404.28 
  "/>
<polyline clip-path="url(#clip700)" style="stroke:#000000; stroke-linecap:round; stroke-linejoin:round; stroke-width:4; stroke-opacity:1; fill:none" points="
  2291.94,1423.18 2291.94,1404.28 
  "/>
<path clip-path="url(#clip700)" d="M549.026 1481.64 L565.345 1481.64 L565.345 1485.58 L543.401 1485.58 L543.401 1481.64 Q546.063 1478.89 550.646 1474.26 Q555.253 1469.61 556.433 1468.27 Q558.679 1465.74 559.558 1464.01 Q560.461 1462.25 560.461 1460.56 Q560.461 1457.8 558.517 1456.07 Q556.595 1454.33 553.493 1454.33 Q551.294 1454.33 548.841 1455.09 Q546.41 1455.86 543.632 1457.41 L543.632 1452.69 Q546.456 1451.55 548.91 1450.97 Q551.364 1450.39 553.401 1450.39 Q558.771 1450.39 561.966 1453.08 Q565.16 1455.77 565.16 1460.26 Q565.16 1462.39 564.35 1464.31 Q563.563 1466.2 561.456 1468.8 Q560.878 1469.47 557.776 1472.69 Q554.674 1475.88 549.026 1481.64 Z" fill="#000000" fill-rule="evenodd" fill-opacity="1" /><path clip-path="url(#clip700)" d="M1136.57 1455.09 L1124.77 1473.54 L1136.57 1473.54 L1136.57 1455.09 M1135.34 1451.02 L1141.22 1451.02 L1141.22 1473.54 L1146.15 1473.54 L1146.15 1477.43 L1141.22 1477.43 L1141.22 1485.58 L1136.57 1485.58 L1136.57 1477.43 L1120.97 1477.43 L1120.97 1472.92 L1135.34 1451.02 Z" fill="#000000" fill-rule="evenodd" fill-opacity="1" /><path clip-path="url(#clip700)" d="M1713.16 1466.44 Q1710.01 1466.44 1708.16 1468.59 Q1706.33 1470.74 1706.33 1474.49 Q1706.33 1478.22 1708.16 1480.39 Q1710.01 1482.55 1713.16 1482.55 Q1716.3 1482.55 1718.13 1480.39 Q1719.99 1478.22 1719.99 1474.49 Q1719.99 1470.74 1718.13 1468.59 Q1716.3 1466.44 1713.16 1466.44 M1722.44 1451.78 L1722.44 1456.04 Q1720.68 1455.21 1718.87 1454.77 Q1717.09 1454.33 1715.33 1454.33 Q1710.7 1454.33 1708.25 1457.45 Q1705.82 1460.58 1705.47 1466.9 Q1706.84 1464.89 1708.9 1463.82 Q1710.96 1462.73 1713.43 1462.73 Q1718.64 1462.73 1721.65 1465.9 Q1724.68 1469.05 1724.68 1474.49 Q1724.68 1479.82 1721.54 1483.03 Q1718.39 1486.25 1713.16 1486.25 Q1707.16 1486.25 1703.99 1481.67 Q1700.82 1477.06 1700.82 1468.33 Q1700.82 1460.14 1704.71 1455.28 Q1708.6 1450.39 1715.15 1450.39 Q1716.91 1450.39 1718.69 1450.74 Q1720.49 1451.09 1722.44 1451.78 Z" fill="#000000" fill-rule="evenodd" fill-opacity="1" /><path clip-path="url(#clip700)" d="M2291.94 1469.17 Q2288.61 1469.17 2286.69 1470.95 Q2284.79 1472.73 2284.79 1475.86 Q2284.79 1478.98 2286.69 1480.77 Q2288.61 1482.55 2291.94 1482.55 Q2295.27 1482.55 2297.2 1480.77 Q2299.12 1478.96 2299.12 1475.86 Q2299.12 1472.73 2297.2 1470.95 Q2295.3 1469.17 2291.94 1469.17 M2287.27 1467.18 Q2284.26 1466.44 2282.57 1464.38 Q2280.9 1462.32 2280.9 1459.35 Q2280.9 1455.21 2283.84 1452.8 Q2286.8 1450.39 2291.94 1450.39 Q2297.1 1450.39 2300.04 1452.8 Q2302.98 1455.21 2302.98 1459.35 Q2302.98 1462.32 2301.29 1464.38 Q2299.63 1466.44 2296.64 1467.18 Q2300.02 1467.96 2301.89 1470.26 Q2303.79 1472.55 2303.79 1475.86 Q2303.79 1480.88 2300.71 1483.57 Q2297.66 1486.25 2291.94 1486.25 Q2286.22 1486.25 2283.14 1483.57 Q2280.09 1480.88 2280.09 1475.86 Q2280.09 1472.55 2281.99 1470.26 Q2283.89 1467.96 2287.27 1467.18 M2285.55 1459.79 Q2285.55 1462.48 2287.22 1463.98 Q2288.91 1465.49 2291.94 1465.49 Q2294.95 1465.49 2296.64 1463.98 Q2298.35 1462.48 2298.35 1459.79 Q2298.35 1457.11 2296.64 1455.6 Q2294.95 1454.1 2291.94 1454.1 Q2288.91 1454.1 2287.22 1455.6 Q2285.55 1457.11 2285.55 1459.79 Z" fill="#000000" fill-rule="evenodd" fill-opacity="1" /><path clip-path="url(#clip700)" d="M1142.15 1539.37 L1132.89 1539.37 L1130.21 1550 L1139.54 1550 L1142.15 1539.37 M1137.38 1521.26 L1134.07 1534.46 L1143.36 1534.46 L1146.7 1521.26 L1151.79 1521.26 L1148.52 1534.46 L1158.45 1534.46 L1158.45 1539.37 L1147.27 1539.37 L1144.66 1550 L1154.79 1550 L1154.79 1554.87 L1143.42 1554.87 L1140.11 1568.04 L1135.02 1568.04 L1138.3 1554.87 L1128.97 1554.87 L1125.69 1568.04 L1120.57 1568.04 L1123.88 1554.87 L1113.85 1554.87 L1113.85 1550 L1125.06 1550 L1127.73 1539.37 L1117.48 1539.37 L1117.48 1534.46 L1128.97 1534.46 L1132.22 1521.26 L1137.38 1521.26 Z" fill="#000000" fill-rule="evenodd" fill-opacity="1" /><path clip-path="url(#clip700)" d="M1183.97 1520.52 L1224.17 1520.52 L1224.17 1525.93 L1207.3 1525.93 L1207.3 1568.04 L1200.84 1568.04 L1200.84 1525.93 L1183.97 1525.93 L1183.97 1520.52 Z" fill="#000000" fill-rule="evenodd" fill-opacity="1" /><path clip-path="url(#clip700)" d="M1259.76 1546.53 L1259.76 1568.04 L1253.9 1568.04 L1253.9 1546.72 Q1253.9 1541.66 1251.93 1539.14 Q1249.95 1536.63 1246.01 1536.63 Q1241.26 1536.63 1238.53 1539.65 Q1235.79 1542.68 1235.79 1547.9 L1235.79 1568.04 L1229.9 1568.04 L1229.9 1518.52 L1235.79 1518.52 L1235.79 1537.93 Q1237.89 1534.72 1240.72 1533.13 Q1243.59 1531.54 1247.31 1531.54 Q1253.45 1531.54 1256.6 1535.36 Q1259.76 1539.14 1259.76 1546.53 Z" fill="#000000" fill-rule="evenodd" fill-opacity="1" /><path clip-path="url(#clip700)" d="M1292.09 1537.87 Q1291.11 1537.3 1289.93 1537.04 Q1288.78 1536.76 1287.38 1536.76 Q1282.42 1536.76 1279.74 1540 Q1277.1 1543.22 1277.1 1549.27 L1277.1 1568.04 L1271.21 1568.04 L1271.21 1532.4 L1277.1 1532.4 L1277.1 1537.93 Q1278.95 1534.69 1281.91 1533.13 Q1284.87 1531.54 1289.1 1531.54 Q1289.71 1531.54 1290.44 1531.63 Q1291.17 1531.7 1292.06 1531.85 L1292.09 1537.87 Z" fill="#000000" fill-rule="evenodd" fill-opacity="1" /><path clip-path="url(#clip700)" d="M1327.3 1548.76 L1327.3 1551.62 L1300.37 1551.62 Q1300.75 1557.67 1304 1560.85 Q1307.28 1564 1313.1 1564 Q1316.47 1564 1319.63 1563.17 Q1322.81 1562.35 1325.93 1560.69 L1325.93 1566.23 Q1322.78 1567.57 1319.47 1568.27 Q1316.16 1568.97 1312.75 1568.97 Q1304.22 1568.97 1299.22 1564 Q1294.26 1559.04 1294.26 1550.57 Q1294.26 1541.82 1298.97 1536.69 Q1303.71 1531.54 1311.73 1531.54 Q1318.93 1531.54 1323.09 1536.18 Q1327.3 1540.8 1327.3 1548.76 M1321.44 1547.04 Q1321.38 1542.23 1318.73 1539.37 Q1316.12 1536.5 1311.8 1536.5 Q1306.89 1536.5 1303.93 1539.27 Q1301.01 1542.04 1300.56 1547.07 L1321.44 1547.04 Z" fill="#000000" fill-rule="evenodd" fill-opacity="1" /><path clip-path="url(#clip700)" d="M1353.11 1550.12 Q1346.01 1550.12 1343.27 1551.75 Q1340.54 1553.37 1340.54 1557.29 Q1340.54 1560.4 1342.57 1562.25 Q1344.64 1564.07 1348.18 1564.07 Q1353.05 1564.07 1355.97 1560.63 Q1358.93 1557.16 1358.93 1551.43 L1358.93 1550.12 L1353.11 1550.12 M1364.79 1547.71 L1364.79 1568.04 L1358.93 1568.04 L1358.93 1562.63 Q1356.93 1565.88 1353.94 1567.44 Q1350.94 1568.97 1346.62 1568.97 Q1341.14 1568.97 1337.9 1565.91 Q1334.68 1562.82 1334.68 1557.67 Q1334.68 1551.65 1338.69 1548.6 Q1342.73 1545.54 1350.72 1545.54 L1358.93 1545.54 L1358.93 1544.97 Q1358.93 1540.93 1356.26 1538.73 Q1353.62 1536.5 1348.81 1536.5 Q1345.76 1536.5 1342.86 1537.23 Q1339.96 1537.97 1337.29 1539.43 L1337.29 1534.02 Q1340.5 1532.78 1343.53 1532.17 Q1346.55 1531.54 1349.42 1531.54 Q1357.15 1531.54 1360.97 1535.55 Q1364.79 1539.56 1364.79 1547.71 Z" fill="#000000" fill-rule="evenodd" fill-opacity="1" /><path clip-path="url(#clip700)" d="M1400.31 1537.81 L1400.31 1518.52 L1406.17 1518.52 L1406.17 1568.04 L1400.31 1568.04 L1400.31 1562.7 Q1398.46 1565.88 1395.63 1567.44 Q1392.83 1568.97 1388.88 1568.97 Q1382.42 1568.97 1378.35 1563.81 Q1374.31 1558.65 1374.31 1550.25 Q1374.31 1541.85 1378.35 1536.69 Q1382.42 1531.54 1388.88 1531.54 Q1392.83 1531.54 1395.63 1533.1 Q1398.46 1534.62 1400.31 1537.81 M1380.35 1550.25 Q1380.35 1556.71 1383 1560.4 Q1385.67 1564.07 1390.32 1564.07 Q1394.96 1564.07 1397.64 1560.4 Q1400.31 1556.71 1400.31 1550.25 Q1400.31 1543.79 1397.64 1540.13 Q1394.96 1536.44 1390.32 1536.44 Q1385.67 1536.44 1383 1540.13 Q1380.35 1543.79 1380.35 1550.25 Z" fill="#000000" fill-rule="evenodd" fill-opacity="1" /><path clip-path="url(#clip700)" d="M1440.96 1533.45 L1440.96 1538.98 Q1438.47 1537.71 1435.8 1537.07 Q1433.13 1536.44 1430.26 1536.44 Q1425.9 1536.44 1423.7 1537.77 Q1421.54 1539.11 1421.54 1541.79 Q1421.54 1543.82 1423.1 1545 Q1424.66 1546.15 1429.37 1547.2 L1431.38 1547.64 Q1437.61 1548.98 1440.22 1551.43 Q1442.87 1553.85 1442.87 1558.21 Q1442.87 1563.17 1438.92 1566.07 Q1435 1568.97 1428.13 1568.97 Q1425.26 1568.97 1422.15 1568.39 Q1419.06 1567.85 1415.62 1566.74 L1415.62 1560.69 Q1418.87 1562.38 1422.02 1563.24 Q1425.17 1564.07 1428.26 1564.07 Q1432.39 1564.07 1434.62 1562.66 Q1436.85 1561.23 1436.85 1558.65 Q1436.85 1556.27 1435.23 1554.99 Q1433.64 1553.72 1428.19 1552.54 L1426.16 1552.07 Q1420.71 1550.92 1418.29 1548.56 Q1415.87 1546.18 1415.87 1542.04 Q1415.87 1537.01 1419.44 1534.27 Q1423 1531.54 1429.56 1531.54 Q1432.81 1531.54 1435.67 1532.01 Q1438.54 1532.49 1440.96 1533.45 Z" fill="#000000" fill-rule="evenodd" fill-opacity="1" /><polyline clip-path="url(#clip702)" style="stroke:#000000; stroke-linecap:round; stroke-linejoin:round; stroke-width:2; stroke-opacity:0.1; fill:none" points="
  203.964,1133.09 2352.76,1133.09 
  "/>
<polyline clip-path="url(#clip702)" style="stroke:#000000; stroke-linecap:round; stroke-linejoin:round; stroke-width:2; stroke-opacity:0.1; fill:none" points="
  203.964,834.559 2352.76,834.559 
  "/>
<polyline clip-path="url(#clip702)" style="stroke:#000000; stroke-linecap:round; stroke-linejoin:round; stroke-width:2; stroke-opacity:0.1; fill:none" points="
  203.964,536.033 2352.76,536.033 
  "/>
<polyline clip-path="url(#clip702)" style="stroke:#000000; stroke-linecap:round; stroke-linejoin:round; stroke-width:2; stroke-opacity:0.1; fill:none" points="
  203.964,237.507 2352.76,237.507 
  "/>
<polyline clip-path="url(#clip700)" style="stroke:#000000; stroke-linecap:round; stroke-linejoin:round; stroke-width:4; stroke-opacity:1; fill:none" points="
  203.964,1423.18 203.964,47.2441 
  "/>
<polyline clip-path="url(#clip700)" style="stroke:#000000; stroke-linecap:round; stroke-linejoin:round; stroke-width:4; stroke-opacity:1; fill:none" points="
  203.964,1133.09 222.861,1133.09 
  "/>
<polyline clip-path="url(#clip700)" style="stroke:#000000; stroke-linecap:round; stroke-linejoin:round; stroke-width:4; stroke-opacity:1; fill:none" points="
  203.964,834.559 222.861,834.559 
  "/>
<polyline clip-path="url(#clip700)" style="stroke:#000000; stroke-linecap:round; stroke-linejoin:round; stroke-width:4; stroke-opacity:1; fill:none" points="
  203.964,536.033 222.861,536.033 
  "/>
<polyline clip-path="url(#clip700)" style="stroke:#000000; stroke-linecap:round; stroke-linejoin:round; stroke-width:4; stroke-opacity:1; fill:none" points="
  203.964,237.507 222.861,237.507 
  "/>
<path clip-path="url(#clip700)" d="M116.668 1146.43 L124.306 1146.43 L124.306 1120.06 L115.996 1121.73 L115.996 1117.47 L124.26 1115.81 L128.936 1115.81 L128.936 1146.43 L136.575 1146.43 L136.575 1150.37 L116.668 1150.37 L116.668 1146.43 Z" fill="#000000" fill-rule="evenodd" fill-opacity="1" /><path clip-path="url(#clip700)" d="M156.019 1118.88 Q152.408 1118.88 150.579 1122.45 Q148.774 1125.99 148.774 1133.12 Q148.774 1140.23 150.579 1143.79 Q152.408 1147.33 156.019 1147.33 Q159.653 1147.33 161.459 1143.79 Q163.288 1140.23 163.288 1133.12 Q163.288 1125.99 161.459 1122.45 Q159.653 1118.88 156.019 1118.88 M156.019 1115.18 Q161.829 1115.18 164.885 1119.79 Q167.964 1124.37 167.964 1133.12 Q167.964 1141.85 164.885 1146.45 Q161.829 1151.04 156.019 1151.04 Q150.209 1151.04 147.13 1146.45 Q144.075 1141.85 144.075 1133.12 Q144.075 1124.37 147.13 1119.79 Q150.209 1115.18 156.019 1115.18 Z" fill="#000000" fill-rule="evenodd" fill-opacity="1" /><path clip-path="url(#clip700)" d="M117.663 847.904 L125.302 847.904 L125.302 821.539 L116.992 823.205 L116.992 818.946 L125.255 817.279 L129.931 817.279 L129.931 847.904 L137.57 847.904 L137.57 851.839 L117.663 851.839 L117.663 847.904 Z" fill="#000000" fill-rule="evenodd" fill-opacity="1" /><path clip-path="url(#clip700)" d="M147.061 817.279 L165.417 817.279 L165.417 821.215 L151.343 821.215 L151.343 829.687 Q152.362 829.339 153.38 829.177 Q154.399 828.992 155.417 828.992 Q161.204 828.992 164.584 832.164 Q167.964 835.335 167.964 840.751 Q167.964 846.33 164.491 849.432 Q161.019 852.511 154.7 852.511 Q152.524 852.511 150.255 852.14 Q148.01 851.77 145.603 851.029 L145.603 846.33 Q147.686 847.464 149.908 848.02 Q152.13 848.575 154.607 848.575 Q158.612 848.575 160.95 846.469 Q163.288 844.363 163.288 840.751 Q163.288 837.14 160.95 835.034 Q158.612 832.927 154.607 832.927 Q152.732 832.927 150.857 833.344 Q149.005 833.761 147.061 834.64 L147.061 817.279 Z" fill="#000000" fill-rule="evenodd" fill-opacity="1" /><path clip-path="url(#clip700)" d="M119.885 549.378 L136.204 549.378 L136.204 553.313 L114.26 553.313 L114.26 549.378 Q116.922 546.624 121.505 541.994 Q126.112 537.341 127.292 535.999 Q129.538 533.476 130.417 531.739 Q131.32 529.98 131.32 528.29 Q131.32 525.536 129.376 523.8 Q127.455 522.064 124.353 522.064 Q122.154 522.064 119.7 522.827 Q117.269 523.591 114.492 525.142 L114.492 520.42 Q117.316 519.286 119.769 518.707 Q122.223 518.128 124.26 518.128 Q129.63 518.128 132.825 520.814 Q136.019 523.499 136.019 527.989 Q136.019 530.119 135.209 532.04 Q134.422 533.938 132.316 536.531 Q131.737 537.202 128.635 540.42 Q125.533 543.614 119.885 549.378 Z" fill="#000000" fill-rule="evenodd" fill-opacity="1" /><path clip-path="url(#clip700)" d="M156.019 521.832 Q152.408 521.832 150.579 525.397 Q148.774 528.939 148.774 536.068 Q148.774 543.175 150.579 546.739 Q152.408 550.281 156.019 550.281 Q159.653 550.281 161.459 546.739 Q163.288 543.175 163.288 536.068 Q163.288 528.939 161.459 525.397 Q159.653 521.832 156.019 521.832 M156.019 518.128 Q161.829 518.128 164.885 522.735 Q167.964 527.318 167.964 536.068 Q167.964 544.795 164.885 549.401 Q161.829 553.985 156.019 553.985 Q150.209 553.985 147.13 549.401 Q144.075 544.795 144.075 536.068 Q144.075 527.318 147.13 522.735 Q150.209 518.128 156.019 518.128 Z" fill="#000000" fill-rule="evenodd" fill-opacity="1" /><path clip-path="url(#clip700)" d="M120.88 250.852 L137.2 250.852 L137.2 254.787 L115.256 254.787 L115.256 250.852 Q117.918 248.098 122.501 243.468 Q127.107 238.815 128.288 237.473 Q130.533 234.95 131.413 233.213 Q132.316 231.454 132.316 229.764 Q132.316 227.01 130.371 225.274 Q128.45 223.538 125.348 223.538 Q123.149 223.538 120.695 224.301 Q118.265 225.065 115.487 226.616 L115.487 221.894 Q118.311 220.76 120.765 220.181 Q123.218 219.602 125.255 219.602 Q130.626 219.602 133.82 222.288 Q137.015 224.973 137.015 229.463 Q137.015 231.593 136.204 233.514 Q135.417 235.412 133.311 238.005 Q132.732 238.676 129.63 241.894 Q126.529 245.088 120.88 250.852 Z" fill="#000000" fill-rule="evenodd" fill-opacity="1" /><path clip-path="url(#clip700)" d="M147.061 220.227 L165.417 220.227 L165.417 224.163 L151.343 224.163 L151.343 232.635 Q152.362 232.288 153.38 232.125 Q154.399 231.94 155.417 231.94 Q161.204 231.94 164.584 235.112 Q167.964 238.283 167.964 243.699 Q167.964 249.278 164.491 252.38 Q161.019 255.459 154.7 255.459 Q152.524 255.459 150.255 255.088 Q148.01 254.718 145.603 253.977 L145.603 249.278 Q147.686 250.412 149.908 250.968 Q152.13 251.524 154.607 251.524 Q158.612 251.524 160.95 249.417 Q163.288 247.311 163.288 243.699 Q163.288 240.088 160.95 237.982 Q158.612 235.875 154.607 235.875 Q152.732 235.875 150.857 236.292 Q149.005 236.709 147.061 237.588 L147.061 220.227 Z" fill="#000000" fill-rule="evenodd" fill-opacity="1" /><path clip-path="url(#clip700)" d="M16.4842 865.041 L16.4842 824.841 L21.895 824.841 L21.895 841.71 L64.0042 841.71 L64.0042 848.171 L21.895 848.171 L21.895 865.041 L16.4842 865.041 Z" fill="#000000" fill-rule="evenodd" fill-opacity="1" /><path clip-path="url(#clip700)" d="M28.3562 820.894 L28.3562 815.038 L64.0042 815.038 L64.0042 820.894 L28.3562 820.894 M14.479 820.894 L14.479 815.038 L21.895 815.038 L21.895 820.894 L14.479 820.894 Z" fill="#000000" fill-rule="evenodd" fill-opacity="1" /><path clip-path="url(#clip700)" d="M35.1993 775.029 Q31.2526 772.833 29.3747 769.778 Q27.4968 766.722 27.4968 762.585 Q27.4968 757.015 31.4117 753.991 Q35.2948 750.967 42.4881 750.967 L64.0042 750.967 L64.0042 756.855 L42.679 756.855 Q37.5546 756.855 35.072 758.67 Q32.5894 760.484 32.5894 764.208 Q32.5894 768.759 35.6131 771.401 Q38.6368 774.043 43.8567 774.043 L64.0042 774.043 L64.0042 779.931 L42.679 779.931 Q37.5228 779.931 35.072 781.745 Q32.5894 783.56 32.5894 787.347 Q32.5894 791.835 35.6449 794.477 Q38.6686 797.118 43.8567 797.118 L64.0042 797.118 L64.0042 803.007 L28.3562 803.007 L28.3562 797.118 L33.8944 797.118 Q30.616 795.113 29.0564 792.312 Q27.4968 789.511 27.4968 785.66 Q27.4968 781.777 29.4702 779.072 Q31.4436 776.334 35.1993 775.029 Z" fill="#000000" fill-rule="evenodd" fill-opacity="1" /><path clip-path="url(#clip700)" d="M44.7161 708.794 L47.5806 708.794 L47.5806 735.721 Q53.6281 735.339 56.8109 732.093 Q59.9619 728.814 59.9619 722.99 Q59.9619 719.616 59.1344 716.465 Q58.3069 713.282 56.6518 710.163 L62.1899 710.163 Q63.5267 713.314 64.227 716.624 Q64.9272 719.934 64.9272 723.34 Q64.9272 731.87 59.9619 736.867 Q54.9967 741.832 46.5303 741.832 Q37.7774 741.832 32.6531 737.122 Q27.4968 732.379 27.4968 724.358 Q27.4968 717.165 32.1438 712.996 Q36.7589 708.794 44.7161 708.794 M42.9973 714.651 Q38.1912 714.714 35.3266 717.356 Q32.4621 719.966 32.4621 724.295 Q32.4621 729.196 35.2312 732.156 Q38.0002 735.085 43.0292 735.53 L42.9973 714.651 Z" fill="#000000" fill-rule="evenodd" fill-opacity="1" /><path clip-path="url(#clip700)" d="M14.479 679.003 L14.479 665.507 L19.0304 665.507 L19.0304 673.146 L68.0464 673.146 L68.0464 665.507 L72.5979 665.507 L72.5979 679.003 L14.479 679.003 Z" fill="#000000" fill-rule="evenodd" fill-opacity="1" /><path clip-path="url(#clip700)" d="M29.4065 630.305 L34.9447 630.305 Q33.6716 632.788 33.035 635.461 Q32.3984 638.135 32.3984 641 Q32.3984 645.36 33.7352 647.556 Q35.072 649.721 37.7456 649.721 Q39.7826 649.721 40.9603 648.161 Q42.1061 646.601 43.1565 641.891 L43.6021 639.886 Q44.9389 633.647 47.3897 631.037 Q49.8086 628.395 54.1691 628.395 Q59.1344 628.395 62.0308 632.342 Q64.9272 636.257 64.9272 643.132 Q64.9272 645.997 64.3543 649.116 Q63.8132 652.203 62.6992 655.641 L56.6518 655.641 Q58.3387 652.394 59.198 649.243 Q60.0256 646.092 60.0256 643.005 Q60.0256 638.867 58.6251 636.639 Q57.1929 634.411 54.6147 634.411 Q52.2276 634.411 50.9545 636.034 Q49.6813 637.626 48.5037 643.068 L48.0262 645.105 Q46.8804 650.548 44.5251 652.967 Q42.138 655.386 38.0002 655.386 Q32.9713 655.386 30.2341 651.821 Q27.4968 648.256 27.4968 641.7 Q27.4968 638.453 27.9743 635.589 Q28.4517 632.724 29.4065 630.305 Z" fill="#000000" fill-rule="evenodd" fill-opacity="1" /><path clip-path="url(#clip700)" d="M14.479 605.383 L72.5979 605.383 L72.5979 618.879 L68.0464 618.879 L68.0464 611.272 L19.0304 611.272 L19.0304 618.879 L14.479 618.879 L14.479 605.383 Z" fill="#000000" fill-rule="evenodd" fill-opacity="1" /><polyline clip-path="url(#clip702)" style="stroke:#004991; stroke-linecap:round; stroke-linejoin:round; stroke-width:12; stroke-opacity:1; fill:none" points="
  264.778,86.1857 554.373,448.757 1133.56,701.503 2291.94,826.674 
  "/>
<circle clip-path="url(#clip702)" cx="264.778" cy="86.1857" r="14.4" fill="#004991" fill-rule="evenodd" fill-opacity="1" stroke="none"/>
<circle clip-path="url(#clip702)" cx="554.373" cy="448.757" r="14.4" fill="#004991" fill-rule="evenodd" fill-opacity="1" stroke="none"/>
<circle clip-path="url(#clip702)" cx="1133.56" cy="701.503" r="14.4" fill="#004991" fill-rule="evenodd" fill-opacity="1" stroke="none"/>
<circle clip-path="url(#clip702)" cx="2291.94" cy="826.674" r="14.4" fill="#004991" fill-rule="evenodd" fill-opacity="1" stroke="none"/>
<polyline clip-path="url(#clip702)" style="stroke:#4c7fb2; stroke-linecap:round; stroke-linejoin:round; stroke-width:12; stroke-opacity:1; fill:none" points="
  264.778,805.761 554.373,1162.51 1133.56,1303.38 2291.94,1384.24 
  "/>
<circle clip-path="url(#clip702)" cx="264.778" cy="805.761" r="14.4" fill="#4c7fb2" fill-rule="evenodd" fill-opacity="1" stroke="none"/>
<circle clip-path="url(#clip702)" cx="554.373" cy="1162.51" r="14.4" fill="#4c7fb2" fill-rule="evenodd" fill-opacity="1" stroke="none"/>
<circle clip-path="url(#clip702)" cx="1133.56" cy="1303.38" r="14.4" fill="#4c7fb2" fill-rule="evenodd" fill-opacity="1" stroke="none"/>
<circle clip-path="url(#clip702)" cx="2291.94" cy="1384.24" r="14.4" fill="#4c7fb2" fill-rule="evenodd" fill-opacity="1" stroke="none"/>
<path clip-path="url(#clip700)" d="
M1846.75 248.629 L2281.13 248.629 L2281.13 93.1086 L1846.75 93.1086  Z
  " fill="#ffffff" fill-rule="evenodd" fill-opacity="1"/>
<polyline clip-path="url(#clip700)" style="stroke:#000000; stroke-linecap:round; stroke-linejoin:round; stroke-width:4; stroke-opacity:1; fill:none" points="
  1846.75,248.629 2281.13,248.629 2281.13,93.1086 1846.75,93.1086 1846.75,248.629 
  "/>
<polyline clip-path="url(#clip700)" style="stroke:#004991; stroke-linecap:round; stroke-linejoin:round; stroke-width:4; stroke-opacity:1; fill:none" points="
  1870.63,144.949 2013.88,144.949 
  "/>
<circle clip-path="url(#clip700)" cx="1942.25" cy="144.949" r="19.8962" fill="#004991" fill-rule="evenodd" fill-opacity="1" stroke="none"/>
<path clip-path="url(#clip700)" d="M2042.43 145.724 L2042.43 158.386 L2049.93 158.386 Q2053.7 158.386 2055.51 156.835 Q2057.34 155.261 2057.34 152.043 Q2057.34 148.803 2055.51 147.275 Q2053.7 145.724 2049.93 145.724 L2042.43 145.724 M2042.43 131.511 L2042.43 141.928 L2049.35 141.928 Q2052.78 141.928 2054.44 140.655 Q2056.13 139.358 2056.13 136.719 Q2056.13 134.104 2054.44 132.807 Q2052.78 131.511 2049.35 131.511 L2042.43 131.511 M2037.75 127.669 L2049.7 127.669 Q2055.05 127.669 2057.94 129.891 Q2060.83 132.113 2060.83 136.21 Q2060.83 139.382 2059.35 141.257 Q2057.87 143.131 2055 143.594 Q2058.45 144.335 2060.35 146.696 Q2062.27 149.034 2062.27 152.553 Q2062.27 157.182 2059.12 159.705 Q2055.97 162.229 2050.16 162.229 L2037.75 162.229 L2037.75 127.669 Z" fill="#000000" fill-rule="evenodd" fill-opacity="1" /><path clip-path="url(#clip700)" d="M2081.83 132.275 L2075.49 149.474 L2088.19 149.474 L2081.83 132.275 M2079.19 127.669 L2084.49 127.669 L2097.66 162.229 L2092.8 162.229 L2089.65 153.363 L2074.07 153.363 L2070.93 162.229 L2066 162.229 L2079.19 127.669 Z" fill="#000000" fill-rule="evenodd" fill-opacity="1" /><path clip-path="url(#clip700)" d="M2119.1 146.025 Q2120.6 146.534 2122.01 148.201 Q2123.45 149.868 2124.88 152.784 L2129.63 162.229 L2124.61 162.229 L2120.18 153.363 Q2118.47 149.891 2116.85 148.756 Q2115.25 147.622 2112.48 147.622 L2107.38 147.622 L2107.38 162.229 L2102.71 162.229 L2102.71 127.669 L2113.26 127.669 Q2119.19 127.669 2122.11 130.145 Q2125.02 132.622 2125.02 137.622 Q2125.02 140.886 2123.49 143.039 Q2121.99 145.192 2119.1 146.025 M2107.38 131.511 L2107.38 143.78 L2113.26 143.78 Q2116.64 143.78 2118.36 142.229 Q2120.09 140.655 2120.09 137.622 Q2120.09 134.59 2118.36 133.062 Q2116.64 131.511 2113.26 131.511 L2107.38 131.511 Z" fill="#000000" fill-rule="evenodd" fill-opacity="1" /><path clip-path="url(#clip700)" d="M2127.41 127.669 L2156.64 127.669 L2156.64 131.604 L2144.37 131.604 L2144.37 162.229 L2139.68 162.229 L2139.68 131.604 L2127.41 131.604 L2127.41 127.669 Z" fill="#000000" fill-rule="evenodd" fill-opacity="1" /><polyline clip-path="url(#clip700)" style="stroke:#4c7fb2; stroke-linecap:round; stroke-linejoin:round; stroke-width:4; stroke-opacity:1; fill:none" points="
  1870.63,196.789 2013.88,196.789 
  "/>
<circle clip-path="url(#clip700)" cx="1942.25" cy="196.789" r="19.8962" fill="#4c7fb2" fill-rule="evenodd" fill-opacity="1" stroke="none"/>
<path clip-path="url(#clip700)" d="M2037.75 179.509 L2044.72 179.509 L2053.54 203.027 L2062.41 179.509 L2069.37 179.509 L2069.37 214.069 L2064.81 214.069 L2064.81 183.722 L2055.9 207.425 L2051.2 207.425 L2042.29 183.722 L2042.29 214.069 L2037.75 214.069 L2037.75 179.509 Z" fill="#000000" fill-rule="evenodd" fill-opacity="1" /><path clip-path="url(#clip700)" d="M2095.05 197.865 Q2096.55 198.374 2097.96 200.041 Q2099.4 201.708 2100.83 204.624 L2105.58 214.069 L2100.56 214.069 L2096.13 205.203 Q2094.42 201.731 2092.8 200.596 Q2091.2 199.462 2088.43 199.462 L2083.33 199.462 L2083.33 214.069 L2078.66 214.069 L2078.66 179.509 L2089.21 179.509 Q2095.14 179.509 2098.06 181.985 Q2100.97 184.462 2100.97 189.462 Q2100.97 192.726 2099.44 194.879 Q2097.94 197.032 2095.05 197.865 M2083.33 183.351 L2083.33 195.62 L2089.21 195.62 Q2092.59 195.62 2094.31 194.069 Q2096.04 192.495 2096.04 189.462 Q2096.04 186.43 2094.31 184.902 Q2092.59 183.351 2089.21 183.351 L2083.33 183.351 Z" fill="#000000" fill-rule="evenodd" fill-opacity="1" /><path clip-path="url(#clip700)" d="M2111.6 179.509 L2116.27 179.509 L2116.27 214.069 L2111.6 214.069 L2111.6 179.509 Z" fill="#000000" fill-rule="evenodd" fill-opacity="1" /><path clip-path="url(#clip700)" d="M2141.97 197.865 Q2143.47 198.374 2144.88 200.041 Q2146.32 201.708 2147.75 204.624 L2152.5 214.069 L2147.48 214.069 L2143.05 205.203 Q2141.34 201.731 2139.72 200.596 Q2138.12 199.462 2135.35 199.462 L2130.25 199.462 L2130.25 214.069 L2125.58 214.069 L2125.58 179.509 L2136.13 179.509 Q2142.06 179.509 2144.98 181.985 Q2147.89 184.462 2147.89 189.462 Q2147.89 192.726 2146.37 194.879 Q2144.86 197.032 2141.97 197.865 M2130.25 183.351 L2130.25 195.62 L2136.13 195.62 Q2139.51 195.62 2141.23 194.069 Q2142.96 192.495 2142.96 189.462 Q2142.96 186.43 2141.23 184.902 Q2139.51 183.351 2136.13 183.351 L2130.25 183.351 Z" fill="#000000" fill-rule="evenodd" fill-opacity="1" /><path clip-path="url(#clip700)" d="M2178.38 200.041 L2178.38 202.124 L2158.8 202.124 Q2159.07 206.522 2161.43 208.837 Q2163.82 211.129 2168.05 211.129 Q2170.51 211.129 2172.8 210.527 Q2175.11 209.925 2177.38 208.721 L2177.38 212.749 Q2175.09 213.721 2172.68 214.231 Q2170.28 214.74 2167.8 214.74 Q2161.6 214.74 2157.96 211.129 Q2154.35 207.518 2154.35 201.36 Q2154.35 194.995 2157.78 191.268 Q2161.23 187.518 2167.06 187.518 Q2172.29 187.518 2175.32 190.897 Q2178.38 194.254 2178.38 200.041 M2174.12 198.791 Q2174.07 195.296 2172.15 193.212 Q2170.25 191.129 2167.11 191.129 Q2163.54 191.129 2161.39 193.143 Q2159.26 195.157 2158.93 198.814 L2174.12 198.791 Z" fill="#000000" fill-rule="evenodd" fill-opacity="1" /><path clip-path="url(#clip700)" d="M2204.03 189.138 L2204.03 193.12 Q2202.22 192.124 2200.39 191.638 Q2198.59 191.129 2196.74 191.129 Q2192.59 191.129 2190.3 193.768 Q2188.01 196.384 2188.01 201.129 Q2188.01 205.874 2190.3 208.513 Q2192.59 211.129 2196.74 211.129 Q2198.59 211.129 2200.39 210.643 Q2202.22 210.133 2204.03 209.138 L2204.03 213.073 Q2202.24 213.907 2200.32 214.323 Q2198.43 214.74 2196.27 214.74 Q2190.42 214.74 2186.97 211.059 Q2183.52 207.379 2183.52 201.129 Q2183.52 194.786 2186.99 191.152 Q2190.49 187.518 2196.55 187.518 Q2198.52 187.518 2200.39 187.935 Q2202.27 188.328 2204.03 189.138 Z" fill="#000000" fill-rule="evenodd" fill-opacity="1" /><path clip-path="url(#clip700)" d="M2221.48 191.129 Q2218.05 191.129 2216.06 193.814 Q2214.07 196.476 2214.07 201.129 Q2214.07 205.782 2216.04 208.467 Q2218.03 211.129 2221.48 211.129 Q2224.88 211.129 2226.87 208.444 Q2228.86 205.758 2228.86 201.129 Q2228.86 196.522 2226.87 193.837 Q2224.88 191.129 2221.48 191.129 M2221.48 187.518 Q2227.04 187.518 2230.21 191.129 Q2233.38 194.74 2233.38 201.129 Q2233.38 207.495 2230.21 211.129 Q2227.04 214.74 2221.48 214.74 Q2215.9 214.74 2212.73 211.129 Q2209.58 207.495 2209.58 201.129 Q2209.58 194.74 2212.73 191.129 Q2215.9 187.518 2221.48 187.518 Z" fill="#000000" fill-rule="evenodd" fill-opacity="1" /></svg>
