<?xml version="1.0" encoding="utf-8"?>
<svg xmlns="http://www.w3.org/2000/svg" xmlns:xlink="http://www.w3.org/1999/xlink" width="900" height="400" viewBox="0 0 3600 1600">
<defs>
  <clipPath id="clip490">
    <rect x="0" y="0" width="3600" height="1600"/>
  </clipPath>
</defs>
<path clip-path="url(#clip490)" d="
M0 1600 L3600 1600 L3600 0 L0 0  Z
  " fill="#ffffff" fill-rule="evenodd" fill-opacity="1"/>
<defs>
  <clipPath id="clip491">
    <rect x="720" y="0" width="2521" height="1600"/>
  </clipPath>
</defs>
<path clip-path="url(#clip490)" d="
M263.116 1387.55 L3552.76 1387.55 L3552.76 47.2441 L263.116 47.2441  Z
  " fill="#ffffff" fill-rule="evenodd" fill-opacity="1"/>
<defs>
  <clipPath id="clip492">
    <rect x="263" y="47" width="3291" height="1341"/>
  </clipPath>
</defs>
<polyline clip-path="url(#clip492)" style="stroke:#000000; stroke-linecap:round; stroke-linejoin:round; stroke-width:2; stroke-opacity:0.1; fill:none" points="
  799.566,1387.55 799.566,47.2441 
  "/>
<polyline clip-path="url(#clip492)" style="stroke:#000000; stroke-linecap:round; stroke-linejoin:round; stroke-width:2; stroke-opacity:0.1; fill:none" points="
  1686.26,1387.55 1686.26,47.2441 
  "/>
<polyline clip-path="url(#clip492)" style="stroke:#000000; stroke-linecap:round; stroke-linejoin:round; stroke-width:2; stroke-opacity:0.1; fill:none" points="
  2572.96,1387.55 2572.96,47.2441 
  "/>
<polyline clip-path="url(#clip492)" style="stroke:#000000; stroke-linecap:round; stroke-linejoin:round; stroke-width:2; stroke-opacity:0.1; fill:none" points="
  3459.65,1387.55 3459.65,47.2441 
  "/>
<polyline clip-path="url(#clip490)" style="stroke:#000000; stroke-linecap:round; stroke-linejoin:round; stroke-width:4; stroke-opacity:1; fill:none" points="
  263.116,1387.55 3552.76,1387.55 
  "/>
<polyline clip-path="url(#clip490)" style="stroke:#000000; stroke-linecap:round; stroke-linejoin:round; stroke-width:4; stroke-opacity:1; fill:none" points="
  799.566,1387.55 799.566,1368.65 
  "/>
<polyline clip-path="url(#clip490)" style="stroke:#000000; stroke-linecap:round; stroke-linejoin:round; stroke-width:4; stroke-opacity:1; fill:none" points="
  1686.26,1387.55 1686.26,1368.65 
  "/>
<polyline clip-path="url(#clip490)" style="stroke:#000000; stroke-linecap:round; stroke-linejoin:round; stroke-width:4; stroke-opacity:1; fill:none" points="
  2572.96,1387.55 2572.96,1368.65 
  "/>
<polyline clip-path="url(#clip490)" style="stroke:#000000; stroke-linecap:round; stroke-linejoin:round; stroke-width:4; stroke-opacity:1; fill:none" points="
  3459.65,1387.55 3459.65,1368.65 
  "/>
<path clip-path="url(#clip490)" d="M794.219 1455.61 L810.539 1455.61 L810.539 1459.55 L788.594 1459.55 L788.594 1455.61 Q791.256 1452.86 795.84 1448.23 Q800.446 1443.58 801.627 1442.23 Q803.872 1439.71 804.752 1437.97 Q805.654 1436.21 805.654 1434.52 Q805.654 1431.77 803.71 1430.03 Q801.789 1428.3 798.687 1428.3 Q796.488 1428.3 794.034 1429.06 Q791.604 1429.83 788.826 1431.38 L788.826 1426.65 Q791.65 1425.52 794.104 1424.94 Q796.557 1424.36 798.594 1424.36 Q803.965 1424.36 807.159 1427.05 Q810.353 1429.73 810.353 1434.22 Q810.353 1436.35 809.543 1438.27 Q808.756 1440.17 806.65 1442.77 Q806.071 1443.44 802.969 1446.65 Q799.867 1449.85 794.219 1455.61 Z" fill="#000000" fill-rule="evenodd" fill-opacity="1" /><path clip-path="url(#clip490)" d="M1689.27 1429.06 L1677.47 1447.51 L1689.27 1447.51 L1689.27 1429.06 M1688.04 1424.99 L1693.92 1424.99 L1693.92 1447.51 L1698.85 1447.51 L1698.85 1451.4 L1693.92 1451.4 L1693.92 1459.55 L1689.27 1459.55 L1689.27 1451.4 L1673.67 1451.4 L1673.67 1446.89 L1688.04 1424.99 Z" fill="#000000" fill-rule="evenodd" fill-opacity="1" /><path clip-path="url(#clip490)" d="M2573.36 1440.4 Q2570.21 1440.4 2568.36 1442.56 Q2566.53 1444.71 2566.53 1448.46 Q2566.53 1452.19 2568.36 1454.36 Q2570.21 1456.52 2573.36 1456.52 Q2576.51 1456.52 2578.34 1454.36 Q2580.19 1452.19 2580.19 1448.46 Q2580.19 1444.71 2578.34 1442.56 Q2576.51 1440.4 2573.36 1440.4 M2582.64 1425.75 L2582.64 1430.01 Q2580.89 1429.18 2579.08 1428.74 Q2577.3 1428.3 2575.54 1428.3 Q2570.91 1428.3 2568.46 1431.42 Q2566.02 1434.55 2565.68 1440.87 Q2567.04 1438.85 2569.1 1437.79 Q2571.16 1436.7 2573.64 1436.7 Q2578.85 1436.7 2581.86 1439.87 Q2584.89 1443.02 2584.89 1448.46 Q2584.89 1453.78 2581.74 1457 Q2578.59 1460.22 2573.36 1460.22 Q2567.37 1460.22 2564.2 1455.64 Q2561.02 1451.03 2561.02 1442.3 Q2561.02 1434.11 2564.91 1429.25 Q2568.8 1424.36 2575.35 1424.36 Q2577.11 1424.36 2578.89 1424.71 Q2580.7 1425.06 2582.64 1425.75 Z" fill="#000000" fill-rule="evenodd" fill-opacity="1" /><path clip-path="url(#clip490)" d="M3459.65 1443.14 Q3456.32 1443.14 3454.4 1444.92 Q3452.5 1446.7 3452.5 1449.83 Q3452.5 1452.95 3454.4 1454.73 Q3456.32 1456.52 3459.65 1456.52 Q3462.99 1456.52 3464.91 1454.73 Q3466.83 1452.93 3466.83 1449.83 Q3466.83 1446.7 3464.91 1444.92 Q3463.01 1443.14 3459.65 1443.14 M3454.98 1441.15 Q3451.97 1440.4 3450.28 1438.34 Q3448.61 1436.28 3448.61 1433.32 Q3448.61 1429.18 3451.55 1426.77 Q3454.51 1424.36 3459.65 1424.36 Q3464.81 1424.36 3467.75 1426.77 Q3470.69 1429.18 3470.69 1433.32 Q3470.69 1436.28 3469 1438.34 Q3467.34 1440.4 3464.35 1441.15 Q3467.73 1441.93 3469.61 1444.22 Q3471.5 1446.52 3471.5 1449.83 Q3471.5 1454.85 3468.43 1457.53 Q3465.37 1460.22 3459.65 1460.22 Q3453.94 1460.22 3450.86 1457.53 Q3447.8 1454.85 3447.8 1449.83 Q3447.8 1446.52 3449.7 1444.22 Q3451.6 1441.93 3454.98 1441.15 M3453.26 1433.76 Q3453.26 1436.45 3454.93 1437.95 Q3456.62 1439.46 3459.65 1439.46 Q3462.66 1439.46 3464.35 1437.95 Q3466.06 1436.45 3466.06 1433.76 Q3466.06 1431.08 3464.35 1429.57 Q3462.66 1428.07 3459.65 1428.07 Q3456.62 1428.07 3454.93 1429.57 Q3453.26 1431.08 3453.26 1433.76 Z" fill="#000000" fill-rule="evenodd" fill-opacity="1" /><path clip-path="url(#clip490)" d="M1771.73 1521.73 L1762.46 1521.73 L1759.79 1532.36 L1769.12 1532.36 L1771.73 1521.73 M1766.95 1503.62 L1763.64 1516.83 L1772.94 1516.83 L1776.28 1503.62 L1781.37 1503.62 L1778.09 1516.83 L1788.02 1516.83 L1788.02 1521.73 L1776.85 1521.73 L1774.24 1532.36 L1784.36 1532.36 L1784.36 1537.23 L1773 1537.23 L1769.69 1550.41 L1764.6 1550.41 L1767.87 1537.23 L1758.55 1537.23 L1755.27 1550.41 L1750.15 1550.41 L1753.46 1537.23 L1743.43 1537.23 L1743.43 1532.36 L1754.63 1532.36 L1757.31 1521.73 L1747.06 1521.73 L1747.06 1516.83 L1758.55 1516.83 L1761.8 1503.62 L1766.95 1503.62 Z" fill="#000000" fill-rule="evenodd" fill-opacity="1" /><path clip-path="url(#clip490)" d="M1813.55 1502.89 L1853.75 1502.89 L1853.75 1508.3 L1836.88 1508.3 L1836.88 1550.41 L1830.42 1550.41 L1830.42 1508.3 L1813.55 1508.3 L1813.55 1502.89 Z" fill="#000000" fill-rule="evenodd" fill-opacity="1" /><path clip-path="url(#clip490)" d="M1889.33 1528.9 L1889.33 1550.41 L1883.48 1550.41 L1883.48 1529.09 Q1883.48 1524.03 1881.5 1521.51 Q1879.53 1519 1875.58 1519 Q1870.84 1519 1868.1 1522.02 Q1865.37 1525.04 1865.37 1530.26 L1865.37 1550.41 L1859.48 1550.41 L1859.48 1500.89 L1865.37 1500.89 L1865.37 1520.3 Q1867.47 1517.09 1870.3 1515.5 Q1873.16 1513.9 1876.89 1513.9 Q1883.03 1513.9 1886.18 1517.72 Q1889.33 1521.51 1889.33 1528.9 Z" fill="#000000" fill-rule="evenodd" fill-opacity="1" /><path clip-path="url(#clip490)" d="M1921.67 1520.24 Q1920.68 1519.67 1919.51 1519.41 Q1918.36 1519.12 1916.96 1519.12 Q1911.99 1519.12 1909.32 1522.37 Q1906.68 1525.59 1906.68 1531.63 L1906.68 1550.41 L1900.79 1550.41 L1900.79 1514.76 L1906.68 1514.76 L1906.68 1520.3 Q1908.52 1517.06 1911.48 1515.5 Q1914.44 1513.9 1918.68 1513.9 Q1919.28 1513.9 1920.01 1514 Q1920.75 1514.06 1921.64 1514.22 L1921.67 1520.24 Z" fill="#000000" fill-rule="evenodd" fill-opacity="1" /><path clip-path="url(#clip490)" d="M1956.87 1531.12 L1956.87 1533.99 L1929.95 1533.99 Q1930.33 1540.04 1933.57 1543.22 Q1936.85 1546.37 1942.68 1546.37 Q1946.05 1546.37 1949.2 1545.54 Q1952.38 1544.71 1955.5 1543.06 L1955.5 1548.6 Q1952.35 1549.93 1949.04 1550.63 Q1945.73 1551.33 1942.33 1551.33 Q1933.8 1551.33 1928.8 1546.37 Q1923.83 1541.4 1923.83 1532.94 Q1923.83 1524.19 1928.54 1519.06 Q1933.29 1513.9 1941.31 1513.9 Q1948.5 1513.9 1952.67 1518.55 Q1956.87 1523.17 1956.87 1531.12 M1951.02 1529.4 Q1950.95 1524.6 1948.31 1521.73 Q1945.7 1518.87 1941.37 1518.87 Q1936.47 1518.87 1933.51 1521.64 Q1930.58 1524.41 1930.14 1529.44 L1951.02 1529.4 Z" fill="#000000" fill-rule="evenodd" fill-opacity="1" /><path clip-path="url(#clip490)" d="M1982.69 1532.49 Q1975.59 1532.49 1972.85 1534.12 Q1970.11 1535.74 1970.11 1539.65 Q1970.11 1542.77 1972.15 1544.62 Q1974.22 1546.43 1977.75 1546.43 Q1982.62 1546.43 1985.55 1543 Q1988.51 1539.53 1988.51 1533.8 L1988.51 1532.49 L1982.69 1532.49 M1994.37 1530.07 L1994.37 1550.41 L1988.51 1550.41 L1988.51 1545 Q1986.5 1548.25 1983.51 1549.81 Q1980.52 1551.33 1976.19 1551.33 Q1970.72 1551.33 1967.47 1548.28 Q1964.26 1545.19 1964.26 1540.04 Q1964.26 1534.02 1968.27 1530.96 Q1972.31 1527.91 1980.3 1527.91 L1988.51 1527.91 L1988.51 1527.34 Q1988.51 1523.29 1985.84 1521.1 Q1983.19 1518.87 1978.39 1518.87 Q1975.33 1518.87 1972.44 1519.6 Q1969.54 1520.33 1966.87 1521.8 L1966.87 1516.39 Q1970.08 1515.15 1973.1 1514.54 Q1976.13 1513.9 1978.99 1513.9 Q1986.73 1513.9 1990.55 1517.91 Q1994.37 1521.93 1994.37 1530.07 Z" fill="#000000" fill-rule="evenodd" fill-opacity="1" /><path clip-path="url(#clip490)" d="M2029.89 1520.17 L2029.89 1500.89 L2035.74 1500.89 L2035.74 1550.41 L2029.89 1550.41 L2029.89 1545.06 Q2028.04 1548.25 2025.21 1549.81 Q2022.41 1551.33 2018.46 1551.33 Q2012 1551.33 2007.93 1546.18 Q2003.88 1541.02 2003.88 1532.62 Q2003.88 1524.22 2007.93 1519.06 Q2012 1513.9 2018.46 1513.9 Q2022.41 1513.9 2025.21 1515.46 Q2028.04 1516.99 2029.89 1520.17 M2009.93 1532.62 Q2009.93 1539.08 2012.57 1542.77 Q2015.25 1546.43 2019.89 1546.43 Q2024.54 1546.43 2027.21 1542.77 Q2029.89 1539.08 2029.89 1532.62 Q2029.89 1526.16 2027.21 1522.5 Q2024.54 1518.81 2019.89 1518.81 Q2015.25 1518.81 2012.57 1522.5 Q2009.93 1526.16 2009.93 1532.62 Z" fill="#000000" fill-rule="evenodd" fill-opacity="1" /><path clip-path="url(#clip490)" d="M2070.53 1515.81 L2070.53 1521.35 Q2068.05 1520.08 2065.38 1519.44 Q2062.7 1518.81 2059.84 1518.81 Q2055.48 1518.81 2053.28 1520.14 Q2051.12 1521.48 2051.12 1524.15 Q2051.12 1526.19 2052.68 1527.37 Q2054.24 1528.51 2058.95 1529.56 L2060.95 1530.01 Q2067.19 1531.35 2069.8 1533.8 Q2072.44 1536.22 2072.44 1540.58 Q2072.44 1545.54 2068.49 1548.44 Q2064.58 1551.33 2057.7 1551.33 Q2054.84 1551.33 2051.72 1550.76 Q2048.63 1550.22 2045.2 1549.11 L2045.2 1543.06 Q2048.44 1544.75 2051.59 1545.61 Q2054.74 1546.43 2057.83 1546.43 Q2061.97 1546.43 2064.2 1545.03 Q2066.43 1543.6 2066.43 1541.02 Q2066.43 1538.64 2064.8 1537.36 Q2063.21 1536.09 2057.77 1534.91 L2055.73 1534.43 Q2050.29 1533.29 2047.87 1530.93 Q2045.45 1528.55 2045.45 1524.41 Q2045.45 1519.38 2049.02 1516.64 Q2052.58 1513.9 2059.14 1513.9 Q2062.38 1513.9 2065.25 1514.38 Q2068.11 1514.86 2070.53 1515.81 Z" fill="#000000" fill-rule="evenodd" fill-opacity="1" /><polyline clip-path="url(#clip492)" style="stroke:#000000; stroke-linecap:round; stroke-linejoin:round; stroke-width:2; stroke-opacity:0.1; fill:none" points="
  263.116,1238.55 3552.76,1238.55 
  "/>
<polyline clip-path="url(#clip492)" style="stroke:#000000; stroke-linecap:round; stroke-linejoin:round; stroke-width:2; stroke-opacity:0.1; fill:none" points="
  263.116,875.742 3552.76,875.742 
  "/>
<polyline clip-path="url(#clip492)" style="stroke:#000000; stroke-linecap:round; stroke-linejoin:round; stroke-width:2; stroke-opacity:0.1; fill:none" points="
  263.116,512.932 3552.76,512.932 
  "/>
<polyline clip-path="url(#clip492)" style="stroke:#000000; stroke-linecap:round; stroke-linejoin:round; stroke-width:2; stroke-opacity:0.1; fill:none" points="
  263.116,150.123 3552.76,150.123 
  "/>
<polyline clip-path="url(#clip490)" style="stroke:#000000; stroke-linecap:round; stroke-linejoin:round; stroke-width:4; stroke-opacity:1; fill:none" points="
  263.116,1387.55 263.116,47.2441 
  "/>
<polyline clip-path="url(#clip490)" style="stroke:#000000; stroke-linecap:round; stroke-linejoin:round; stroke-width:4; stroke-opacity:1; fill:none" points="
  263.116,1238.55 282.013,1238.55 
  "/>
<polyline clip-path="url(#clip490)" style="stroke:#000000; stroke-linecap:round; stroke-linejoin:round; stroke-width:4; stroke-opacity:1; fill:none" points="
  263.116,875.742 282.013,875.742 
  "/>
<polyline clip-path="url(#clip490)" style="stroke:#000000; stroke-linecap:round; stroke-linejoin:round; stroke-width:4; stroke-opacity:1; fill:none" points="
  263.116,512.932 282.013,512.932 
  "/>
<polyline clip-path="url(#clip490)" style="stroke:#000000; stroke-linecap:round; stroke-linejoin:round; stroke-width:4; stroke-opacity:1; fill:none" points="
  263.116,150.123 282.013,150.123 
  "/>
<path clip-path="url(#clip490)" d="M188.213 1221.27 L206.569 1221.27 L206.569 1225.21 L192.495 1225.21 L192.495 1233.68 Q193.514 1233.33 194.532 1233.17 Q195.551 1232.98 196.569 1232.98 Q202.356 1232.98 205.736 1236.15 Q209.116 1239.33 209.116 1244.74 Q209.116 1250.32 205.643 1253.42 Q202.171 1256.5 195.852 1256.5 Q193.676 1256.5 191.407 1256.13 Q189.162 1255.76 186.755 1255.02 L186.755 1250.32 Q188.838 1251.46 191.06 1252.01 Q193.282 1252.57 195.759 1252.57 Q199.764 1252.57 202.102 1250.46 Q204.44 1248.35 204.44 1244.74 Q204.44 1241.13 202.102 1239.03 Q199.764 1236.92 195.759 1236.92 Q193.884 1236.92 192.009 1237.34 Q190.157 1237.75 188.213 1238.63 L188.213 1221.27 Z" fill="#000000" fill-rule="evenodd" fill-opacity="1" /><path clip-path="url(#clip490)" d="M157.82 889.086 L165.459 889.086 L165.459 862.721 L157.148 864.388 L157.148 860.128 L165.412 858.462 L170.088 858.462 L170.088 889.086 L177.727 889.086 L177.727 893.022 L157.82 893.022 L157.82 889.086 Z" fill="#000000" fill-rule="evenodd" fill-opacity="1" /><path clip-path="url(#clip490)" d="M197.171 861.54 Q193.56 861.54 191.732 865.105 Q189.926 868.647 189.926 875.776 Q189.926 882.883 191.732 886.448 Q193.56 889.989 197.171 889.989 Q200.806 889.989 202.611 886.448 Q204.44 882.883 204.44 875.776 Q204.44 868.647 202.611 865.105 Q200.806 861.54 197.171 861.54 M197.171 857.837 Q202.981 857.837 206.037 862.443 Q209.116 867.026 209.116 875.776 Q209.116 884.503 206.037 889.11 Q202.981 893.693 197.171 893.693 Q191.361 893.693 188.282 889.11 Q185.227 884.503 185.227 875.776 Q185.227 867.026 188.282 862.443 Q191.361 857.837 197.171 857.837 Z" fill="#000000" fill-rule="evenodd" fill-opacity="1" /><path clip-path="url(#clip490)" d="M158.815 526.277 L166.454 526.277 L166.454 499.912 L158.144 501.578 L158.144 497.319 L166.408 495.652 L171.083 495.652 L171.083 526.277 L178.722 526.277 L178.722 530.212 L158.815 530.212 L158.815 526.277 Z" fill="#000000" fill-rule="evenodd" fill-opacity="1" /><path clip-path="url(#clip490)" d="M188.213 495.652 L206.569 495.652 L206.569 499.588 L192.495 499.588 L192.495 508.06 Q193.514 507.713 194.532 507.551 Q195.551 507.365 196.569 507.365 Q202.356 507.365 205.736 510.537 Q209.116 513.708 209.116 519.125 Q209.116 524.703 205.643 527.805 Q202.171 530.884 195.852 530.884 Q193.676 530.884 191.407 530.513 Q189.162 530.143 186.755 529.402 L186.755 524.703 Q188.838 525.837 191.06 526.393 Q193.282 526.949 195.759 526.949 Q199.764 526.949 202.102 524.842 Q204.44 522.736 204.44 519.125 Q204.44 515.513 202.102 513.407 Q199.764 511.301 195.759 511.301 Q193.884 511.301 192.009 511.717 Q190.157 512.134 188.213 513.013 L188.213 495.652 Z" fill="#000000" fill-rule="evenodd" fill-opacity="1" /><path clip-path="url(#clip490)" d="M161.037 163.468 L177.357 163.468 L177.357 167.403 L155.412 167.403 L155.412 163.468 Q158.074 160.713 162.658 156.084 Q167.264 151.431 168.445 150.089 Q170.69 147.565 171.57 145.829 Q172.472 144.07 172.472 142.38 Q172.472 139.626 170.528 137.89 Q168.607 136.153 165.505 136.153 Q163.306 136.153 160.852 136.917 Q158.422 137.681 155.644 139.232 L155.644 134.51 Q158.468 133.376 160.922 132.797 Q163.375 132.218 165.412 132.218 Q170.783 132.218 173.977 134.903 Q177.171 137.589 177.171 142.079 Q177.171 144.209 176.361 146.13 Q175.574 148.028 173.468 150.621 Q172.889 151.292 169.787 154.51 Q166.685 157.704 161.037 163.468 Z" fill="#000000" fill-rule="evenodd" fill-opacity="1" /><path clip-path="url(#clip490)" d="M197.171 135.922 Q193.56 135.922 191.732 139.487 Q189.926 143.028 189.926 150.158 Q189.926 157.264 191.732 160.829 Q193.56 164.371 197.171 164.371 Q200.806 164.371 202.611 160.829 Q204.44 157.264 204.44 150.158 Q204.44 143.028 202.611 139.487 Q200.806 135.922 197.171 135.922 M197.171 132.218 Q202.981 132.218 206.037 136.825 Q209.116 141.408 209.116 150.158 Q209.116 158.885 206.037 163.491 Q202.981 168.075 197.171 168.075 Q191.361 168.075 188.282 163.491 Q185.227 158.885 185.227 150.158 Q185.227 141.408 188.282 136.825 Q191.361 132.218 197.171 132.218 Z" fill="#000000" fill-rule="evenodd" fill-opacity="1" /><path clip-path="url(#clip490)" d="M39.6363 847.224 L39.6363 807.025 L45.0471 807.025 L45.0471 823.894 L87.1563 823.894 L87.1563 830.355 L45.0471 830.355 L45.0471 847.224 L39.6363 847.224 Z" fill="#000000" fill-rule="evenodd" fill-opacity="1" /><path clip-path="url(#clip490)" d="M51.5083 803.078 L51.5083 797.222 L87.1563 797.222 L87.1563 803.078 L51.5083 803.078 M37.6311 803.078 L37.6311 797.222 L45.0471 797.222 L45.0471 803.078 L37.6311 803.078 Z" fill="#000000" fill-rule="evenodd" fill-opacity="1" /><path clip-path="url(#clip490)" d="M58.3515 757.213 Q54.4047 755.017 52.5268 751.962 Q50.649 748.906 50.649 744.768 Q50.649 739.198 54.5639 736.175 Q58.4469 733.151 65.6402 733.151 L87.1563 733.151 L87.1563 739.039 L65.8312 739.039 Q60.7068 739.039 58.2241 740.854 Q55.7415 742.668 55.7415 746.392 Q55.7415 750.943 58.7652 753.585 Q61.7889 756.227 67.0088 756.227 L87.1563 756.227 L87.1563 762.115 L65.8312 762.115 Q60.6749 762.115 58.2241 763.929 Q55.7415 765.743 55.7415 769.531 Q55.7415 774.019 58.7971 776.661 Q61.8208 779.302 67.0088 779.302 L87.1563 779.302 L87.1563 785.191 L51.5083 785.191 L51.5083 779.302 L57.0465 779.302 Q53.7682 777.297 52.2086 774.496 Q50.649 771.695 50.649 767.844 Q50.649 763.961 52.6223 761.256 Q54.5957 758.518 58.3515 757.213 Z" fill="#000000" fill-rule="evenodd" fill-opacity="1" /><path clip-path="url(#clip490)" d="M67.8682 690.978 L70.7328 690.978 L70.7328 717.905 Q76.7802 717.523 79.963 714.277 Q83.1141 710.998 83.1141 705.174 Q83.1141 701.8 82.2865 698.649 Q81.459 695.466 79.8039 692.347 L85.3421 692.347 Q86.6789 695.498 87.3791 698.808 Q88.0793 702.118 88.0793 705.524 Q88.0793 714.054 83.1141 719.051 Q78.1488 724.016 69.6824 724.016 Q60.9296 724.016 55.8052 719.306 Q50.649 714.563 50.649 706.542 Q50.649 699.349 55.2959 695.18 Q59.9111 690.978 67.8682 690.978 M66.1495 696.835 Q61.3433 696.898 58.4788 699.54 Q55.6142 702.15 55.6142 706.479 Q55.6142 711.38 58.3833 714.34 Q61.1524 717.269 66.1813 717.714 L66.1495 696.835 Z" fill="#000000" fill-rule="evenodd" fill-opacity="1" /><path clip-path="url(#clip490)" d="M37.6311 661.187 L37.6311 647.691 L42.1826 647.691 L42.1826 655.33 L91.1985 655.33 L91.1985 647.691 L95.75 647.691 L95.75 661.187 L37.6311 661.187 Z" fill="#000000" fill-rule="evenodd" fill-opacity="1" /><path clip-path="url(#clip490)" d="M52.5587 612.489 L58.0968 612.489 Q56.8237 614.972 56.1871 617.645 Q55.5506 620.319 55.5506 623.183 Q55.5506 627.544 56.8873 629.74 Q58.2241 631.904 60.8977 631.904 Q62.9348 631.904 64.1124 630.345 Q65.2583 628.785 66.3086 624.075 L66.7542 622.069 Q68.091 615.831 70.5418 613.221 Q72.9608 610.579 77.3213 610.579 Q82.2865 610.579 85.1829 614.526 Q88.0793 618.441 88.0793 625.316 Q88.0793 628.181 87.5064 631.3 Q86.9653 634.387 85.8513 637.825 L79.8039 637.825 Q81.4908 634.578 82.3502 631.427 Q83.1777 628.276 83.1777 625.189 Q83.1777 621.051 81.7773 618.823 Q80.345 616.595 77.7669 616.595 Q75.3797 616.595 74.1066 618.218 Q72.8334 619.81 71.6558 625.252 L71.1784 627.289 Q70.0325 632.732 67.6772 635.151 Q65.2901 637.57 61.1524 637.57 Q56.1235 637.57 53.3862 634.005 Q50.649 630.44 50.649 623.884 Q50.649 620.637 51.1264 617.773 Q51.6038 614.908 52.5587 612.489 Z" fill="#000000" fill-rule="evenodd" fill-opacity="1" /><path clip-path="url(#clip490)" d="M37.6311 587.567 L95.75 587.567 L95.75 601.063 L91.1985 601.063 L91.1985 593.456 L42.1826 593.456 L42.1826 601.063 L37.6311 601.063 L37.6311 587.567 Z" fill="#000000" fill-rule="evenodd" fill-opacity="1" /><polyline clip-path="url(#clip492)" style="stroke:#004991; stroke-linecap:round; stroke-linejoin:round; stroke-width:12; stroke-opacity:1; fill:none" points="
  356.219,85.1772 799.566,627.144 1686.26,980.41 3459.65,1143.13 
  "/>
<circle clip-path="url(#clip492)" cx="356.219" cy="85.1772" r="14.4" fill="#004991" fill-rule="evenodd" fill-opacity="1" stroke="none"/>
<circle clip-path="url(#clip492)" cx="799.566" cy="627.144" r="14.4" fill="#004991" fill-rule="evenodd" fill-opacity="1" stroke="none"/>
<circle clip-path="url(#clip492)" cx="1686.26" cy="980.41" r="14.4" fill="#004991" fill-rule="evenodd" fill-opacity="1" stroke="none"/>
<circle clip-path="url(#clip492)" cx="3459.65" cy="1143.13" r="14.4" fill="#004991" fill-rule="evenodd" fill-opacity="1" stroke="none"/>
<polyline clip-path="url(#clip492)" style="stroke:#4c7fb2; stroke-linecap:round; stroke-linejoin:round; stroke-width:12; stroke-opacity:1; fill:none" points="
  356.219,692.852 799.566,1073.63 1686.26,1244.08 3459.65,1349.61 
  "/>
<circle clip-path="url(#clip492)" cx="356.219" cy="692.852" r="14.4" fill="#4c7fb2" fill-rule="evenodd" fill-opacity="1" stroke="none"/>
<circle clip-path="url(#clip492)" cx="799.566" cy="1073.63" r="14.4" fill="#4c7fb2" fill-rule="evenodd" fill-opacity="1" stroke="none"/>
<circle clip-path="url(#clip492)" cx="1686.26" cy="1244.08" r="14.4" fill="#4c7fb2" fill-rule="evenodd" fill-opacity="1" stroke="none"/>
<circle clip-path="url(#clip492)" cx="3459.65" cy="1349.61" r="14.4" fill="#4c7fb2" fill-rule="evenodd" fill-opacity="1" stroke="none"/>
<path clip-path="url(#clip490)" d="
M2881.96 247.441 L3443.1 247.441 L3443.1 91.9209 L2881.96 91.9209  Z
  " fill="#ffffff" fill-rule="evenodd" fill-opacity="1"/>
<polyline clip-path="url(#clip490)" style="stroke:#000000; stroke-linecap:round; stroke-linejoin:round; stroke-width:4; stroke-opacity:1; fill:none" points="
  2881.96,247.441 3443.1,247.441 3443.1,91.9209 2881.96,91.9209 2881.96,247.441 
  "/>
<polyline clip-path="url(#clip490)" style="stroke:#004991; stroke-linecap:round; stroke-linejoin:round; stroke-width:4; stroke-opacity:1; fill:none" points="
  2918.51,143.761 3137.82,143.761 
  "/>
<circle clip-path="url(#clip490)" cx="3028.17" cy="143.761" r="23.04" fill="#004991" fill-rule="evenodd" fill-opacity="1" stroke="none"/>
<path clip-path="url(#clip490)" d="M3179.05 144.536 L3179.05 157.198 L3186.55 157.198 Q3190.32 157.198 3192.13 155.647 Q3193.96 154.073 3193.96 150.856 Q3193.96 147.615 3192.13 146.087 Q3190.32 144.536 3186.55 144.536 L3179.05 144.536 M3179.05 130.323 L3179.05 140.74 L3185.97 140.74 Q3189.4 140.74 3191.06 139.467 Q3192.75 138.171 3192.75 135.532 Q3192.75 132.916 3191.06 131.62 Q3189.4 130.323 3185.97 130.323 L3179.05 130.323 M3174.37 126.481 L3186.32 126.481 Q3191.67 126.481 3194.56 128.703 Q3197.45 130.925 3197.45 135.023 Q3197.45 138.194 3195.97 140.069 Q3194.49 141.944 3191.62 142.407 Q3195.07 143.147 3196.97 145.509 Q3198.89 147.847 3198.89 151.365 Q3198.89 155.995 3195.74 158.518 Q3192.59 161.041 3186.78 161.041 L3174.37 161.041 L3174.37 126.481 Z" fill="#000000" fill-rule="evenodd" fill-opacity="1" /><path clip-path="url(#clip490)" d="M3218.45 131.087 L3212.11 148.286 L3224.81 148.286 L3218.45 131.087 M3215.81 126.481 L3221.11 126.481 L3234.28 161.041 L3229.42 161.041 L3226.27 152.175 L3210.69 152.175 L3207.55 161.041 L3202.61 161.041 L3215.81 126.481 Z" fill="#000000" fill-rule="evenodd" fill-opacity="1" /><path clip-path="url(#clip490)" d="M3255.72 144.837 Q3257.22 145.347 3258.63 147.013 Q3260.07 148.68 3261.5 151.596 L3266.25 161.041 L3261.23 161.041 L3256.8 152.175 Q3255.09 148.703 3253.47 147.569 Q3251.87 146.434 3249.1 146.434 L3244 146.434 L3244 161.041 L3239.33 161.041 L3239.33 126.481 L3249.88 126.481 Q3255.81 126.481 3258.73 128.958 Q3261.64 131.435 3261.64 136.435 Q3261.64 139.698 3260.11 141.851 Q3258.61 144.004 3255.72 144.837 M3244 130.323 L3244 142.592 L3249.88 142.592 Q3253.26 142.592 3254.98 141.041 Q3256.71 139.467 3256.71 136.435 Q3256.71 133.402 3254.98 131.874 Q3253.26 130.323 3249.88 130.323 L3244 130.323 Z" fill="#000000" fill-rule="evenodd" fill-opacity="1" /><path clip-path="url(#clip490)" d="M3264.03 126.481 L3293.26 126.481 L3293.26 130.416 L3280.99 130.416 L3280.99 161.041 L3276.29 161.041 L3276.29 130.416 L3264.03 130.416 L3264.03 126.481 Z" fill="#000000" fill-rule="evenodd" fill-opacity="1" /><polyline clip-path="url(#clip490)" style="stroke:#4c7fb2; stroke-linecap:round; stroke-linejoin:round; stroke-width:4; stroke-opacity:1; fill:none" points="
  2918.51,195.601 3137.82,195.601 
  "/>
<circle clip-path="url(#clip490)" cx="3028.17" cy="195.601" r="23.04" fill="#4c7fb2" fill-rule="evenodd" fill-opacity="1" stroke="none"/>
<path clip-path="url(#clip490)" d="M3174.37 178.321 L3181.34 178.321 L3190.16 201.839 L3199.03 178.321 L3205.99 178.321 L3205.99 212.881 L3201.43 212.881 L3201.43 182.534 L3192.52 206.237 L3187.82 206.237 L3178.91 182.534 L3178.91 212.881 L3174.37 212.881 L3174.37 178.321 Z" fill="#000000" fill-rule="evenodd" fill-opacity="1" /><path clip-path="url(#clip490)" d="M3231.67 196.677 Q3233.17 197.187 3234.58 198.853 Q3236.02 200.52 3237.45 203.436 L3242.2 212.881 L3237.17 212.881 L3232.75 204.015 Q3231.04 200.543 3229.42 199.409 Q3227.82 198.274 3225.05 198.274 L3219.95 198.274 L3219.95 212.881 L3215.28 212.881 L3215.28 178.321 L3225.83 178.321 Q3231.76 178.321 3234.67 180.798 Q3237.59 183.275 3237.59 188.275 Q3237.59 191.538 3236.06 193.691 Q3234.56 195.844 3231.67 196.677 M3219.95 182.163 L3219.95 194.432 L3225.83 194.432 Q3229.21 194.432 3230.92 192.881 Q3232.66 191.307 3232.66 188.275 Q3232.66 185.242 3230.92 183.714 Q3229.21 182.163 3225.83 182.163 L3219.95 182.163 Z" fill="#000000" fill-rule="evenodd" fill-opacity="1" /><path clip-path="url(#clip490)" d="M3248.22 178.321 L3252.89 178.321 L3252.89 212.881 L3248.22 212.881 L3248.22 178.321 Z" fill="#000000" fill-rule="evenodd" fill-opacity="1" /><path clip-path="url(#clip490)" d="M3278.59 196.677 Q3280.09 197.187 3281.5 198.853 Q3282.94 200.52 3284.37 203.436 L3289.12 212.881 L3284.1 212.881 L3279.67 204.015 Q3277.96 200.543 3276.34 199.409 Q3274.74 198.274 3271.97 198.274 L3266.87 198.274 L3266.87 212.881 L3262.2 212.881 L3262.2 178.321 L3272.75 178.321 Q3278.68 178.321 3281.6 180.798 Q3284.51 183.275 3284.51 188.275 Q3284.51 191.538 3282.98 193.691 Q3281.48 195.844 3278.59 196.677 M3266.87 182.163 L3266.87 194.432 L3272.75 194.432 Q3276.13 194.432 3277.85 192.881 Q3279.58 191.307 3279.58 188.275 Q3279.58 185.242 3277.85 183.714 Q3276.13 182.163 3272.75 182.163 L3266.87 182.163 Z" fill="#000000" fill-rule="evenodd" fill-opacity="1" /><path clip-path="url(#clip490)" d="M3315 198.853 L3315 200.937 L3295.42 200.937 Q3295.69 205.335 3298.05 207.649 Q3300.44 209.941 3304.67 209.941 Q3307.13 209.941 3309.42 209.339 Q3311.73 208.737 3314 207.534 L3314 211.561 Q3311.71 212.534 3309.3 213.043 Q3306.9 213.552 3304.42 213.552 Q3298.22 213.552 3294.58 209.941 Q3290.97 206.33 3290.97 200.173 Q3290.97 193.807 3294.4 190.08 Q3297.85 186.33 3303.68 186.33 Q3308.91 186.33 3311.94 189.71 Q3315 193.066 3315 198.853 M3310.74 197.603 Q3310.69 194.108 3308.77 192.025 Q3306.87 189.941 3303.73 189.941 Q3300.16 189.941 3298.01 191.955 Q3295.88 193.969 3295.55 197.626 L3310.74 197.603 Z" fill="#000000" fill-rule="evenodd" fill-opacity="1" /><path clip-path="url(#clip490)" d="M3340.65 187.95 L3340.65 191.932 Q3338.84 190.937 3337.01 190.45 Q3335.21 189.941 3333.35 189.941 Q3329.21 189.941 3326.92 192.58 Q3324.63 195.196 3324.63 199.941 Q3324.63 204.686 3326.92 207.325 Q3329.21 209.941 3333.35 209.941 Q3335.21 209.941 3337.01 209.455 Q3338.84 208.946 3340.65 207.95 L3340.65 211.886 Q3338.86 212.719 3336.94 213.136 Q3335.04 213.552 3332.89 213.552 Q3327.04 213.552 3323.59 209.872 Q3320.14 206.191 3320.14 199.941 Q3320.14 193.599 3323.61 189.964 Q3327.1 186.33 3333.17 186.33 Q3335.14 186.33 3337.01 186.747 Q3338.89 187.14 3340.65 187.95 Z" fill="#000000" fill-rule="evenodd" fill-opacity="1" /><path clip-path="url(#clip490)" d="M3358.1 189.941 Q3354.67 189.941 3352.68 192.626 Q3350.69 195.288 3350.69 199.941 Q3350.69 204.594 3352.66 207.279 Q3354.65 209.941 3358.1 209.941 Q3361.5 209.941 3363.49 207.256 Q3365.48 204.571 3365.48 199.941 Q3365.48 195.335 3363.49 192.65 Q3361.5 189.941 3358.1 189.941 M3358.1 186.33 Q3363.66 186.33 3366.83 189.941 Q3370 193.552 3370 199.941 Q3370 206.307 3366.83 209.941 Q3363.66 213.552 3358.1 213.552 Q3352.52 213.552 3349.35 209.941 Q3346.2 206.307 3346.2 199.941 Q3346.2 193.552 3349.35 189.941 Q3352.52 186.33 3358.1 186.33 Z" fill="#000000" fill-rule="evenodd" fill-opacity="1" /></svg>
